  0
SECTION
  2
HEADER
  9
$ACADVER
  1
AC1032
  9
$ACADMAINTVER
 90
4
  9
$DWGCODEPAGE
  3
ANSI_936
  9
$LASTSAVEDBY
  1
seanwong
  9
$REQUIREDVERSIONS
160
0
  9
$INSBASE
 10
0.0
 20
0.0
 30
0.0
  9
$EXTMIN
 10
11.2469185442
 20
3.941303077406002
 30
0.0
  9
$EXTMAX
 10
305.652752035112
 20
202.2806411845669
 30
0.0
  9
$LIMMIN
 10
0.0
 20
0.0
  9
$LIMMAX
 10
297.0
 20
210.0
  9
$ORTHOMODE
 70
0
  9
$REGENMODE
 70
1
  9
$FILLMODE
 70
1
  9
$QTEXTMODE
 70
0
  9
$MIRRTEXT
 70
0
  9
$LTSCALE
 40
16.335
  9
$ATTMODE
 70
1
  9
$TEXTSIZE
 40
0.2
  9
$TRACEWID
 40
0.05
  9
$TEXTSTYLE
  7
STANDARD
  9
$CLAYER
  8
0
  9
$CELTYPE
  6
BYLAYER
  9
$CECOLOR
 62
256
  9
$CELTSCALE
 40
1.0
  9
$DISPSILH
 70
0
  9
$DIMSCALE
 40
1.0
  9
$DIMASZ
 40
2.7
  9
$DIMEXO
 40
0.0
  9
$DIMDLI
 40
11.286
  9
$DIMRND
 40
0.0
  9
$DIMDLE
 40
0.0
  9
$DIMEXE
 40
1.5
  9
$DIMTP
 40
0.01
  9
$DIMTM
 40
0.01
  9
$DIMTXT
 40
3.0
  9
$DIMCEN
 40
2.673
  9
$DIMTSZ
 40
0.0
  9
$DIMTOL
 70
1
  9
$DIMLIM
 70
0
  9
$DIMTIH
 70
1
  9
$DIMTOH
 70
1
  9
$DIMSE1
 70
0
  9
$DIMSE2
 70
0
  9
$DIMTAD
 70
0
  9
$DIMZIN
 70
0
  9
$DIMBLK
  1
_FILLED
  9
$DIMASO
 70
1
  9
$DIMSHO
 70
1
  9
$DIMPOST
  1

  9
$DIMAPOST
  1

  9
$DIMALT
 70
0
  9
$DIMALTD
 70
2
  9
$DIMALTF
 40
25.4
  9
$DIMLFAC
 40
1.0
  9
$DIMTOFL
 70
0
  9
$DIMTVP
 40
0.0
  9
$DIMTIX
 70
0
  9
$DIMSOXD
 70
0
  9
$DIMSAH
 70
0
  9
$DIMBLK1
  1

  9
$DIMBLK2
  1

  9
$DIMSTYLE
  2
STANDARD
  9
$DIMCLRD
 70
0
  9
$DIMCLRE
 70
0
  9
$DIMCLRT
 70
0
  9
$DIMTFAC
 40
1.0
  9
$DIMGAP
 40
0.625
  9
$DIMJUST
 70
0
  9
$DIMSD1
 70
0
  9
$DIMSD2
 70
0
  9
$DIMTOLJ
 70
1
  9
$DIMTZIN
 70
0
  9
$DIMALTZ
 70
0
  9
$DIMALTTZ
 70
0
  9
$DIMUPT
 70
0
  9
$DIMDEC
 70
4
  9
$DIMTDEC
 70
4
  9
$DIMALTU
 70
2
  9
$DIMALTTD
 70
2
  9
$DIMTXSTY
  7
STANDARD
  9
$DIMAUNIT
 70
0
  9
$DIMADEC
 70
0
  9
$DIMALTRND
 40
0.0
  9
$DIMAZIN
 70
0
  9
$DIMDSEP
 70
44
  9
$DIMATFIT
 70
3
  9
$DIMFRAC
 70
0
  9
$DIMLDRBLK
  1

  9
$DIMLUNIT
 70
2
  9
$DIMLWD
 70
-2
  9
$DIMLWE
 70
-2
  9
$DIMTMOVE
 70
0
  9
$DIMFXL
 40
1.0
  9
$DIMFXLON
 70
0
  9
$DIMJOGANG
 40
0.7853981633974483
  9
$DIMTFILL
 70
0
  9
$DIMTFILLCLR
 70
0
  9
$DIMARCSYM
 70
0
  9
$DIMLTYPE
  6

  9
$DIMLTEX1
  6

  9
$DIMLTEX2
  6

  9
$DIMTXTDIRECTION
 70
0
  9
$LUNITS
 70
2
  9
$LUPREC
 70
4
  9
$SKETCHINC
 40
0.1
  9
$FILLETRAD
 40
0.0
  9
$AUNITS
 70
0
  9
$AUPREC
 70
0
  9
$MENU
  1
.
  9
$ELEVATION
 40
0.0
  9
$PELEVATION
 40
0.0
  9
$THICKNESS
 40
0.0
  9
$LIMCHECK
 70
0
  9
$CHAMFERA
 40
0.0
  9
$CHAMFERB
 40
0.0
  9
$CHAMFERC
 40
0.0
  9
$CHAMFERD
 40
0.0
  9
$SKPOLY
 70
0
  9
$TDCREATE
 40
2460751.921851852
  9
$TDUCREATE
 40
2460496.227393912
  9
$TDUPDATE
 40
2460751.921851852
  9
$TDUUPDATE
 40
2460649.274027778
  9
$TDINDWG
 40
0.165080787
  9
$TDUSRTIMER
 40
0.165080787
  9
$USRTIMER
 70
1
  9
$ANGBASE
 50
0.0
  9
$ANGDIR
 70
0
  9
$PDMODE
 70
3
  9
$PDSIZE
 40
8.0
  9
$PLINEWID
 40
0.0
  9
$SPLFRAME
 70
0
  9
$SPLINETYPE
 70
6
  9
$SPLINESEGS
 70
8
  9
$HANDSEED
  5
4F2
  9
$SURFTAB1
 70
6
  9
$SURFTAB2
 70
6
  9
$SURFTYPE
 70
6
  9
$SURFU
 70
6
  9
$SURFV
 70
6
  9
$UCSBASE
  2

  9
$UCSNAME
  2

  9
$UCSORG
 10
0.0
 20
0.0
 30
0.0
  9
$UCSXDIR
 10
1.0
 20
0.0
 30
0.0
  9
$UCSYDIR
 10
0.0
 20
1.0
 30
0.0
  9
$UCSORTHOREF
  2

  9
$UCSORTHOVIEW
 70
0
  9
$UCSORGTOP
 10
0.0
 20
0.0
 30
0.0
  9
$UCSORGBOTTOM
 10
0.0
 20
0.0
 30
0.0
  9
$UCSORGLEFT
 10
0.0
 20
0.0
 30
0.0
  9
$UCSORGRIGHT
 10
0.0
 20
0.0
 30
0.0
  9
$UCSORGFRONT
 10
0.0
 20
0.0
 30
0.0
  9
$UCSORGBACK
 10
0.0
 20
0.0
 30
0.0
  9
$PUCSBASE
  2

  9
$PUCSNAME
  2

  9
$PUCSORG
 10
0.0
 20
0.0
 30
0.0
  9
$PUCSXDIR
 10
1.0
 20
0.0
 30
0.0
  9
$PUCSYDIR
 10
0.0
 20
1.0
 30
0.0
  9
$PUCSORTHOREF
  2

  9
$PUCSORTHOVIEW
 70
0
  9
$PUCSORGTOP
 10
0.0
 20
0.0
 30
0.0
  9
$PUCSORGBOTTOM
 10
0.0
 20
0.0
 30
0.0
  9
$PUCSORGLEFT
 10
0.0
 20
0.0
 30
0.0
  9
$PUCSORGRIGHT
 10
0.0
 20
0.0
 30
0.0
  9
$PUCSORGFRONT
 10
0.0
 20
0.0
 30
0.0
  9
$PUCSORGBACK
 10
0.0
 20
0.0
 30
0.0
  9
$USERI1
 70
0
  9
$USERI2
 70
0
  9
$USERI3
 70
0
  9
$USERI4
 70
0
  9
$USERI5
 70
0
  9
$USERR1
 40
0.0
  9
$USERR2
 40
0.0
  9
$USERR3
 40
0.0
  9
$USERR4
 40
0.0
  9
$USERR5
 40
0.0
  9
$WORLDVIEW
 70
1
  9
$SHADEDGE
 70
3
  9
$SHADEDIF
 70
70
  9
$TILEMODE
 70
1
  9
$MAXACTVP
 70
64
  9
$PINSBASE
 10
0.0
 20
0.0
 30
0.0
  9
$PLIMCHECK
 70
0
  9
$PEXTMIN
 10
1e+20
 20
1e+20
 30
1e+20
  9
$PEXTMAX
 10
-1e+20
 20
-1e+20
 30
-1e+20
  9
$PLIMMIN
 10
0.0
 20
0.0
  9
$PLIMMAX
 10
12.0
 20
9.0
  9
$UNITMODE
 70
0
  9
$VISRETAIN
 70
1
  9
$PLINEGEN
 70
0
  9
$PSLTSCALE
 70
1
  9
$TREEDEPTH
 70
3020
  9
$CMLSTYLE
  2
Standard
  9
$CMLJUST
 70
0
  9
$CMLSCALE
 40
1.0
  9
$PROXYGRAPHICS
 70
1
  9
$MEASUREMENT
 70
1
  9
$CELWEIGHT
370
-1
  9
$ENDCAPS
280
0
  9
$JOINSTYLE
280
0
  9
$LWDISPLAY
290
0
  9
$INSUNITS
 70
4
  9
$HYPERLINKBASE
  1

  9
$STYLESHEET
  1

  9
$XEDIT
290
1
  9
$CEPSNTYPE
380
0
  9
$PSTYLEMODE
290
1
  9
$FINGERPRINTGUID
  2
{6C6F7A0E-6357-41CE-9ABF-11AC5641ED06}
  9
$VERSIONGUID
  2
{95CE6372-B2F6-49AB-90D8-5A4BAA18B09B}
  9
$EXTNAMES
290
1
  9
$PSVPSCALE
 40
0.0
  9
$OLESTARTUP
290
0
  9
$SORTENTS
280
127
  9
$INDEXCTL
280
0
  9
$HIDETEXT
280
1
  9
$XCLIPFRAME
280
2
  9
$HALOGAP
280
0
  9
$OBSCOLOR
 70
257
  9
$OBSLTYPE
280
0
  9
$INTERSECTIONDISPLAY
280
0
  9
$INTERSECTIONCOLOR
 70
257
  9
$DIMASSOC
280
2
  9
$PROJECTNAME
  1

  9
$CAMERADISPLAY
290
0
  9
$LENSLENGTH
 40
50.0
  9
$CAMERAHEIGHT
 40
0.0
  9
$STEPSPERSEC
 40
2.0
  9
$STEPSIZE
 40
6.0
  9
$3DDWFPREC
 40
2.0
  9
$PSOLWIDTH
 40
0.25
  9
$PSOLHEIGHT
 40
4.0
  9
$LOFTANG1
 40
1.570796326794896
  9
$LOFTANG2
 40
1.570796326794896
  9
$LOFTMAG1
 40
0.0
  9
$LOFTMAG2
 40
0.0
  9
$LOFTPARAM
 70
7
  9
$LOFTNORMALS
280
1
  9
$LATITUDE
 40
37.795
  9
$LONGITUDE
 40
-122.394
  9
$NORTHDIRECTION
 40
0.0
  9
$TIMEZONE
 70
-8000
  9
$LIGHTGLYPHDISPLAY
280
1
  9
$TILEMODELIGHTSYNCH
280
1
  9
$CMATERIAL
347
3A7
  9
$SOLIDHIST
280
0
  9
$SHOWHIST
280
1
  9
$DWFFRAME
280
2
  9
$DGNFRAME
280
0
  9
$REALWORLDSCALE
290
1
  9
$INTERFERECOLOR
 62
1
  9
$INTERFEREOBJVS
345
3C9
  9
$INTERFEREVPVS
346
3C6
  9
$CSHADOW
280
0
  9
$SHADOWPLANELOCATION
 40
0.0
  0
ENDSEC
  0
SECTION
  2
CLASSES
  0
CLASS
  1
ACDBDICTIONARYWDFLT
  2
AcDbDictionaryWithDefault
  3
ObjectDBX Classes
 90
0
 91
1
280
0
281
0
  0
CLASS
  1
TABLESTYLE
  2
AcDbTableStyle
  3
ObjectDBX Classes
 90
4095
 91
2
280
0
281
0
  0
CLASS
  1
ACAD_TABLE
  2
AcDbTable
  3
ObjectDBX Classes
 90
1025
 91
2
280
0
281
1
  0
CLASS
  1
MATERIAL
  2
AcDbMaterial
  3
ObjectDBX Classes
 90
1153
 91
3
280
0
281
0
  0
CLASS
  1
VISUALSTYLE
  2
AcDbVisualStyle
  3
ObjectDBX Classes
 90
4095
 91
24
280
0
281
0
  0
CLASS
  1
SCALE
  2
AcDbScale
  3
ObjectDBX Classes
 90
1153
 91
17
280
0
281
0
  0
CLASS
  1
MLEADERSTYLE
  2
AcDbMLeaderStyle
  3
ACDB_MLEADERSTYLE_CLASS
 90
4095
 91
1
280
0
281
0
  0
CLASS
  1
ACDBSECTIONVIEWSTYLE
  2
AcDbSectionViewStyle
  3
ObjectDBX Classes
 90
1025
 91
1
280
0
281
0
  0
CLASS
  1
ACDBDETAILVIEWSTYLE
  2
AcDbDetailViewStyle
  3
ObjectDBX Classes
 90
1025
 91
1
280
0
281
0
  0
CLASS
  1
DICTIONARYVAR
  2
AcDbDictionaryVar
  3
ObjectDBX Classes
 90
0
 91
5
280
0
281
0
  0
CLASS
  1
SOLID_BACKGROUND
  2
AcDbSolidBackground
  3
SCENEOE
 90
4095
 91
1
280
0
281
0
  0
CLASS
  1
NPOCOLLECTION
  2
AcDbImpNonPersistentObjectsCollection
  3
ObjectDBX Classes
 90
1153
 91
1
280
0
281
0
  0
CLASS
  1
CELLSTYLEMAP
  2
AcDbCellStyleMap
  3
ObjectDBX Classes
 90
1152
 91
2
280
0
281
0
  0
CLASS
  1
SUN
  2
AcDbSun
  3
SCENEOE
 90
1153
 91
0
280
0
281
0
  0
CLASS
  1
MENTALRAYRENDERSETTINGS
  2
AcDbMentalRayRenderSettings
  3
SCENEOE
 90
1024
 91
0
280
0
281
0
  0
CLASS
  1
RASTERVARIABLES
  2
AcDbRasterVariables
  3
ISM
 90
0
 91
0
280
0
281
0
  0
CLASS
  1
ACDBPLACEHOLDER
  2
AcDbPlaceHolder
  3
ObjectDBX Classes
 90
0
 91
0
280
0
281
0
  0
CLASS
  1
LAYOUT
  2
AcDbLayout
  3
ObjectDBX Classes
 90
0
 91
0
280
0
281
0
  0
ENDSEC
  0
SECTION
  2
TABLES
  0
TABLE
  2
VPORT
  5
8
330
0
100
AcDbSymbolTable
 70
1
  0
VPORT
  5
1F4
330
8
100
AcDbSymbolTableRecord
100
AcDbViewportTableRecord
  2
*ACTIVE
 70
0
 10
0.0
 20
0.0
 11
1.0
 21
1.0
 12
0.0
 22
0.0
 13
0.0
 23
0.0
 14
1.0
 24
1.0
 15
0.0
 25
0.0
 16
0.0
 26
0.0
 36
579.511320897257
 17
144.3069914061875
 27
111.617892734985
 37
0.0
 40
337.1445353535601
 41
1.041504539559014
 42
50.0
 43
0.0
 44
0.0
 50
0.0
 51
0.0
 71
0
 72
100
 73
1
 74
1
 75
0
 76
0
 77
0
 78
0
281
0
 65
1
110
0.0
120
0.0
130
0.0
111
1.0
121
0.0
131
0.0
112
0.0
122
1.0
132
0.0
 79
0
146
0.0
 60
3
 61
5
348
3C5
292
1
282
1
141
0.0
142
0.0
 63
250
421
3355443
1001
ACAD_NAV_VCDISPLAY
1070
3
  0
ENDTAB
  0
TABLE
  2
LTYPE
  5
5
330
0
100
AcDbSymbolTable
 70
8
  0
LTYPE
  5
14
330
5
100
AcDbSymbolTableRecord
100
AcDbLinetypeTableRecord
  2
BYBLOCK
 70
0
  3

 72
65
 73
0
 40
0.0
  0
LTYPE
  5
15
330
5
100
AcDbSymbolTableRecord
100
AcDbLinetypeTableRecord
  2
BYLAYER
 70
0
  3

 72
65
 73
0
 40
0.0
  0
LTYPE
  5
16
330
5
100
AcDbSymbolTableRecord
100
AcDbLinetypeTableRecord
  2
CONTINUOUS
 70
0
  3
Solid line
 72
65
 73
0
 40
0.0
  0
LTYPE
  5
1F5
330
5
100
AcDbSymbolTableRecord
100
AcDbLinetypeTableRecord
  2
CENTER
 70
0
  3
____ _ ____ _ ____ _ ____ _ ____ _ ____ _ ____
 72
65
 73
4
 40
0.6
 49
0.375
 74
0
 49
-0.075
 74
0
 49
0.075
 74
0
 49
-0.075
 74
0
  0
LTYPE
  5
1F6
330
5
100
AcDbSymbolTableRecord
100
AcDbLinetypeTableRecord
  2
HIDDEN
 70
0
  3
- - - - - - - - - - - - - - - - - - - -
 72
65
 73
2
 40
0.2
 49
0.1
 74
0
 49
-0.1
 74
0
  0
LTYPE
  5
1F7
330
5
100
AcDbSymbolTableRecord
100
AcDbLinetypeTableRecord
  2
PHANTOM
 70
0
  3
_____ _ _ _____ _ _ _____ _ _ _____
 72
65
 73
6
 40
0.8
 49
0.45
 74
0
 49
-0.05
 74
0
 49
0.1
 74
0
 49
-0.05
 74
0
 49
0.1
 74
0
 49
-0.05
 74
0
  0
LTYPE
  5
1F8
330
5
100
AcDbSymbolTableRecord
100
AcDbLinetypeTableRecord
  2
DOT
 70
0
  3
. . . . . . . . . . . . . . . . . . . .
 72
65
 73
2
 40
0.2
 49
0.1
 74
0
 49
-0.1
 74
0
  0
LTYPE
  5
1F9
330
5
100
AcDbSymbolTableRecord
100
AcDbLinetypeTableRecord
  2
DASHED
 70
0
  3
- - - - - - - - - - - - - - - - - - - -
 72
65
 73
2
 40
0.2
 49
0.1
 74
0
 49
-0.1
 74
0
  0
ENDTAB
  0
TABLE
  2
LAYER
  5
2
102
{ACAD_XDICTIONARY
360
4C0
102
}
330
0
100
AcDbSymbolTable
 70
13
  0
LAYER
  5
10
330
2
100
AcDbSymbolTableRecord
100
AcDbLayerTableRecord
  2
0
 70
0
 62
7
  6
CONTINUOUS
370
-3
390
F
347
3B7
348
0
  0
LAYER
  5
1FA
330
2
100
AcDbSymbolTableRecord
100
AcDbLayerTableRecord
  2
DEFAULT_1
 70
0
 62
7
  6
CENTER
370
-3
390
F
347
3B7
348
0
  0
LAYER
  5
1FB
330
2
100
AcDbSymbolTableRecord
100
AcDbLayerTableRecord
  2
DEFAULT_2
 70
0
 62
8
  6
HIDDEN
370
-3
390
F
347
3B7
348
0
  0
LAYER
  5
1FC
330
2
100
AcDbSymbolTableRecord
100
AcDbLayerTableRecord
  2
DEFAULT_3
 70
0
 62
7
  6
PHANTOM
370
-3
390
F
347
3B7
348
0
  0
LAYER
  5
1FD
330
2
100
AcDbSymbolTableRecord
100
AcDbLayerTableRecord
  2
01___PRT_ALL_DTM_PLN
 70
0
 62
7
  6
CONTINUOUS
370
-3
390
F
347
3B7
348
0
  0
LAYER
  5
1FE
330
2
100
AcDbSymbolTableRecord
100
AcDbLayerTableRecord
  2
01___PRT_DEF_DTM_PLN
 70
0
 62
7
  6
CONTINUOUS
370
-3
390
F
347
3B7
348
0
  0
LAYER
  5
1FF
330
2
100
AcDbSymbolTableRecord
100
AcDbLayerTableRecord
  2
02___PRT_ALL_AXES
 70
0
 62
7
  6
CONTINUOUS
370
-3
390
F
347
3B7
348
0
  0
LAYER
  5
200
330
2
100
AcDbSymbolTableRecord
100
AcDbLayerTableRecord
  2
03___PRT_ALL_CURVES
 70
0
 62
7
  6
CONTINUOUS
370
-3
390
F
347
3B7
348
0
  0
LAYER
  5
201
330
2
100
AcDbSymbolTableRecord
100
AcDbLayerTableRecord
  2
04___PRT_ALL_DTM_PNT
 70
0
 62
7
  6
CONTINUOUS
370
-3
390
F
347
3B7
348
0
  0
LAYER
  5
202
330
2
100
AcDbSymbolTableRecord
100
AcDbLayerTableRecord
  2
05___PRT_ALL_DTM_CSYS
 70
0
 62
7
  6
CONTINUOUS
370
-3
390
F
347
3B7
348
0
  0
LAYER
  5
203
330
2
100
AcDbSymbolTableRecord
100
AcDbLayerTableRecord
  2
05___PRT_DEF_DTM_CSYS
 70
0
 62
7
  6
CONTINUOUS
370
-3
390
F
347
3B7
348
0
  0
LAYER
  5
204
330
2
100
AcDbSymbolTableRecord
100
AcDbLayerTableRecord
  2
06___PRT_ALL_SURFS
 70
0
 62
7
  6
CONTINUOUS
370
-3
390
F
347
3B7
348
0
  0
LAYER
  5
43E
330
2
100
AcDbSymbolTableRecord
100
AcDbLayerTableRecord
  2
Defpoints
 70
0
 62
7
  6
CONTINUOUS
290
0
370
-3
390
F
347
3B7
348
0
  0
ENDTAB
  0
TABLE
  2
STYLE
  5
3
330
0
100
AcDbSymbolTable
 70
9
  0
STYLE
  5
11
330
3
100
AcDbSymbolTableRecord
100
AcDbTextStyleTableRecord
  2
STANDARD
 70
0
 40
0.0
 41
0.85
 50
0.0
 71
0
 42
0.2
  3
txt
  4

  0
STYLE
  5
205
330
3
100
AcDbSymbolTableRecord
100
AcDbTextStyleTableRecord
  2
TEXTSTYLE_1
 70
0
 40
0.0
 41
0.8
 50
0.0
 71
0
 42
0.2
  3
gdt
  4

  0
STYLE
  5
206
330
3
100
AcDbSymbolTableRecord
100
AcDbTextStyleTableRecord
  2
TEXTSTYLE_2
 70
0
 40
0.0
 41
1.0
 50
0.0
 71
0
 42
0.2
  3
txt
  4

  0
STYLE
  5
207
330
3
100
AcDbSymbolTableRecord
100
AcDbTextStyleTableRecord
  2
TEXTSTYLE_3
 70
0
 40
0.0
 41
1.0
 50
0.0
 71
0
 42
0.2
  3
gdt
  4

  0
STYLE
  5
208
330
3
100
AcDbSymbolTableRecord
100
AcDbTextStyleTableRecord
  2
TEXTSTYLE_4
 70
0
 40
0.0
 41
0.85
 50
0.0
 71
0
 42
0.2
  3
txt
  4

  0
STYLE
  5
209
330
3
100
AcDbSymbolTableRecord
100
AcDbTextStyleTableRecord
  2
TEXTSTYLE_5
 70
0
 40
0.0
 41
0.8
 50
0.0
 71
0
 42
0.2
  3
txt
  4

  0
STYLE
  5
20A
330
3
100
AcDbSymbolTableRecord
100
AcDbTextStyleTableRecord
  2
TEXTSTYLE_6
 70
0
 40
0.0
 41
0.6
 50
0.0
 71
0
 42
0.2
  3
txt
  4

  0
STYLE
  5
20B
330
3
100
AcDbSymbolTableRecord
100
AcDbTextStyleTableRecord
  2
TEXTSTYLE_7
 70
0
 40
0.0
 41
0.85
 50
0.0
 71
0
 42
0.2
  3
gdt
  4

  0
STYLE
  5
20C
330
3
100
AcDbSymbolTableRecord
100
AcDbTextStyleTableRecord
  2
TEXTSTYLE_8
 70
0
 40
0.0
 41
0.4
 50
0.0
 71
0
 42
0.2
  3
txt
  4

  0
ENDTAB
  0
TABLE
  2
VIEW
  5
6
330
0
100
AcDbSymbolTable
 70
0
  0
ENDTAB
  0
TABLE
  2
UCS
  5
7
330
0
100
AcDbSymbolTable
 70
0
  0
ENDTAB
  0
TABLE
  2
APPID
  5
9
330
0
100
AcDbSymbolTable
 70
6
  0
APPID
  5
20D
330
9
100
AcDbSymbolTableRecord
100
AcDbRegAppTableRecord
  2
ACAD
 70
0
  0
APPID
  5
3FF
330
9
100
AcDbSymbolTableRecord
100
AcDbRegAppTableRecord
  2
ACAD_NAV_VCDISPLAY
 70
0
  0
APPID
  5
43B
330
9
100
AcDbSymbolTableRecord
100
AcDbRegAppTableRecord
  2
AcadAnnoMonitorAlertIconDisabled
 70
0
  0
APPID
  5
43C
330
9
100
AcDbSymbolTableRecord
100
AcDbRegAppTableRecord
  2
ACAD_EXEMPT_FROM_CAD_STANDARDS
 70
0
  0
APPID
  5
4EE
330
9
100
AcDbSymbolTableRecord
100
AcDbRegAppTableRecord
  2
HATCHBACKGROUNDCOLOR
 70
0
  0
APPID
  5
4EF
330
9
100
AcDbSymbolTableRecord
100
AcDbRegAppTableRecord
  2
EZDXF
 70
0
  0
ENDTAB
  0
TABLE
  2
DIMSTYLE
  5
A
330
0
100
AcDbSymbolTable
 70
7
100
AcDbDimStyleTable
  0
DIMSTYLE
105
21D
330
A
100
AcDbSymbolTableRecord
100
AcDbDimStyleTableRecord
  2
STANDARD
 70
0
 40
1.0
 41
2.7
 42
0.0
 43
3.75
 44
1.5
 45
0.0
 46
0.0
 47
0.01
 48
0.01
 49
2.5
140
3.0
141
2.5
142
0.0
143
0.03937007874
144
1.0
145
0.0
146
1.0
147
0.625
148
0.0
 69
0
 70
0
 71
1
 72
0
 73
0
 74
0
 75
0
 76
0
 77
1
 78
8
 79
3
170
0
171
1
172
1
173
0
174
0
175
0
176
0
177
0
178
0
179
2
271
2
272
2
273
2
274
3
275
0
276
0
277
2
278
44
279
0
280
0
281
0
282
0
283
0
284
8
285
0
286
0
288
0
289
3
290
0
340
11
341
210
342
210
343
210
344
210
371
-2
372
-2
  0
DIMSTYLE
105
21E
102
{ACAD_REACTORS
330
30F
102
}
330
A
100
AcDbSymbolTableRecord
100
AcDbDimStyleTableRecord
  2
DIMSTYLE_1
 70
0
 40
1.0
 41
2.7
 42
0.0
 43
3.75
 44
1.5
 45
0.0
 46
0.0
 47
0.1
 48
0.0
 49
2.5
140
3.0
141
2.5
142
0.0
143
0.03937007874
144
2.0
145
0.0
146
0.6
147
0.75
148
0.0
 69
0
 70
0
 71
1
 72
0
 73
0
 74
0
 75
0
 76
0
 77
1
 78
8
 79
3
170
0
171
1
172
1
173
0
174
0
175
0
176
0
177
0
178
0
179
2
271
2
272
2
273
2
274
3
275
0
276
0
277
2
278
44
279
0
280
0
281
0
282
0
283
0
284
8
285
0
286
0
288
0
289
3
290
0
340
11
341
210
342
210
343
210
344
210
371
-2
372
-2
  0
DIMSTYLE
105
21F
102
{ACAD_REACTORS
330
310
330
311
102
}
330
A
100
AcDbSymbolTableRecord
100
AcDbDimStyleTableRecord
  2
DIMSTYLE_2
 70
0
 40
1.0
 41
2.7
 42
0.0
 43
3.75
 44
1.5
 45
0.0
 46
0.0
 47
-0.1
 48
0.2
 49
2.5
140
3.0
141
2.5
142
0.0
143
0.03937007874
144
2.0
145
0.0
146
0.6
147
0.75
148
0.0
 69
0
 70
0
 71
1
 72
0
 73
0
 74
0
 75
0
 76
0
 77
1
 78
8
 79
3
170
0
171
1
172
1
173
0
174
0
175
0
176
0
177
0
178
0
179
2
271
2
272
2
273
2
274
3
275
0
276
0
277
2
278
44
279
0
280
0
281
0
282
0
283
0
284
8
285
0
286
0
288
0
289
3
290
0
340
11
341
210
342
210
343
210
344
210
371
-2
372
-2
  0
DIMSTYLE
105
220
102
{ACAD_REACTORS
330
312
330
319
330
31A
102
}
330
A
100
AcDbSymbolTableRecord
100
AcDbDimStyleTableRecord
  2
DIMSTYLE_3
 70
0
 40
1.0
 41
2.7
 42
0.0
 43
3.75
 44
1.5
 45
0.0
 46
0.0
 47
0.01
 48
0.01
 49
2.5
140
3.0
141
2.5
142
0.0
143
0.03937007874
144
2.0
145
0.0
146
1.0
147
0.75
148
0.0
 69
0
 70
0
 71
0
 72
0
 73
0
 74
0
 75
0
 76
0
 77
1
 78
8
 79
3
170
0
171
1
172
1
173
0
174
0
175
0
176
0
177
0
178
0
179
2
271
2
272
2
273
2
274
3
275
0
276
0
277
2
278
44
279
0
280
0
281
0
282
0
283
0
284
8
285
0
286
0
288
0
289
3
290
0
340
11
341
210
342
210
343
210
344
210
371
-2
372
-2
  0
DIMSTYLE
105
221
102
{ACAD_REACTORS
330
313
102
}
330
A
100
AcDbSymbolTableRecord
100
AcDbDimStyleTableRecord
  2
DIMSTYLE_4
 70
0
 40
1.0
 41
2.7
 42
0.0
 43
3.75
 44
1.5
 45
0.0
 46
0.0
 47
0.02
 48
0.0
 49
2.5
140
3.0
141
2.5
142
0.0
143
0.03937007874
144
2.0
145
0.0
146
0.6
147
0.75
148
0.0
 69
0
 70
0
 71
1
 72
0
 73
0
 74
0
 75
0
 76
0
 77
1
 78
8
 79
3
170
0
171
1
172
1
173
0
174
0
175
0
176
0
177
0
178
0
179
2
271
2
272
2
273
2
274
3
275
0
276
0
277
2
278
44
279
0
280
0
281
0
282
0
283
0
284
8
285
0
286
0
288
0
289
3
290
0
340
11
341
210
342
210
343
210
344
210
371
-2
372
-2
  0
DIMSTYLE
105
222
102
{ACAD_REACTORS
330
318
102
}
330
A
100
AcDbSymbolTableRecord
100
AcDbDimStyleTableRecord
  2
DIMSTYLE_5
 70
0
 40
1.0
 41
2.7
 42
0.0
 43
3.75
 44
1.5
 45
0.0
 46
0.0
 47
0.05
 48
-0.02
 49
2.5
140
3.0
141
2.5
142
0.0
143
0.03937007874
144
2.0
145
0.0
146
0.6
147
0.75
148
0.0
 69
0
 70
0
 71
1
 72
0
 73
0
 74
0
 75
0
 76
0
 77
1
 78
8
 79
3
170
0
171
1
172
1
173
0
174
0
175
0
176
0
177
0
178
0
179
2
271
2
272
2
273
2
274
3
275
0
276
0
277
2
278
44
279
0
280
0
281
0
282
0
283
0
284
8
285
0
286
0
288
0
289
3
290
0
340
11
341
210
342
210
343
210
344
210
371
-2
372
-2
  0
DIMSTYLE
105
223
102
{ACAD_REACTORS
330
31B
330
31C
102
}
330
A
100
AcDbSymbolTableRecord
100
AcDbDimStyleTableRecord
  2
DIMSTYLE_6
 70
0
 40
1.0
 41
2.7
 42
0.0
 43
3.75
 44
1.5
 45
0.0
 46
0.0
 47
0.01
 48
0.01
 49
2.5
140
3.0
141
2.5
142
0.0
143
0.03937007874
144
2.0
145
0.0
146
1.0
147
0.625
148
0.0
 69
0
 70
0
 71
0
 72
0
 73
0
 74
0
 75
0
 76
0
 77
1
 78
8
 79
3
170
0
171
1
172
1
173
0
174
0
175
0
176
0
177
0
178
0
179
2
271
2
272
2
273
2
274
3
275
0
276
0
277
2
278
44
279
0
280
0
281
0
282
0
283
0
284
8
285
0
286
0
288
0
289
3
290
0
340
11
341
210
342
210
343
210
344
210
371
-2
372
-2
  0
ENDTAB
  0
TABLE
  2
BLOCK_RECORD
  5
1
330
0
100
AcDbSymbolTable
 70
15
  0
BLOCK_RECORD
  5
20E
330
1
100
AcDbSymbolTableRecord
100
AcDbBlockTableRecord
  2
*Model_Space
340
39E
 70
0
280
1
281
0
  0
BLOCK_RECORD
  5
20F
330
1
100
AcDbSymbolTableRecord
100
AcDbBlockTableRecord
  2
*Paper_Space
340
39F
 70
0
280
1
281
0
  0
BLOCK_RECORD
  5
210
330
1
100
AcDbSymbolTableRecord
100
AcDbBlockTableRecord
  2
_FILLED
340
0
 70
0
280
1
281
0
  0
BLOCK_RECORD
  5
211
330
1
100
AcDbSymbolTableRecord
100
AcDbBlockTableRecord
  2
*D1
340
0
 70
0
280
1
281
0
  0
BLOCK_RECORD
  5
212
330
1
100
AcDbSymbolTableRecord
100
AcDbBlockTableRecord
  2
*D2
340
0
 70
0
280
1
281
0
  0
BLOCK_RECORD
  5
213
330
1
100
AcDbSymbolTableRecord
100
AcDbBlockTableRecord
  2
*D3
340
0
 70
0
280
1
281
0
  0
BLOCK_RECORD
  5
214
330
1
100
AcDbSymbolTableRecord
100
AcDbBlockTableRecord
  2
*D4
340
0
 70
0
280
1
281
0
  0
BLOCK_RECORD
  5
215
330
1
100
AcDbSymbolTableRecord
100
AcDbBlockTableRecord
  2
*D5
340
0
 70
0
280
1
281
0
  0
BLOCK_RECORD
  5
216
330
1
100
AcDbSymbolTableRecord
100
AcDbBlockTableRecord
  2
*D6
340
0
 70
0
280
1
281
0
  0
BLOCK_RECORD
  5
217
330
1
100
AcDbSymbolTableRecord
100
AcDbBlockTableRecord
  2
*D7
340
0
 70
0
280
1
281
0
  0
BLOCK_RECORD
  5
218
330
1
100
AcDbSymbolTableRecord
100
AcDbBlockTableRecord
  2
*D8
340
0
 70
0
280
1
281
0
  0
BLOCK_RECORD
  5
219
330
1
100
AcDbSymbolTableRecord
100
AcDbBlockTableRecord
  2
*D9
340
0
 70
0
280
1
281
0
  0
BLOCK_RECORD
  5
21A
330
1
100
AcDbSymbolTableRecord
100
AcDbBlockTableRecord
  2
*D10
340
0
 70
0
280
1
281
0
  0
BLOCK_RECORD
  5
21B
330
1
100
AcDbSymbolTableRecord
100
AcDbBlockTableRecord
  2
*T11
340
0
 70
0
280
1
281
0
  0
BLOCK_RECORD
  5
21C
330
1
100
AcDbSymbolTableRecord
100
AcDbBlockTableRecord
  2
*T12
340
0
 70
0
280
1
281
0
  0
ENDTAB
  0
ENDSEC
  0
SECTION
  2
BLOCKS
  0
BLOCK
  5
20
330
20E
100
AcDbEntity
  8
0
100
AcDbBlockBegin
  2
*Model_Space
 70
0
 10
0.0
 20
0.0
 30
0.0
  3
*Model_Space
  1

  0
ENDBLK
  5
21
330
20E
100
AcDbEntity
  8
0
100
AcDbBlockEnd
  0
BLOCK
  5
1C
330
20F
100
AcDbEntity
 67
1
  8
0
100
AcDbBlockBegin
  2
*Paper_Space
 70
0
 10
0.0
 20
0.0
 30
0.0
  3
*Paper_Space
  1

  0
ENDBLK
  5
1D
330
20F
100
AcDbEntity
 67
1
  8
0
100
AcDbBlockEnd
  0
BLOCK
  5
224
330
210
100
AcDbEntity
  8
0
100
AcDbBlockBegin
  2
_FILLED
 70
0
 10
0.0
 20
0.0
 30
0.0
  3
_FILLED
  1

  0
SOLID
  5
225
330
210
100
AcDbEntity
  8
0
  6
ByBlock
 62
0
100
AcDbTrace
 10
0.0
 20
0.0
 30
0.0
 11
-1.0
 21
0.1481481481
 31
0.0
 12
-1.0
 22
-0.1481481481
 32
0.0
 13
-1.0
 23
-0.1481481481
 33
0.0
  0
ENDBLK
  5
226
330
210
100
AcDbEntity
  8
0
100
AcDbBlockEnd
  0
BLOCK
  5
227
330
211
100
AcDbEntity
  8
0
100
AcDbBlockBegin
  2
*D1
 70
1
 10
0.0
 20
0.0
 30
0.0
  3
*D1
  1

  0
TEXT
  5
228
330
211
100
AcDbEntity
  8
0
  6
Continuous
 62
2
440
16777216
100
AcDbText
 10
103.2004044748929
 20
162.6329555028
 30
0.0
 40
3.0
  1
46
 41
0.85
 72
1
 11
105.7504044884
 21
162.6329555028
 31
0.0
100
AcDbText
  0
TEXT
  5
229
330
211
100
AcDbEntity
  8
0
  6
Continuous
 62
2
440
16777216
100
AcDbText
 10
108.8396722764253
 20
164.4329555028
 30
0.0
 40
1.8
  1
+0,1
  7
TEXTSTYLE_6
 41
0.6
 72
1
 11
110.4604044884
 21
164.4329555028
 31
0.0
100
AcDbText
  0
TEXT
  5
22A
330
211
100
AcDbEntity
  8
0
  6
Continuous
 62
2
440
16777216
100
AcDbText
 10
108.3900993984087
 20
162.0329555028
 30
0.0
 40
1.8
  1
 0
  7
TEXTSTYLE_6
 41
0.6
 72
1
 11
109.3804044884
 21
162.0329555028
 31
0.0
100
AcDbText
  0
LINE
  5
22B
330
211
100
AcDbEntity
  8
0
  6
Continuous
 62
2
440
16777216
100
AcDbLine
 10
119.4104044884
 20
150.4325958784
 30
0.0
 11
119.4104044884
 21
162.6329555028
 31
0.0
  0
LINE
  5
22C
330
211
100
AcDbEntity
  8
0
  6
Continuous
 62
2
440
16777216
100
AcDbLine
 10
96.4104044884
 20
150.4325958784
 30
0.0
 11
96.4104044884
 21
162.6329555028
 31
0.0
  0
LINE
  5
22D
330
211
100
AcDbEntity
  8
0
  6
Continuous
 62
2
440
16777216
100
AcDbLine
 10
119.4104044884
 20
161.1329555028
 30
0.0
 11
107.9104044884
 21
161.1329555028
 31
0.0
  0
LINE
  5
22E
330
211
100
AcDbEntity
  8
0
  6
Continuous
 62
2
440
16777216
100
AcDbLine
 10
96.4104044884
 20
161.1329555028
 30
0.0
 11
107.9104044884
 21
161.1329555028
 31
0.0
  0
INSERT
  5
22F
330
211
100
AcDbEntity
  8
0
  6
Continuous
 62
2
440
16777216
100
AcDbBlockReference
  2
_FILLED
 10
119.4104044884
 20
161.1329555028
 30
0.0
 41
2.7
 42
2.7
 43
2.7
  0
INSERT
  5
230
330
211
100
AcDbEntity
  8
0
  6
Continuous
 62
2
440
16777216
100
AcDbBlockReference
  2
_FILLED
 10
96.4104044884
 20
161.1329555028
 30
0.0
 41
2.7
 42
2.7
 43
2.7
 50
180.0
  0
ENDBLK
  5
231
330
211
100
AcDbEntity
  8
0
100
AcDbBlockEnd
  0
BLOCK
  5
232
330
212
100
AcDbEntity
  8
0
100
AcDbBlockBegin
  2
*D2
 70
1
 10
0.0
 20
0.0
 30
0.0
  3
*D2
  1

  0
TEXT
  5
233
330
212
100
AcDbEntity
  8
0
  6
Continuous
 62
2
440
16777216
100
AcDbText
 10
150.0323780889
 20
111.4699349500419
 30
0.0
 40
3.0
  1
n
 50
90.0
  7
TEXTSTYLE_7
 72
1
 11
150.0323780889
 21
113.1975958784
 31
0.0
100
AcDbText
  0
TEXT
  5
234
330
212
100
AcDbEntity
  8
0
  6
Continuous
 62
2
440
16777216
100
AcDbText
 10
150.0323780889
 20
115.622019589201
 30
0.0
 40
3.0
  1
125
 50
90.0
 41
0.85
 72
1
 11
150.0323780889
 21
119.0225958784
 31
0.0
100
AcDbText
  0
TEXT
  5
235
330
212
100
AcDbEntity
  8
0
  6
Continuous
 62
2
440
16777216
100
AcDbText
 10
148.2323780889
 20
123.3868636664253
 30
0.0
 40
1.8
  1
-0,1
 50
90.0
  7
TEXTSTYLE_6
 41
0.6
 72
1
 11
148.2323780889
 21
125.0075958784
 31
0.0
100
AcDbText
  0
TEXT
  5
236
330
212
100
AcDbEntity
  8
0
  6
Continuous
 62
2
440
16777216
100
AcDbText
 10
150.6323780889
 20
123.2071077332697
 30
0.0
 40
1.8
  1
-0,2
 50
90.0
  7
TEXTSTYLE_6
 41
0.6
 72
1
 11
150.6323780889
 21
125.0075958784
 31
0.0
100
AcDbText
  0
LINE
  5
237
330
212
100
AcDbEntity
  8
0
  6
Continuous
 62
2
440
16777216
100
AcDbLine
 10
119.4104044884
 20
150.4325958784
 30
0.0
 11
154.5323780889
 21
150.4325958784
 31
0.0
  0
LINE
  5
238
330
212
100
AcDbEntity
  8
0
  6
Continuous
 62
2
440
16777216
100
AcDbLine
 10
119.4104044884
 20
87.93259587840001
 30
0.0
 11
154.5323780889
 21
87.93259587840001
 31
0.0
  0
LINE
  5
239
330
212
100
AcDbEntity
  8
0
  6
Continuous
 62
2
440
16777216
100
AcDbLine
 10
153.0323780889
 20
150.4325958784
 30
0.0
 11
153.0323780889
 21
119.1825958784
 31
0.0
  0
LINE
  5
23A
330
212
100
AcDbEntity
  8
0
  6
Continuous
 62
2
440
16777216
100
AcDbLine
 10
153.0323780889
 20
87.93259587840001
 30
0.0
 11
153.0323780889
 21
119.1825958784
 31
0.0
  0
INSERT
  5
23B
330
212
100
AcDbEntity
  8
0
  6
Continuous
 62
2
440
16777216
100
AcDbBlockReference
  2
_FILLED
 10
153.0323780889
 20
150.4325958784
 30
0.0
 41
2.7
 42
2.7
 43
2.7
 50
90.0
  0
INSERT
  5
23C
330
212
100
AcDbEntity
  8
0
  6
Continuous
 62
2
440
16777216
100
AcDbBlockReference
  2
_FILLED
 10
153.0323780889
 20
87.93259587840001
 30
0.0
 41
2.7
 42
2.7
 43
2.7
 50
270.0
  0
ENDBLK
  5
23D
330
212
100
AcDbEntity
  8
0
100
AcDbBlockEnd
  0
BLOCK
  5
23E
330
213
100
AcDbEntity
  8
0
100
AcDbBlockBegin
  2
*D3
 70
1
 10
0.0
 20
0.0
 30
0.0
  3
*D3
  1

  0
TEXT
  5
23F
330
213
100
AcDbEntity
  8
0
  6
Continuous
 62
2
440
16777216
100
AcDbText
 10
45.8836859213
 20
112.7449349500419
 30
0.0
 40
3.0
  1
n
 50
90.0
  7
TEXTSTYLE_7
 72
1
 11
45.8836859213
 21
114.4725958784
 31
0.0
100
AcDbText
  0
TEXT
  5
240
330
213
100
AcDbEntity
  8
0
  6
Continuous
 62
2
440
16777216
100
AcDbText
 10
45.8836859213
 20
116.4725958648929
 30
0.0
 40
3.0
  1
95
 50
90.0
 41
0.85
 72
1
 11
45.8836859213
 21
119.0225958784
 31
0.0
100
AcDbText
  0
TEXT
  5
241
330
213
100
AcDbEntity
  8
0
  6
Continuous
 62
2
440
16777216
100
AcDbText
 10
44.0836859213
 20
122.1118636664253
 30
0.0
 40
1.8
  1
-0,1
 50
90.0
  7
TEXTSTYLE_6
 41
0.6
 72
1
 11
44.0836859213
 21
123.7325958784
 31
0.0
100
AcDbText
  0
TEXT
  5
242
330
213
100
AcDbEntity
  8
0
  6
Continuous
 62
2
440
16777216
100
AcDbText
 10
46.4836859213
 20
121.9321077332698
 30
0.0
 40
1.8
  1
-0,2
 50
90.0
  7
TEXTSTYLE_6
 41
0.6
 72
1
 11
46.4836859213
 21
123.7325958784
 31
0.0
100
AcDbText
  0
LINE
  5
243
330
213
100
AcDbEntity
  8
0
  6
Continuous
 62
2
440
16777216
100
AcDbLine
 10
83.0104044884
 20
142.9325958784
 30
0.0
 11
45.8836859213
 21
142.9325958784
 31
0.0
  0
LINE
  5
244
330
213
100
AcDbEntity
  8
0
  6
Continuous
 62
2
440
16777216
100
AcDbLine
 10
83.0104044884
 20
95.43259587840001
 30
0.0
 11
45.8836859213
 21
95.43259587840001
 31
0.0
  0
LINE
  5
245
330
213
100
AcDbEntity
  8
0
  6
Continuous
 62
2
440
16777216
100
AcDbLine
 10
47.3836859213
 20
142.9325958784
 30
0.0
 11
47.3836859213
 21
119.1825958784
 31
0.0
  0
LINE
  5
246
330
213
100
AcDbEntity
  8
0
  6
Continuous
 62
2
440
16777216
100
AcDbLine
 10
47.3836859213
 20
95.43259587840001
 30
0.0
 11
47.3836859213
 21
119.1825958784
 31
0.0
  0
INSERT
  5
247
330
213
100
AcDbEntity
  8
0
  6
Continuous
 62
2
440
16777216
100
AcDbBlockReference
  2
_FILLED
 10
47.3836859213
 20
142.9325958784
 30
0.0
 41
2.7
 42
2.7
 43
2.7
 50
90.0
  0
INSERT
  5
248
330
213
100
AcDbEntity
  8
0
  6
Continuous
 62
2
440
16777216
100
AcDbBlockReference
  2
_FILLED
 10
47.3836859213
 20
95.43259587840001
 30
0.0
 41
2.7
 42
2.7
 43
2.7
 50
270.0
  0
ENDBLK
  5
249
330
213
100
AcDbEntity
  8
0
100
AcDbBlockEnd
  0
BLOCK
  5
24A
330
214
100
AcDbEntity
  8
0
100
AcDbBlockBegin
  2
*D4
 70
1
 10
0.0
 20
0.0
 30
0.0
  3
*D4
  1

  0
MTEXT
  5
24B
330
214
100
AcDbEntity
  8
0
  6
Continuous
 62
2
440
16777216
100
AcDbMText
 10
101.2104044884
 20
67.122962149
 30
0.0
 40
3.0
 41
10.2
 46
0.0
 71
2
  1
72,8
 44
0.9
  0
LINE
  5
24C
330
214
100
AcDbEntity
  8
0
  6
Continuous
 62
2
440
16777216
100
AcDbLine
 10
83.0104044884
 20
95.43259587840001
 30
0.0
 11
83.0104044884
 21
61.87296214899999
 31
0.0
  0
LINE
  5
24D
330
214
100
AcDbEntity
  8
0
  6
Continuous
 62
2
440
16777216
100
AcDbLine
 10
119.4104044884
 20
87.93259587840001
 30
0.0
 11
119.4104044884
 21
61.87296214899999
 31
0.0
  0
LINE
  5
24E
330
214
100
AcDbEntity
  8
0
  6
Continuous
 62
2
440
16777216
100
AcDbLine
 10
83.0104044884
 20
63.372962149
 30
0.0
 11
101.2104044884
 21
63.372962149
 31
0.0
  0
LINE
  5
24F
330
214
100
AcDbEntity
  8
0
  6
Continuous
 62
2
440
16777216
100
AcDbLine
 10
119.4104044884
 20
63.372962149
 30
0.0
 11
101.2104044884
 21
63.372962149
 31
0.0
  0
INSERT
  5
250
330
214
100
AcDbEntity
  8
0
  6
Continuous
 62
2
440
16777216
100
AcDbBlockReference
  2
_FILLED
 10
83.0104044884
 20
63.372962149
 30
0.0
 41
2.7
 42
2.7
 43
2.7
 50
180.0
  0
INSERT
  5
251
330
214
100
AcDbEntity
  8
0
  6
Continuous
 62
2
440
16777216
100
AcDbBlockReference
  2
_FILLED
 10
119.4104044884
 20
63.372962149
 30
0.0
 41
2.7
 42
2.7
 43
2.7
  0
ENDBLK
  5
252
330
214
100
AcDbEntity
  8
0
100
AcDbBlockEnd
  0
BLOCK
  5
253
330
215
100
AcDbEntity
  8
0
100
AcDbBlockBegin
  2
*D5
 70
1
 10
0.0
 20
0.0
 30
0.0
  3
*D5
  1

  0
LINE
  5
43F
330
215
100
AcDbEntity
  8
0
  6
Continuous
 62
0
370
-2
440
16777216
100
AcDbLine
 10
87.12932056610003
 20
131.6700958784
 30
0.0
 11
68.99022784139997
 21
131.6700958784
 31
0.0
  0
LINE
  5
440
330
215
100
AcDbEntity
  8
0
  6
Continuous
 62
0
370
-2
440
16777216
100
AcDbLine
 10
87.75684098410001
 20
106.6950958784
 30
0.0
 11
68.99022784139997
 21
106.6950958784
 31
0.0
  0
LINE
  5
441
330
215
100
AcDbEntity
  8
0
  6
Continuous
 62
0
370
-2
440
16777216
100
AcDbLine
 10
70.49022784139997
 20
128.9700958784
 30
0.0
 11
70.49022784139997
 21
109.3950958784
 31
0.0
  0
INSERT
  5
442
330
215
100
AcDbEntity
  8
0
  6
Continuous
 62
0
370
-2
440
16777216
100
AcDbBlockReference
  2
_FILLED
 10
70.49022784139997
 20
131.6700958784
 30
0.0
 41
2.7
 42
2.7
 43
2.7
 50
90.0
  0
INSERT
  5
443
330
215
100
AcDbEntity
  8
0
  6
Continuous
 62
0
370
-2
440
16777216
100
AcDbBlockReference
  2
_FILLED
 10
70.49022784139997
 20
106.6950958784
 30
0.0
 41
2.7
 42
2.7
 43
2.7
 50
270.0
  0
MTEXT
  5
444
330
215
100
AcDbEntity
  8
0
  6
Continuous
 62
0
440
16777216
100
AcDbMText
 10
64.7402278414
 20
119.1825958784
 30
0.0
 40
3.0
 41
0.0
 46
0.0
 71
2
  1
\A1;T_d=%%C49,95{\H1.8;\S+0,02^  0;}
 11
1e-16
 21
1.0
 31
0.0
  0
POINT
  5
445
330
215
100
AcDbEntity
  8
Defpoints
  6
Continuous
 62
0
440
16777216
100
AcDbPoint
 10
87.12932056610003
 20
131.6700958784
 30
0.0
  0
POINT
  5
446
330
215
100
AcDbEntity
  8
Defpoints
  6
Continuous
 62
0
440
16777216
100
AcDbPoint
 10
87.75684098410001
 20
106.6950958784
 30
0.0
  0
POINT
  5
447
330
215
100
AcDbEntity
  8
Defpoints
  6
Continuous
 62
0
440
16777216
100
AcDbPoint
 10
70.49022784139997
 20
106.6950958784
 30
0.0
  0
ENDBLK
  5
260
330
215
100
AcDbEntity
  8
0
100
AcDbBlockEnd
  0
BLOCK
  5
261
330
216
100
AcDbEntity
  8
0
100
AcDbBlockBegin
  2
*D6
 70
1
 10
0.0
 20
0.0
 30
0.0
  3
*D6
  1

  0
LINE
  5
448
330
216
100
AcDbEntity
  8
0
  6
Continuous
 62
0
370
-2
440
16777216
100
AcDbLine
 10
114.4228026953
 20
104.6339905963
 30
0.0
 11
135.9367897519
 21
104.6339905963
 31
0.0
  0
LINE
  5
449
330
216
100
AcDbEntity
  8
0
  6
Continuous
 62
0
370
-2
440
16777216
100
AcDbLine
 10
114.4228026953
 20
133.7312011606
 30
0.0
 11
135.9367897519
 21
133.7312011606
 31
0.0
  0
LINE
  5
44A
330
216
100
AcDbEntity
  8
0
  6
Continuous
 62
0
370
-2
440
16777216
100
AcDbLine
 10
134.4367897519
 20
107.3339905963
 30
0.0
 11
134.4367897519
 21
131.0312011606
 31
0.0
  0
INSERT
  5
44B
330
216
100
AcDbEntity
  8
0
  6
Continuous
 62
0
370
-2
440
16777216
100
AcDbBlockReference
  2
_FILLED
 10
134.4367897519
 20
104.6339905963
 30
0.0
 41
2.7
 42
2.7
 43
2.7
 50
270.0
  0
INSERT
  5
44C
330
216
100
AcDbEntity
  8
0
  6
Continuous
 62
0
370
-2
440
16777216
100
AcDbBlockReference
  2
_FILLED
 10
134.4367897519
 20
133.7312011606
 30
0.0
 41
2.7
 42
2.7
 43
2.7
 50
90.0
  0
MTEXT
  5
44D
330
216
100
AcDbEntity
  8
0
  6
Continuous
 62
0
440
16777216
100
AcDbMText
 10
128.3867897519
 20
119.18259587845
 30
0.0
 40
3.0
 41
0.0
 46
0.0
 71
2
  1
\A1;T_D=%%C58,19{\H1.8;\S+0,05^ +0,02;}
 11
1e-16
 21
1.0
 31
0.0
  0
POINT
  5
44E
330
216
100
AcDbEntity
  8
Defpoints
  6
Continuous
 62
0
440
16777216
100
AcDbPoint
 10
114.4228026953
 20
104.6339905963
 30
0.0
  0
POINT
  5
44F
330
216
100
AcDbEntity
  8
Defpoints
  6
Continuous
 62
0
440
16777216
100
AcDbPoint
 10
114.4228026953
 20
133.7312011606
 30
0.0
  0
POINT
  5
450
330
216
100
AcDbEntity
  8
Defpoints
  6
Continuous
 62
0
440
16777216
100
AcDbPoint
 10
134.4367897519
 20
133.7312011606
 30
0.0
  0
ENDBLK
  5
26C
330
216
100
AcDbEntity
  8
0
100
AcDbBlockEnd
  0
BLOCK
  5
26D
330
217
100
AcDbEntity
  8
0
100
AcDbBlockBegin
  2
*D7
 70
1
 10
0.0
 20
0.0
 30
0.0
  3
*D7
  1

  0
LINE
  5
4A0
330
217
100
AcDbEntity
  8
0
  6
Continuous
 62
0
370
-2
440
16777216
100
AcDbLine
 10
88.0104170845
 20
106.6950958784
 30
0.0
 11
88.0104170845
 21
75.5967436962
 31
0.0
  0
LINE
  5
4A1
330
217
100
AcDbEntity
  8
0
  6
Continuous
 62
0
370
-2
440
16777216
100
AcDbLine
 10
114.4228026953
 20
104.6341719073
 30
0.0
 11
114.4228026953
 21
75.5967436962
 31
0.0
  0
LINE
  5
4A2
330
217
100
AcDbEntity
  8
0
  6
Continuous
 62
0
370
-2
440
16777216
100
AcDbLine
 10
90.71041708450001
 20
77.0967436962
 30
0.0
 11
111.7228026953
 21
77.0967436962
 31
0.0
  0
INSERT
  5
4A3
330
217
100
AcDbEntity
  8
0
  6
Continuous
 62
0
370
-2
440
16777216
100
AcDbBlockReference
  2
_FILLED
 10
88.0104170845
 20
77.0967436962
 30
0.0
 41
2.7
 42
2.7
 43
2.7
 50
180.0
  0
INSERT
  5
4A4
330
217
100
AcDbEntity
  8
0
  6
Continuous
 62
0
370
-2
440
16777216
100
AcDbBlockReference
  2
_FILLED
 10
114.4228026953
 20
77.0967436962
 30
0.0
 41
2.7
 42
2.7
 43
2.7
  0
MTEXT
  5
4A5
330
217
100
AcDbEntity
  8
0
  6
Continuous
 62
0
440
16777216
100
AcDbMText
 10
103.2551479797
 20
81.3467436962
 30
0.0
 40
3.0
 41
12.75
 46
0.0
 71
2
  1
\A1;T_L=52,82
  0
POINT
  5
4A6
330
217
100
AcDbEntity
  8
Defpoints
  6
Continuous
 62
0
440
16777216
100
AcDbPoint
 10
88.0104170845
 20
106.6950958784
 30
0.0
  0
POINT
  5
4A7
330
217
100
AcDbEntity
  8
Defpoints
  6
Continuous
 62
0
440
16777216
100
AcDbPoint
 10
114.4228026953
 20
104.6341719073
 30
0.0
  0
POINT
  5
4A8
330
217
100
AcDbEntity
  8
Defpoints
  6
Continuous
 62
0
440
16777216
100
AcDbPoint
 10
114.4228026953
 20
77.0967436962
 30
0.0
  0
ENDBLK
  5
275
330
217
100
AcDbEntity
  8
0
100
AcDbBlockEnd
  0
BLOCK
  5
276
330
218
100
AcDbEntity
  8
0
100
AcDbBlockBegin
  2
*D8
 70
1
 10
0.0
 20
0.0
 30
0.0
  3
*D8
  1

  0
MTEXT
  5
277
330
218
100
AcDbEntity
  8
0
  6
Continuous
 62
2
440
16777216
100
AcDbMText
 10
76.96230817029999
 20
80.5939279326
 30
0.0
 40
3.0
 41
2.549999999999999
 46
0.0
 71
3
  1
4
 44
0.9
  0
LINE
  5
278
330
218
100
AcDbEntity
  8
0
  6
Continuous
 62
2
440
16777216
100
AcDbLine
 10
88.0104170845
 20
106.6950958784
 30
0.0
 11
88.0104170845
 21
75.3439279326
 31
0.0
  0
LINE
  5
279
330
218
100
AcDbEntity
  8
0
  6
Continuous
 62
2
440
16777216
100
AcDbLine
 10
86.0104044884
 20
106.6950958784
 30
0.0
 11
86.0104044884
 21
75.3439279326
 31
0.0
  0
LINE
  5
27A
330
218
100
AcDbEntity
  8
0
  6
Continuous
 62
2
440
16777216
100
AcDbLine
 10
88.0104170845
 20
76.8439279326
 30
0.0
 11
92.5104170845
 21
76.8439279326
 31
0.0
  0
LINE
  5
27B
330
218
100
AcDbEntity
  8
0
  6
Continuous
 62
2
440
16777216
100
AcDbLine
 10
92.5104170845
 20
76.8439279326
 30
0.0
 11
87.01041078639999
 21
76.8439279326
 31
0.0
  0
LINE
  5
27C
330
218
100
AcDbEntity
  8
0
  6
Continuous
 62
2
440
16777216
100
AcDbLine
 10
86.0104044884
 20
76.8439279326
 30
0.0
 11
74.4123081703
 21
76.8439279326
 31
0.0
  0
LINE
  5
27D
330
218
100
AcDbEntity
  8
0
  6
Continuous
 62
2
440
16777216
100
AcDbLine
 10
74.4123081703
 20
76.8439279326
 30
0.0
 11
87.01041078639999
 21
76.8439279326
 31
0.0
  0
INSERT
  5
27E
330
218
100
AcDbEntity
  8
0
  6
Continuous
 62
2
440
16777216
100
AcDbBlockReference
  2
_FILLED
 10
88.0104170845
 20
76.8439279326
 30
0.0
 41
2.7
 42
2.7
 43
2.7
 50
180.0
  0
INSERT
  5
27F
330
218
100
AcDbEntity
  8
0
  6
Continuous
 62
2
440
16777216
100
AcDbBlockReference
  2
_FILLED
 10
86.0104044884
 20
76.8439279326
 30
0.0
 41
2.7
 42
2.7
 43
2.7
  0
ENDBLK
  5
280
330
218
100
AcDbEntity
  8
0
100
AcDbBlockEnd
  0
BLOCK
  5
281
330
219
100
AcDbEntity
  8
0
100
AcDbBlockBegin
  2
*D9
 70
1
 10
0.0
 20
0.0
 30
0.0
  3
*D9
  1

  0
LINE
  5
486
330
219
100
AcDbEntity
  8
0
  6
Continuous
 62
0
370
-2
440
16777216
100
AcDbLine
 10
74.55621169908542
 20
119.5108918246033
 30
0.0
 11
82.57414665161195
 21
130.1223346622693
 31
0.0
  0
MTEXT
  5
487
330
219
100
AcDbEntity
  8
0
  6
Continuous
 62
0
440
16777216
100
AcDbMText
 10
76.39638531493459
 20
127.9593760711136
 30
0.0
 40
3.0
 41
5.099999999999999
 46
0.0
 71
3
  1
\A1;R6=5
 11
0.6028522520696625
 21
0.7978528449372956
 31
0.0
  0
INSERT
  5
488
330
219
100
AcDbEntity
  8
0
  6
Continuous
 62
0
370
-2
440
16777216
100
AcDbBlockReference
  2
_FILLED
 10
84.20184773220004
 20
132.2765373436
 30
0.0
 41
2.7
 42
2.7
 43
2.7
 50
52.92555056124151
  0
LINE
  5
489
330
219
100
AcDbEntity
  8
0
  6
Continuous
 62
0
370
-2
440
16777216
100
AcDbLine
 10
85.9204044884
 20
134.6700958784
 30
0.0
 11
86.10040448840003
 21
134.6700958784
 31
0.0
  0
LINE
  5
48A
330
219
100
AcDbEntity
  8
0
  6
Continuous
 62
0
370
-2
440
16777216
100
AcDbLine
 10
86.0104044884
 20
134.5800958784
 30
0.0
 11
86.0104044884
 21
134.7600958784
 31
0.0
  0
POINT
  5
48B
330
219
100
AcDbEntity
  8
Defpoints
  6
Continuous
 62
0
440
16777216
100
AcDbPoint
 10
84.20184773220004
 20
132.2765373436
 30
0.0
  0
POINT
  5
48C
330
219
100
AcDbEntity
  8
Defpoints
  6
Continuous
 62
0
440
16777216
100
AcDbPoint
 10
86.01040448840001
 20
134.6700958784
 30
0.0
  0
ENDBLK
  5
285
330
219
100
AcDbEntity
  8
0
100
AcDbBlockEnd
  0
BLOCK
  5
286
330
21A
100
AcDbEntity
  8
0
100
AcDbBlockBegin
  2
*D10
 70
1
 10
0.0
 20
0.0
 30
0.0
  3
*D10
  1

  0
LINE
  5
4B0
330
21A
100
AcDbEntity
  8
0
  6
Continuous
 62
0
370
-2
440
16777216
100
AcDbLine
 10
103.0662879984757
 20
147.7083675674475
 30
0.0
 11
116.0288668715633
 21
137.1082556882544
 31
0.0
  0
MTEXT
  5
4B1
330
21A
100
AcDbEntity
  8
0
  6
Continuous
 62
0
440
16777216
100
AcDbMText
 10
110.6153985914913
 20
146.2178272276985
 30
0.0
 40
3.0
 41
7.65
 46
0.0
 71
2
  1
\A1;R13=10
 11
0.7741221860419805
 21
-0.633036208346399
 31
0.0
  0
INSERT
  5
4B2
330
21A
100
AcDbEntity
  8
0
  6
Continuous
 62
0
370
-2
440
16777216
100
AcDbBlockReference
  2
_FILLED
 10
118.1189967738767
 20
135.3990579257191
 30
0.0
 41
2.7
 42
2.7
 43
2.7
 50
320.7255145840577
  0
LINE
  5
4B3
330
21A
100
AcDbEntity
  8
0
  6
Continuous
 62
0
370
-2
440
16777216
100
AcDbLine
 10
123.0607897519
 20
131.2843235783183
 30
0.0
 11
123.2407897519
 21
131.2843235783183
 31
0.0
  0
LINE
  5
4B4
330
21A
100
AcDbEntity
  8
0
  6
Continuous
 62
0
370
-2
440
16777216
100
AcDbLine
 10
123.1507897519
 20
131.1943235783183
 30
0.0
 11
123.1507897519
 21
131.3743235783183
 31
0.0
  0
POINT
  5
4B5
330
21A
100
AcDbEntity
  8
Defpoints
  6
Continuous
 62
0
440
16777216
100
AcDbPoint
 10
118.1189967738767
 20
135.3990579257191
 30
0.0
  0
POINT
  5
4B6
330
21A
100
AcDbEntity
  8
Defpoints
  6
Continuous
 62
0
440
16777216
100
AcDbPoint
 10
123.1507897519
 20
131.2843235783183
 30
0.0
  0
ENDBLK
  5
28A
330
21A
100
AcDbEntity
  8
0
100
AcDbBlockEnd
  0
BLOCK
  5
28B
330
21B
100
AcDbEntity
  8
0
100
AcDbBlockBegin
  2
*T11
 70
1
 10
0.0
 20
0.0
 30
0.0
  3
*T11
  1

  0
LINE
  5
28C
330
21B
100
AcDbEntity
  8
0
  6
Continuous
 62
2
100
AcDbLine
 10
0.0
 20
0.0
 30
0.0
 11
150.6908
 21
0.0
 31
0.0
  0
LINE
  5
28D
330
21B
100
AcDbEntity
  8
0
  6
Continuous
 62
2
100
AcDbLine
 10
0.0
 20
0.0
 30
0.0
 11
0.0
 21
-30.848
 31
0.0
  0
LINE
  5
28E
330
21B
100
AcDbEntity
  8
0
  6
Continuous
 62
2
100
AcDbLine
 10
0.0
 20
-7.714999999999999
 30
0.0
 11
150.6908
 21
-7.714999999999999
 31
0.0
  0
LINE
  5
28F
330
21B
100
AcDbEntity
  8
0
  6
Continuous
 62
2
100
AcDbLine
 10
0.0
 20
-15.426
 30
0.0
 11
150.6908
 21
-15.426
 31
0.0
  0
LINE
  5
290
330
21B
100
AcDbEntity
  8
0
  6
Continuous
 62
2
100
AcDbLine
 10
0.0
 20
-23.137
 30
0.0
 11
150.6908
 21
-23.137
 31
0.0
  0
LINE
  5
291
330
21B
100
AcDbEntity
  8
0
  6
Continuous
 62
2
100
AcDbLine
 10
0.0
 20
-30.848
 30
0.0
 11
150.6908
 21
-30.848
 31
0.0
  0
LINE
  5
292
330
21B
100
AcDbEntity
  8
0
  6
Continuous
 62
2
100
AcDbLine
 10
18.693
 20
0.0
 30
0.0
 11
18.693
 21
-30.848
 31
0.0
  0
LINE
  5
293
330
21B
100
AcDbEntity
  8
0
  6
Continuous
 62
2
100
AcDbLine
 10
33.45000000000001
 20
0.0
 30
0.0
 11
33.45000000000001
 21
-30.848
 31
0.0
  0
LINE
  5
294
330
21B
100
AcDbEntity
  8
0
  6
Continuous
 62
2
100
AcDbLine
 10
52.14199999999999
 20
0.0
 30
0.0
 11
52.14199999999999
 21
-30.848
 31
0.0
  0
LINE
  5
295
330
21B
100
AcDbEntity
  8
0
  6
Continuous
 62
2
100
AcDbLine
 10
71.9857
 20
0.0
 30
0.0
 11
71.9857
 21
-30.848
 31
0.0
  0
LINE
  5
296
330
21B
100
AcDbEntity
  8
0
  6
Continuous
 62
2
100
AcDbLine
 10
150.6908
 20
0.0
 30
0.0
 11
150.6908
 21
-30.848
 31
0.0
  0
MTEXT
  5
297
330
21B
100
AcDbEntity
  8
0
  6
Continuous
 62
7
100
AcDbMText
 10
9.3465
 20
-1.5
 30
0.0
 40
4.2
 41
20.16
 46
0.0
 71
2
  1
周亚丰
  7
TEXTSTYLE_5
 44
0.9
  0
MTEXT
  5
298
330
21B
100
AcDbEntity
  8
0
  6
Continuous
 62
7
100
AcDbMText
 10
42.79600000000001
 20
-1.5
 30
0.0
 40
4.2
 41
33.6
 46
0.0
 71
2
  1
SKD61
  7
TEXTSTYLE_5
 44
0.9
  0
MTEXT
  5
299
330
21B
100
AcDbEntity
  8
0
  6
Continuous
 62
7
100
AcDbMText
 10
73.1857
 20
-1.5
 30
0.0
 40
4.2
 41
47.03999999999999
 46
0.0
 71
1
  1
HV960以上
  7
TEXTSTYLE_5
 44
0.9
  0
MTEXT
  5
29A
330
21B
100
AcDbEntity
  8
0
  6
Continuous
 62
7
100
AcDbMText
 10
9.3465
 20
-9.215
 30
0.0
 40
4.2
 41
20.16
 46
0.0
 71
2
  1
周亚丰
  7
TEXTSTYLE_5
 44
0.9
  0
MTEXT
  5
29B
330
21B
100
AcDbEntity
  8
0
  6
Continuous
 62
7
100
AcDbMText
 10
42.79600000000001
 20
-9.215
 30
0.0
 40
4.2
 41
6.719999999999999
 46
0.0
 71
2
  1
1
  7
TEXTSTYLE_5
 44
0.9
  0
MTEXT
  5
29C
330
21B
100
AcDbEntity
  8
0
  6
Continuous
 62
7
100
AcDbMText
 10
73.1857
 20
-9.215
 30
0.0
 40
4.2
 41
13.44
 46
0.0
 71
1
  1
渗氮
  7
TEXTSTYLE_5
 44
0.9
  0
MTEXT
  5
29D
330
21B
100
AcDbEntity
  8
0
  6
Continuous
 62
7
100
AcDbMText
 10
42.79600000000001
 20
-17.1815
 30
0.0
 40
4.2
 41
33.6
 46
0.0
 71
2
  1
1,000
  7
TEXTSTYLE_5
 44
0.9
  0
MTEXT
  5
29E
330
21B
100
AcDbEntity
  8
0
  6
Continuous
 62
7
100
AcDbMText
 10
73.1857
 20
-16.926
 30
0.0
 40
4.2
 41
73.92
 46
0.0
 71
1
  1
下管TAPER抽套模 
  7
TEXTSTYLE_5
 44
0.9
  0
MTEXT
  5
29F
330
21B
100
AcDbEntity
  8
0
  6
Continuous
 62
7
100
AcDbMText
 10
34.65
 20
-24.637
 30
0.0
 40
4.2
 41
33.6
 46
0.0
 71
1
  1
2024.02.21\P \P 
  7
TEXTSTYLE_8
 44
0.9
  0
MTEXT
  5
2A0
330
21B
100
AcDbEntity
  8
0
  6
Continuous
 62
7
100
AcDbMText
 10
73.1857
 20
-24.637
 30
0.0
 40
4.2
 41
100.8
 46
0.0
 71
1
  1
DC0128-ADIE0112
  7
TEXTSTYLE_5
 44
0.9
  0
ENDBLK
  5
2A1
330
21B
100
AcDbEntity
  8
0
100
AcDbBlockEnd
  0
BLOCK
  5
2A2
330
21C
100
AcDbEntity
  8
0
100
AcDbBlockBegin
  2
*T12
 70
1
 10
0.0
 20
0.0
 30
0.0
  3
*T12
  1

  0
LINE
  5
2A3
330
21C
100
AcDbEntity
  8
0
  6
Continuous
 62
2
100
AcDbLine
 10
0.0
 20
0.0
 30
0.0
 11
47.0
 21
0.0
 31
0.0
  0
LINE
  5
2A4
330
21C
100
AcDbEntity
  8
0
  6
Continuous
 62
2
100
AcDbLine
 10
0.0
 20
0.0
 30
0.0
 11
0.0
 21
-12.0
 31
0.0
  0
LINE
  5
2A5
330
21C
100
AcDbEntity
  8
0
  6
Continuous
 62
2
100
AcDbLine
 10
0.0
 20
-6.0
 30
0.0
 11
47.0
 21
-6.0
 31
0.0
  0
LINE
  5
2A6
330
21C
100
AcDbEntity
  8
0
  6
Continuous
 62
2
100
AcDbLine
 10
0.0
 20
-12.0
 30
0.0
 11
47.0
 21
-12.0
 31
0.0
  0
LINE
  5
2A7
330
21C
100
AcDbEntity
  8
0
  6
Continuous
 62
2
100
AcDbLine
 10
12.0
 20
0.0
 30
0.0
 11
12.0
 21
-12.0
 31
0.0
  0
LINE
  5
2A8
330
21C
100
AcDbEntity
  8
0
  6
Continuous
 62
2
100
AcDbLine
 10
47.0
 20
0.0
 30
0.0
 11
47.0
 21
-12.0
 31
0.0
  0
MTEXT
  5
2A9
330
21C
100
AcDbEntity
  8
0
  6
Continuous
 62
7
100
AcDbMText
 10
1.199999999999999
 20
-1.5
 30
0.0
 40
3.0
 41
14.4
 46
0.0
 71
1
  1
车种名
  7
TEXTSTYLE_5
 44
0.9
  0
MTEXT
  5
2AA
330
21C
100
AcDbEntity
  8
0
  6
Continuous
 62
7
100
AcDbMText
 10
13.2
 20
-1.5
 30
0.0
 40
3.0
 41
76.79999999999998
 46
0.0
 71
1
  1
24REI ADV2.1/2.2
  7
TEXTSTYLE_5
 44
0.9
  0
MTEXT
  5
2AB
330
21C
100
AcDbEntity
  8
0
  6
Continuous
 62
7
100
AcDbMText
 10
1.199999999999999
 20
-7.5
 30
0.0
 40
3.0
 41
9.6
 46
0.0
 71
1
  1
规格
  7
TEXTSTYLE_5
 44
0.9
  0
MTEXT
  5
2AC
330
21C
100
AcDbEntity
  8
0
  6
Continuous
 62
2
100
AcDbMText
 10
13.2
 20
-7.5
 30
0.0
 40
3.0
 41
28.8
 46
0.0
 71
1
  1
R1A1Z5
  7
TEXTSTYLE_5
 44
0.9
  0
ENDBLK
  5
2AD
330
21C
100
AcDbEntity
  8
0
100
AcDbBlockEnd
  0
ENDSEC
  0
SECTION
  2
ENTITIES
  0
MTEXT
  5
2AE
330
20E
100
AcDbEntity
  8
0
  6
Continuous
 62
2
100
AcDbMText
 10
128.0692881061
 20
26.401470336
 30
0.0
 40
3.856551614999999
 41
17.3544822675
 46
0.0
 71
1
  1
校 对
  7
TEXTSTYLE_2
 44
0.9
  0
MTEXT
  5
2AF
330
20E
100
AcDbEntity
  8
0
  6
Continuous
 62
2
100
AcDbMText
 10
118.522019566
 20
23.5195435061
 30
0.0
 40
1.928275868899999
 41
8.034482787199998
 46
0.0
 71
1
  1
{\Fgdt;`}\Ftxt;30'
  7
TEXTSTYLE_3
 44
0.9
  0
MTEXT
  5
2B0
330
20E
100
AcDbEntity
  8
0
  6
Continuous
 62
2
100
AcDbMText
 10
118.6062162467
 20
27.3891379374
 30
0.0
 40
1.928275868899999
 41
5.4634482953
 46
0.0
 71
1
  1
{\Fgdt;`}\Ftxt;1\Fgdt;{\Fgdt;~}
  7
TEXTSTYLE_3
 44
0.9
  0
MTEXT
  5
2B1
330
20E
100
AcDbEntity
  8
0
  6
Continuous
 62
2
100
AcDbMText
 10
128.0692881061
 20
34.1146139838
 30
0.0
 40
3.856551614999999
 41
17.3544822675
 46
0.0
 71
1
  1
制 图
  7
TEXTSTYLE_2
 44
0.9
  0
MTEXT
  5
2B2
330
20E
100
AcDbEntity
  8
0
  6
Continuous
 62
2
100
AcDbMText
 10
127.8668123008
 20
41.7834658014
 30
0.0
 40
3.856551614999999
 41
17.3544822675
 46
0.0
 71
1
  1
设 计
  7
TEXTSTYLE_2
 44
0.9
  0
MTEXT
  5
2B3
330
20E
100
AcDbEntity
  8
0
  6
Continuous
 62
2
100
AcDbMText
 10
119.498806041
 20
31.5764877669
 30
0.0
 40
1.928275868899999
 41
1.928275868899999
 46
0.0
 71
1
  1
-
  7
TEXTSTYLE_2
 44
0.9
  0
MTEXT
  5
2B4
330
20E
100
AcDbEntity
  8
0
  6
Continuous
 62
2
100
AcDbMText
 10
119.2259732435
 20
35.58562274110001
 30
0.0
 40
2.892413803399999
 41
8.6772414102
 46
0.0
 71
1
  1
角度
  7
TEXTSTYLE_2
 44
0.9
  0
MTEXT
  5
2B5
330
20E
100
AcDbEntity
  8
0
  6
Continuous
 62
2
100
AcDbMText
 10
110.0273538333
 20
31.18208381900001
 30
0.0
 40
1.928275868899999
 41
8.034482787199998
 46
0.0
 71
1
  1
{\Fgdt;`}\Ftxt;0.1
  7
TEXTSTYLE_3
 44
0.9
  0
MTEXT
  5
2B6
330
20E
100
AcDbEntity
  8
0
  6
Continuous
 62
2
100
AcDbMText
 10
94.7730064768
 20
31.2313511585
 30
0.0
 40
1.928275868899999
 41
9.6413793446
 46
0.0
 71
1
  1
0.5-6
  7
TEXTSTYLE_2
 44
0.9
  0
MTEXT
  5
2B7
330
20E
100
AcDbEntity
  8
0
  6
Continuous
 62
2
100
AcDbMText
 10
109.9622416125
 20
23.5847088621
 30
0.0
 40
1.928275868899999
 41
8.034482787199998
 46
0.0
 71
1
  1
{\Fgdt;`}\Ftxt;0.3
  7
TEXTSTYLE_3
 44
0.9
  0
MTEXT
  5
2B8
330
20E
100
AcDbEntity
  8
0
  6
Continuous
 62
2
100
AcDbMText
 10
94.3660727541
 20
23.7840933206
 30
0.0
 40
1.928275868899999
 41
13.4979310825
 46
0.0
 71
1
  1
30 -120
  7
TEXTSTYLE_2
 44
0.9
  0
MTEXT
  5
2B9
330
20E
100
AcDbEntity
  8
0
  6
Continuous
 62
2
100
AcDbMText
 10
109.8300178629
 20
27.2847285854
 30
0.0
 40
1.928275868899999
 41
8.034482787199998
 46
0.0
 71
1
  1
{\Fgdt;`}\Ftxt;0.2
  7
TEXTSTYLE_3
 44
0.9
  0
MTEXT
  5
2BA
330
20E
100
AcDbEntity
  8
0
  6
Continuous
 62
2
100
AcDbMText
 10
94.75149457129999
 20
27.4348457043
 30
0.0
 40
1.928275868899999
 41
11.5696552135
 46
0.0
 71
1
  1
6  -30
  7
TEXTSTYLE_2
 44
0.9
  0
MTEXT
  5
2BB
330
20E
100
AcDbEntity
  8
0
  6
Continuous
 62
2
100
AcDbMText
 10
110.7509196884
 20
34.9128106163
 30
0.0
 40
1.928275868899999
 41
3.856551737799999
 46
0.0
 71
1
  1
14
  7
TEXTSTYLE_2
 44
0.9
  0
MTEXT
  5
2BC
330
20E
100
AcDbEntity
  8
0
  6
Continuous
 62
2
100
AcDbMText
 10
94.45434583389999
 20
35.58562274110001
 30
0.0
 40
2.892413803399999
 41
8.6772414102
 46
0.0
 71
1
  1
以上
  7
TEXTSTYLE_2
 44
0.9
  0
MTEXT
  5
2BD
330
20E
100
AcDbEntity
  8
0
  6
Continuous
 62
2
100
AcDbMText
 10
103.1972736485
 20
35.44009211610001
 30
0.0
 40
2.892413803399999
 41
8.6772414102
 46
0.0
 71
1
  1
以下
  7
TEXTSTYLE_2
 44
0.9
  0
MTEXT
  5
2BE
330
20E
100
AcDbEntity
  8
0
  6
Continuous
 62
2
100
AcDbMText
 10
114.2716487684
 20
35.44009211610001
 30
0.0
 40
2.892413803399999
 41
4.3386207051
 46
0.0
 71
1
  1
级
  7
TEXTSTYLE_2
 44
0.9
  0
MTEXT
  5
2BF
330
20E
100
AcDbEntity
  8
0
  6
Continuous
 62
2
100
AcDbMText
 10
104.9374961583
 20
42.15955491329999
 30
0.0
 40
3.856551737799999
 41
23.1393104271
 46
0.0
 71
1
  1
一般公差
  7
TEXTSTYLE_2
 44
0.9
  0
MTEXT
  5
2C0
330
20E
100
AcDbEntity
  8
0
  6
Continuous
 62
2
100
AcDbMText
 10
251.7222356621
 20
198.5792121914
 30
0.0
 40
3.856551999999999
 41
23.139312
 46
0.0
 71
1
  1
锐角去除
  7
TEXTSTYLE_2
 44
0.9
  0
MTEXT
  5
2C1
330
20E
100
AcDbEntity
  8
0
  6
Continuous
 62
2
100
AcDbMText
 10
149.48712177
 20
200.4672095312
 30
0.0
 40
3.9353792094
 41
10.035216984
 46
0.0
 71
3
  1
组立
  7
TEXTSTYLE_4
 44
0.9
  0
MTEXT
  5
2C2
330
20E
100
AcDbEntity
  8
0
  6
Continuous
 62
2
100
AcDbMText
 10
140.628472076
 20
200.6595172164
 30
0.0
 40
3.9353792094
 41
15.0528254761
 46
0.0
 71
3
  1
热处理
  7
TEXTSTYLE_4
 44
0.9
  0
MTEXT
  5
2C3
330
20E
100
AcDbEntity
  8
0
  6
Continuous
 62
2
100
AcDbMText
 10
125.8193590516
 20
200.4638982626
 30
0.0
 40
3.9353792094
 41
10.035216984
 46
0.0
 71
3
  1
钳工
  7
TEXTSTYLE_4
 44
0.9
  0
MTEXT
  5
2C4
330
20E
100
AcDbEntity
  8
0
  6
Continuous
 62
2
100
AcDbMText
 10
117.0866514594
 20
200.4656954617
 30
0.0
 40
3.9353792094
 41
15.0528254761
 46
0.0
 71
3
  1
线切割
  7
TEXTSTYLE_4
 44
0.9
  0
MTEXT
  5
2C5
330
20E
100
AcDbEntity
  8
0
  6
Continuous
 62
2
100
AcDbMText
 10
104.5233994714
 20
200.8873476015
 30
0.0
 40
3.9353792094
 41
15.0528254761
 46
0.0
 71
3
  1
电火花
  7
TEXTSTYLE_4
 44
0.9
  0
MTEXT
  5
2C6
330
20E
100
AcDbEntity
  8
0
  6
Continuous
 62
2
100
AcDbMText
 10
238.5486515607
 20
189.9600532543
 30
0.0
 40
2.4696512386
 41
5.927162972599999
 46
0.0
 71
1
  1
3.2
  7
TEXTSTYLE_5
 44
0.9
  0
MTEXT
  5
2C7
330
20E
100
AcDbEntity
  8
0
  6
Continuous
 62
2
100
AcDbMText
 10
227.750612645
 20
186.3585584675
 30
0.0
 40
4.132148169899999
 41
9.9171556078
 46
0.0
 71
1
  1
其余
  7
TEXTSTYLE_5
 44
0.9
  0
MTEXT
  5
2C8
330
20E
100
AcDbEntity
  8
0
  6
Continuous
 62
2
100
AcDbMText
 10
275.2177303504
 20
197.8413924413
 30
0.0
 40
3.0192740579
 41
11.6745263573
 46
0.0
 71
1
  1
1X45\Fgdt;{\Fgdt;~}
  7
TEXTSTYLE_5
 44
0.9
  0
MTEXT
  5
2C9
330
20E
100
AcDbEntity
  8
0
  6
Continuous
 62
2
100
AcDbMText
 10
32.4860878561
 20
200.6903311374
 30
0.0
 40
3.9353792094
 41
10.035216984
 46
0.0
 71
3
  1
备料
  7
TEXTSTYLE_4
 44
0.9
  0
MTEXT
  5
2CA
330
20E
100
AcDbEntity
  8
0
  6
Continuous
 62
2
100
AcDbMText
 10
20.3848957225
 20
196.7193001706
 30
0.0
 40
3.9353792094
 41
9.4449101026
 46
0.0
 71
3
  1
工时
  7
TEXTSTYLE_5
 44
0.9
  0
MTEXT
  5
2CB
330
20E
100
AcDbEntity
  8
0
  6
Continuous
 62
2
100
AcDbMText
 10
20.8818911036
 20
193.0546486211
 30
0.0
 40
3.9353792094
 41
9.4449101026
 46
0.0
 71
3
  1
交期
  7
TEXTSTYLE_5
 44
0.9
  0
MTEXT
  5
2CC
330
20E
100
AcDbEntity
  8
0
  6
Continuous
 62
2
100
AcDbMText
 10
20.9368224185
 20
184.1992069875
 30
0.0
 40
3.9353792094
 41
9.4449101026
 46
0.0
 71
3
  1
厂外
  7
TEXTSTYLE_5
 44
0.9
  0
MTEXT
  5
2CD
330
20E
100
AcDbEntity
  8
0
  6
Continuous
 62
2
100
AcDbMText
 10
20.8929097538
 20
188.3910101771
 30
0.0
 40
3.9353792094
 41
9.4449101026
 46
0.0
 71
3
  1
厂内
  7
TEXTSTYLE_5
 44
0.9
  0
MTEXT
  5
2CE
330
20E
100
AcDbEntity
  8
0
  6
Continuous
 62
2
100
AcDbMText
 10
70.1822725445
 20
200.7898174404
 30
0.0
 40
3.9353792094
 41
14.4765735204
 46
0.0
 71
3
  1
CNC
  7
TEXTSTYLE_4
 44
0.9
  0
MTEXT
  5
2CF
330
20E
100
AcDbEntity
  8
0
  6
Continuous
 62
2
100
AcDbMText
 10
79.96088720520001
 20
200.7107920137
 30
0.0
 40
3.9353792094
 41
10.035216984
 46
0.0
 71
3
  1
平磨
  7
TEXTSTYLE_4
 44
0.9
  0
MTEXT
  5
2D0
330
20E
100
AcDbEntity
  8
0
  6
Continuous
 62
2
100
AcDbMText
 10
45.2771566013
 20
200.7338863973
 30
0.0
 40
3.9353792094
 41
10.035216984
 46
0.0
 71
3
  1
车床
  7
TEXTSTYLE_4
 44
0.9
  0
MTEXT
  5
2D1
330
20E
100
AcDbEntity
  8
0
  6
Continuous
 62
2
100
AcDbMText
 10
55.60060802229999
 20
200.8508833602
 30
0.0
 40
3.935379
 41
10.03521645
 46
0.0
 71
3
  1
铣床
  7
TEXTSTYLE_4
 44
0.9
  0
MTEXT
  5
2D2
330
20E
100
AcDbEntity
  8
0
  6
Continuous
 62
2
100
AcDbMText
 10
92.85052279860002
 20
201.0001665032
 30
0.0
 40
3.9353792094
 41
15.0528254761
 46
0.0
 71
3
  1
内外磨
  7
TEXTSTYLE_4
 44
0.9
  0
MTEXT
  5
2D3
330
20E
100
AcDbEntity
  8
0
  6
Continuous
 62
2
100
AcDbMText
 10
238.8843321488
 20
11.4518460242
 30
0.0
 40
4.820689999999999
 41
79.54138499999999
 46
0.0
 71
1
  1
捷安特(中国)有限公司
  7
TEXTSTYLE_2
 44
0.9
  0
MTEXT
  5
2D4
330
20E
100
AcDbEntity
  8
0
  6
Continuous
 62
2
100
AcDbMText
 10
118.5108285449
 20
19.4815552532
 30
0.0
 40
1.928275868899999
 41
8.034482787199998
 46
0.0
 71
1
  1
{\Fgdt;`}\Ftxt;15'
  7
TEXTSTYLE_3
 44
0.9
  0
MTEXT
  5
2D5
330
20E
100
AcDbEntity
  8
0
  6
Continuous
 62
2
100
AcDbMText
 10
128.1705260088
 20
18.4985015564
 30
0.0
 40
3.856551614999999
 41
17.3544822675
 46
0.0
 71
1
  1
审 核
  7
TEXTSTYLE_2
 44
0.9
  0
MTEXT
  5
2D6
330
20E
100
AcDbEntity
  8
0
  6
Continuous
 62
2
100
AcDbMText
 10
118.6456475826
 20
15.8729012098
 30
0.0
 40
1.928275868899999
 41
8.034482787199998
 46
0.0
 71
1
  1
{\Fgdt;`}\Ftxt;10'
  7
TEXTSTYLE_3
 44
0.9
  0
MTEXT
  5
2D7
330
20E
100
AcDbEntity
  8
0
  6
Continuous
 62
2
100
AcDbMText
 10
110.0043399528
 20
19.5467210694
 30
0.0
 40
1.928275868899999
 41
8.034482787199998
 46
0.0
 71
1
  1
{\Fgdt;`}\Ftxt;0.5
  7
TEXTSTYLE_3
 44
0.9
  0
MTEXT
  5
2D8
330
20E
100
AcDbEntity
  8
0
  6
Continuous
 62
2
100
AcDbMText
 10
94.2108589368
 20
19.7747759254
 30
0.0
 40
1.928275868899999
 41
13.4979310825
 46
0.0
 71
1
  1
120-315
  7
TEXTSTYLE_2
 44
0.9
  0
MTEXT
  5
2D9
330
20E
100
AcDbEntity
  8
0
  6
Continuous
 62
2
100
AcDbMText
 10
109.9510505914
 20
15.7809226893
 30
0.0
 40
1.928275868899999
 41
8.034482787199998
 46
0.0
 71
1
  1
{\Fgdt;`}\Ftxt;0.8
  7
TEXTSTYLE_3
 44
0.9
  0
MTEXT
  5
2DA
330
20E
100
AcDbEntity
  8
0
  6
Continuous
 62
2
100
AcDbMText
 10
93.9672803676
 20
15.5487951461
 30
0.0
 40
1.92827628
 41
15.42621024
 46
0.0
 71
1
  1
315-1000
  7
TEXTSTYLE_2
 44
0.9
  0
MTEXT
  5
2DB
330
20E
100
AcDbEntity
  8
0
  6
Continuous
 62
2
100
AcDbMText
 10
26.1811492788
 20
18.5419812018
 30
0.0
 40
3.856551737799999
 41
11.5696552135
 46
0.0
 71
1
  1
日期
  7
TEXTSTYLE_2
 44
0.9
  0
MTEXT
  5
2DC
330
20E
100
AcDbEntity
  8
0
  6
Continuous
 62
2
100
AcDbMText
 10
14.2943349652
 20
17.52115535119999
 30
0.0
 40
2.699586216499999
 41
5.399172432999999
 46
0.0
 71
1
  1
NO
  7
TEXTSTYLE_2
 44
0.9
  0
MTEXT
  5
2DD
330
20E
100
AcDbEntity
  8
0
  6
Continuous
 62
2
100
AcDbMText
 10
51.7409888637
 20
18.7215222976
 30
0.0
 40
3.856551737799999
 41
23.1393104271
 46
0.0
 71
1
  1
更正记事
  7
TEXTSTYLE_2
 44
0.9
  0
MTEXT
  5
2DE
330
20E
100
AcDbEntity
  8
0
  6
Continuous
 62
2
100
AcDbMText
 10
80.4240783068
 20
18.2924663838
 30
0.0
 40
3.856551737799999
 41
17.3544828203
 46
0.0
 71
1
  1
更改人
  7
TEXTSTYLE_2
 44
0.9
  0
MTEXT
  5
2DF
330
20E
100
AcDbEntity
  8
0
  6
Continuous
 62
2
100
AcDbMText
 10
160.9567202222
 20
26.2674165879
 30
0.0
 40
3.856551299999999
 41
17.35448085
 46
0.0
 71
1
  1
比 例
  7
TEXTSTYLE_2
 44
0.9
  0
MTEXT
  5
2E0
330
20E
100
AcDbEntity
  8
0
  6
Continuous
 62
2
100
AcDbMText
 10
160.9567202222
 20
33.98056023570001
 30
0.0
 40
3.856551299999999
 41
17.35448085
 46
0.0
 71
1
  1
件/台
  7
TEXTSTYLE_2
 44
0.9
  0
MTEXT
  5
2E1
330
20E
100
AcDbEntity
  8
0
  6
Continuous
 62
2
100
AcDbMText
 10
160.7542444169
 20
41.64941205329999
 30
0.0
 40
3.856551299999999
 41
17.35448085
 46
0.0
 71
1
  1
材 质
  7
TEXTSTYLE_2
 44
0.9
  0
MTEXT
  5
2E2
330
20E
100
AcDbEntity
  8
0
  6
Continuous
 62
2
100
AcDbMText
 10
161.0579581249
 20
18.3644478083
 30
0.0
 40
3.856551299999999
 41
17.35448085
 46
0.0
 71
1
  1
日 期
  7
TEXTSTYLE_2
 44
0.9
  0
MTEXT
  5
2E3
330
20E
100
AcDbEntity
  8
0
  6
Continuous
 62
2
100
AcDbMText
 10
197.211900783
 20
26.1152532422
 30
0.0
 40
3.856551299999999
 41
17.35448085
 46
0.0
 71
1
  1
名 称
  7
TEXTSTYLE_2
 44
0.9
  0
MTEXT
  5
2E4
330
20E
100
AcDbEntity
  8
0
  6
Continuous
 62
2
100
AcDbMText
 10
202.5901643619
 20
33.9865811129
 30
0.0
 40
3.856551299999999
 41
23.1393078
 46
0.0
 71
2
  1
表面处理
  7
TEXTSTYLE_2
 44
0.9
  0
MTEXT
  5
2E5
330
20E
100
AcDbEntity
  8
0
  6
Continuous
 62
2
100
AcDbMText
 10
197.0094249777
 20
41.4972487076
 30
0.0
 40
3.856551299999999
 41
17.35448085
 46
0.0
 71
1
  1
热处理
  7
TEXTSTYLE_2
 44
0.9
  0
MTEXT
  5
2E6
330
20E
100
AcDbEntity
  8
0
  6
Continuous
 62
2
100
AcDbMText
 10
197.3131386856
 20
18.2122844626
 30
0.0
 40
3.856551299999999
 41
17.35448085
 46
0.0
 71
1
  1
图 号
  7
TEXTSTYLE_2
 44
0.9
  0
MTEXT
  5
2E7
330
20E
100
AcDbEntity
  8
0
  6
Continuous
 62
2
100
AcDbMText
 10
176.9355630558
 20
200.273080921
 30
0.0
 40
3.5
 41
67.2
 46
0.0
 71
1
  1
按GIANT规范\P打刻图号、车种名、规格、请购单号
  7
TEXTSTYLE_5
 44
0.6600000000000001
  0
MTEXT
  5
2E8
330
20E
100
AcDbEntity
  8
0
  6
Continuous
 62
2
100
AcDbMText
 10
251.8545140827
 20
190.5517678136
 30
0.0
 40
3.856551999999999
 41
23.139312
 46
0.0
 71
1
  1
周边倒角
  7
TEXTSTYLE_2
 44
0.9
  0
MTEXT
  5
2E9
330
20E
100
AcDbEntity
  8
0
  6
Continuous
 62
2
100
AcDbMText
 10
277.1800586241
 20
190.5685316298
 30
0.0
 40
3.856551999999999
 41
7.713103999999999
 46
0.0
 71
1
  1
R2
  7
TEXTSTYLE_2
 44
0.9
  0
MTEXT
  5
2EA
330
20E
100
AcDbEntity
  8
0
  6
Continuous
 62
2
100
AcDbMText
 10
284.8456429352999
 20
181.8082008929
 30
0.0
 40
4.0
 41
5.099999999999999
 46
0.0
 71
1
  1
收\P到\P此\P图\P请\P将\P原\P图\P \P\\\P \P作\P废
 44
0.9
  0
LINE
  5
2EB
330
20E
100
AcDbEntity
  8
05___PRT_ALL_DTM_CSYS
  6
Continuous
 62
2
100
AcDbLine
 10
83.0104044884
 20
129.5775958784
 30
0.0
 11
83.0104044884
 21
108.7875958784
 31
0.0
  0
LINE
  5
2EC
330
20E
100
AcDbEntity
  8
05___PRT_ALL_DTM_CSYS
  6
Continuous
 62
2
100
AcDbLine
 10
72.6154044884
 20
119.1825958784
 30
0.0
 11
93.4054044884
 21
119.1825958784
 31
0.0
  0
MTEXT
  5
2ED
330
20E
100
AcDbEntity
  8
05___PRT_ALL_DTM_CSYS
  6
Continuous
 62
7
100
AcDbMText
 10
81.9364312742
 20
120.5250623963
 30
0.0
 40
2.684933035699999
 41
2.1479464286
 46
0.0
 71
1
  1
x
  7
TEXTSTYLE_5
 44
0.9
  0
MTEXT
  5
2EE
330
20E
100
AcDbEntity
  8
05___PRT_ALL_DTM_CSYS
  6
Continuous
 62
7
100
AcDbMText
 10
81.9364312742
 20
130.9200623963
 30
0.0
 40
2.684933035699999
 41
2.1479464286
 46
0.0
 71
1
  1
y
  7
TEXTSTYLE_5
 44
0.9
  0
MTEXT
  5
2EF
330
20E
100
AcDbEntity
  8
05___PRT_ALL_DTM_CSYS
  6
Continuous
 62
7
100
AcDbMText
 10
71.54143127420001
 20
120.5250623963
 30
0.0
 40
2.684933035699999
 41
2.1479464286
 46
0.0
 71
1
  1
z
  7
TEXTSTYLE_5
 44
0.9
  0
MTEXT
  5
2F0
330
20E
100
AcDbEntity
  8
05___PRT_ALL_DTM_CSYS
  6
Continuous
 62
7
100
AcDbMText
 10
85.9804044884
 20
124.5585958784
 30
0.0
 40
3.0
 41
30.6
 46
0.0
 71
1
  1
PRT_CSYS_DEF
 44
0.9
  0
LINE
  5
2F1
330
20E
100
AcDbEntity
  8
05___PRT_ALL_DTM_CSYS
  6
Continuous
 62
2
100
AcDbLine
 10
98.4054044884
 20
119.1825958784
 30
0.0
 11
77.6154044884
 21
119.1825958784
 31
0.0
  0
LINE
  5
2F2
330
20E
100
AcDbEntity
  8
05___PRT_ALL_DTM_CSYS
  6
Continuous
 62
2
100
AcDbLine
 10
88.0104044884
 20
108.7875958784
 30
0.0
 11
88.0104044884
 21
129.5775958784
 31
0.0
  0
MTEXT
  5
2F3
330
20E
100
AcDbEntity
  8
05___PRT_ALL_DTM_CSYS
  6
Continuous
 62
7
100
AcDbMText
 10
97.33143127419999
 20
120.5250623963
 30
0.0
 40
2.684933035699999
 41
2.1479464286
 46
0.0
 71
1
  1
x
  7
TEXTSTYLE_5
 44
0.9
  0
MTEXT
  5
2F4
330
20E
100
AcDbEntity
  8
05___PRT_ALL_DTM_CSYS
  6
Continuous
 62
7
100
AcDbMText
 10
86.9364312742
 20
120.5250623963
 30
0.0
 40
2.684933035699999
 41
2.1479464286
 46
0.0
 71
1
  1
y
  7
TEXTSTYLE_5
 44
0.9
  0
MTEXT
  5
2F5
330
20E
100
AcDbEntity
  8
05___PRT_ALL_DTM_CSYS
  6
Continuous
 62
7
100
AcDbMText
 10
86.9364312742
 20
110.1300623963
 30
0.0
 40
2.684933035699999
 41
2.1479464286
 46
0.0
 71
1
  1
z
  7
TEXTSTYLE_5
 44
0.9
  0
MTEXT
  5
2F6
330
20E
100
AcDbEntity
  8
05___PRT_ALL_DTM_CSYS
  6
Continuous
 62
7
100
AcDbMText
 10
90.9804044884
 20
124.5585958784
 30
0.0
 40
3.0
 41
7.65
 46
0.0
 71
1
  1
CS0
 44
0.9
  0
LINE
  5
2F7
330
20E
100
AcDbEntity
  8
0
  6
Continuous
 62
2
100
AcDbLine
 10
98.4054044884
 20
119.1825958784
 30
0.0
 11
77.6154044884
 21
119.1825958784
 31
0.0
  0
LINE
  5
2F8
330
20E
100
AcDbEntity
  8
0
  6
Continuous
 62
2
100
AcDbLine
 10
88.0104044884
 20
108.7875958784
 30
0.0
 11
88.0104044884
 21
129.5775958784
 31
0.0
  0
MTEXT
  5
2F9
330
20E
100
AcDbEntity
  8
0
  6
Continuous
 62
7
100
AcDbMText
 10
97.33143127419999
 20
120.5250623963
 30
0.0
 40
2.684933035699999
 41
2.1479464286
 46
0.0
 71
1
  1
x
  7
TEXTSTYLE_5
 44
0.9
  0
MTEXT
  5
2FA
330
20E
100
AcDbEntity
  8
0
  6
Continuous
 62
7
100
AcDbMText
 10
86.9364312742
 20
120.5250623963
 30
0.0
 40
2.684933035699999
 41
2.1479464286
 46
0.0
 71
1
  1
y
  7
TEXTSTYLE_5
 44
0.9
  0
MTEXT
  5
2FB
330
20E
100
AcDbEntity
  8
0
  6
Continuous
 62
7
100
AcDbMText
 10
86.9364312742
 20
110.1300623963
 30
0.0
 40
2.684933035699999
 41
2.1479464286
 46
0.0
 71
1
  1
z
  7
TEXTSTYLE_5
 44
0.9
  0
MTEXT
  5
2FC
330
20E
100
AcDbEntity
  8
0
  6
Continuous
 62
7
100
AcDbMText
 10
90.9804044884
 20
124.5585958784
 30
0.0
 40
3.0
 41
7.65
 46
0.0
 71
1
  1
CS3
 44
0.9
  0
LINE
  5
2FD
330
20E
100
AcDbEntity
  8
05___PRT_ALL_DTM_CSYS
  6
Continuous
 62
2
100
AcDbLine
 10
237.4666993782
 20
119.1825958784
 30
0.0
 11
216.6766993782
 21
119.1825958784
 31
0.0
  0
LINE
  5
2FE
330
20E
100
AcDbEntity
  8
05___PRT_ALL_DTM_CSYS
  6
Continuous
 62
2
100
AcDbLine
 10
227.0716993782
 20
129.5775958784
 30
0.0
 11
227.0716993782
 21
108.7875958784
 31
0.0
  0
MTEXT
  5
2FF
330
20E
100
AcDbEntity
  8
05___PRT_ALL_DTM_CSYS
  6
Continuous
 62
7
100
AcDbMText
 10
236.3927261639
 20
120.5250623963
 30
0.0
 40
2.684933035699999
 41
2.1479464286
 46
0.0
 71
1
  1
x
  7
TEXTSTYLE_5
 44
0.9
  0
MTEXT
  5
300
330
20E
100
AcDbEntity
  8
05___PRT_ALL_DTM_CSYS
  6
Continuous
 62
7
100
AcDbMText
 10
225.9977261639
 20
130.9200623963
 30
0.0
 40
2.684933035699999
 41
2.1479464286
 46
0.0
 71
1
  1
y
  7
TEXTSTYLE_5
 44
0.9
  0
MTEXT
  5
301
330
20E
100
AcDbEntity
  8
05___PRT_ALL_DTM_CSYS
  6
Continuous
 62
7
100
AcDbMText
 10
225.9977261639
 20
120.5250623963
 30
0.0
 40
2.684933035699999
 41
2.1479464286
 46
0.0
 71
1
  1
z
  7
TEXTSTYLE_5
 44
0.9
  0
MTEXT
  5
302
330
20E
100
AcDbEntity
  8
05___PRT_ALL_DTM_CSYS
  6
Continuous
 62
7
100
AcDbMText
 10
230.0416993782
 20
124.5585958784
 30
0.0
 40
3.0
 41
30.6
 46
0.0
 71
1
  1
PRT_CSYS_DEF
 44
0.9
  0
LINE
  5
303
330
20E
100
AcDbEntity
  8
05___PRT_ALL_DTM_CSYS
  6
Continuous
 62
2
100
AcDbLine
 10
237.4666993782
 20
119.1825958784
 30
0.0
 11
216.6766993782
 21
119.1825958784
 31
0.0
  0
LINE
  5
304
330
20E
100
AcDbEntity
  8
05___PRT_ALL_DTM_CSYS
  6
Continuous
 62
2
100
AcDbLine
 10
227.0716993782
 20
108.7875958784
 30
0.0
 11
227.0716993782
 21
129.5775958784
 31
0.0
  0
MTEXT
  5
305
330
20E
100
AcDbEntity
  8
05___PRT_ALL_DTM_CSYS
  6
Continuous
 62
7
100
AcDbMText
 10
225.9977261639
 20
120.5250623963
 30
0.0
 40
2.684933035699999
 41
2.1479464286
 46
0.0
 71
1
  1
x
  7
TEXTSTYLE_5
 44
0.9
  0
MTEXT
  5
306
330
20E
100
AcDbEntity
  8
05___PRT_ALL_DTM_CSYS
  6
Continuous
 62
7
100
AcDbMText
 10
236.3927261639
 20
120.5250623963
 30
0.0
 40
2.684933035699999
 41
2.1479464286
 46
0.0
 71
1
  1
y
  7
TEXTSTYLE_5
 44
0.9
  0
MTEXT
  5
307
330
20E
100
AcDbEntity
  8
05___PRT_ALL_DTM_CSYS
  6
Continuous
 62
7
100
AcDbMText
 10
225.9977261639
 20
110.1300623963
 30
0.0
 40
2.684933035699999
 41
2.1479464286
 46
0.0
 71
1
  1
z
  7
TEXTSTYLE_5
 44
0.9
  0
MTEXT
  5
308
330
20E
100
AcDbEntity
  8
05___PRT_ALL_DTM_CSYS
  6
Continuous
 62
7
100
AcDbMText
 10
230.0416993782
 20
124.5585958784
 30
0.0
 40
3.0
 41
7.65
 46
0.0
 71
1
  1
CS0
 44
0.9
  0
LINE
  5
309
330
20E
100
AcDbEntity
  8
0
  6
Continuous
 62
2
100
AcDbLine
 10
237.4666993782
 20
119.1825958784
 30
0.0
 11
216.6766993782
 21
119.1825958784
 31
0.0
  0
LINE
  5
30A
330
20E
100
AcDbEntity
  8
0
  6
Continuous
 62
2
100
AcDbLine
 10
227.0716993782
 20
108.7875958784
 30
0.0
 11
227.0716993782
 21
129.5775958784
 31
0.0
  0
MTEXT
  5
30B
330
20E
100
AcDbEntity
  8
0
  6
Continuous
 62
7
100
AcDbMText
 10
225.9977261639
 20
120.5250623963
 30
0.0
 40
2.684933035699999
 41
2.1479464286
 46
0.0
 71
1
  1
x
  7
TEXTSTYLE_5
 44
0.9
  0
MTEXT
  5
30C
330
20E
100
AcDbEntity
  8
0
  6
Continuous
 62
7
100
AcDbMText
 10
236.3927261639
 20
120.5250623963
 30
0.0
 40
2.684933035699999
 41
2.1479464286
 46
0.0
 71
1
  1
y
  7
TEXTSTYLE_5
 44
0.9
  0
MTEXT
  5
30D
330
20E
100
AcDbEntity
  8
0
  6
Continuous
 62
7
100
AcDbMText
 10
225.9977261639
 20
110.1300623963
 30
0.0
 40
2.684933035699999
 41
2.1479464286
 46
0.0
 71
1
  1
z
  7
TEXTSTYLE_5
 44
0.9
  0
MTEXT
  5
30E
330
20E
100
AcDbEntity
  8
0
  6
Continuous
 62
7
100
AcDbMText
 10
230.0416993782
 20
124.5585958784
 30
0.0
 40
3.0
 41
7.65
 46
0.0
 71
1
  1
CS3
 44
0.9
  0
DIMENSION
  5
30F
330
20E
100
AcDbEntity
  8
0
  6
Continuous
 62
2
100
AcDbDimension
280
0
  2
*D1
  3
DIMSTYLE_1
 10
96.4104044884
 20
161.1329555028
 30
0.0
 11
107.9104044884
 21
161.1329555028
 31
0.0
 70
160
 71
2
 42
46.0
 73
0
 74
0
 75
0
100
AcDbAlignedDimension
 13
119.4104044884
 23
150.4325958784
 33
0.0
 14
96.4104044884
 24
150.4325958784
 34
0.0
 50
180.0
100
AcDbRotatedDimension
  0
DIMENSION
  5
310
330
20E
100
AcDbEntity
  8
0
  6
Continuous
 62
2
100
AcDbDimension
280
0
  2
*D2
  3
DIMSTYLE_2
 10
153.0323780889
 20
87.93259587840001
 30
0.0
 11
153.0323780889
 21
119.1825958784
 31
0.0
 70
160
 71
2
 42
125.0
 73
0
 74
0
 75
0
  1
%%c<>
100
AcDbAlignedDimension
 13
119.4104044884
 23
150.4325958784
 33
0.0
 14
119.4104044884
 24
87.93259587840001
 34
0.0
 50
270.0
100
AcDbRotatedDimension
  0
DIMENSION
  5
311
330
20E
100
AcDbEntity
  8
0
  6
Continuous
 62
2
100
AcDbDimension
280
0
  2
*D3
  3
DIMSTYLE_2
 10
47.3836859213
 20
95.43259587840001
 30
0.0
 11
47.3836859213
 21
119.1825958784
 31
0.0
 70
160
 71
2
 42
95.0
 73
0
 74
0
 75
0
  1
%%c<>
100
AcDbAlignedDimension
 13
83.0104044884
 23
142.9325958784
 33
0.0
 14
83.0104044884
 24
95.43259587840001
 34
0.0
 50
270.0
100
AcDbRotatedDimension
  0
DIMENSION
  5
312
330
20E
100
AcDbEntity
  8
0
  6
Continuous
 62
2
100
AcDbDimension
280
0
  2
*D4
  3
DIMSTYLE_3
 10
119.4104044884
 20
63.372962149
 30
0.0
 11
101.2900925446
 21
63.372962149
 31
0.0
 70
160
 71
2
 42
72.8
 73
0
 74
0
 75
0
100
AcDbAlignedDimension
 13
83.0104044884
 23
95.43259587840001
 33
0.0
 14
119.4104044884
 24
87.93259587840001
 34
0.0
 50
0.0
100
AcDbRotatedDimension
  0
DIMENSION
  5
313
330
20E
100
AcDbEntity
  8
0
  6
Continuous
 62
2
100
AcDbDimension
280
0
  2
*D5
  3
DIMSTYLE_4
 10
70.49022784139997
 20
106.6950958784
 30
0.0
 11
70.49022784139999
 21
119.1825958784
 31
0.0
 70
160
 71
2
 42
49.94999999999996
 73
0
 74
0
 75
0
  1
T_d=%%C<>
100
AcDbAlignedDimension
 13
87.1293205661
 23
131.6700958784
 33
0.0
 14
87.7568409841
 24
106.6950958784
 34
0.0
 50
270.0
100
AcDbRotatedDimension
  0
TEXT
  5
314
330
20E
100
AcDbEntity
  8
0
  6
Continuous
 62
2
100
AcDbText
 10
39.896326669
 20
89.8146096117
 30
0.0
 40
3.0
  1
r
  7
TEXTSTYLE_7
100
AcDbText
  0
TEXT
  5
315
330
20E
100
AcDbEntity
  8
0
  6
Continuous
 62
2
100
AcDbText
 10
47.64632666899999
 20
89.8146096117
 30
0.0
 40
3.0
  1
0,02
 41
0.85
100
AcDbText
  0
TEXT
  5
316
330
20E
100
AcDbEntity
  8
0
  6
Continuous
 62
2
100
AcDbText
 10
60.47132666899999
 20
89.8146096117
 30
0.0
 40
3.0
  1
A
 41
0.85
100
AcDbText
  0
LEADER
  5
317
330
20E
100
AcDbEntity
  8
0
  6
Continuous
 62
2
100
AcDbLeader
  3
STANDARD
 73
3
 76
3
 10
70.49022784139999
 20
106.6950958784
 30
0.0
 10
70.49022784139999
 20
91.3146096117
 30
0.0
 10
64.52132666899998
 20
91.3146096117
 30
0.0
1001
ACAD
1000
DSTYLE
1002
{
1070
77
1070
0
1002
}
  0
DIMENSION
  5
318
330
20E
100
AcDbEntity
  8
0
  6
Continuous
 62
2
100
AcDbDimension
280
0
  2
*D6
  3
DIMSTYLE_5
 10
134.4367897519
 20
133.7312011606
 30
0.0
 11
134.4367897519
 21
119.18259587845
 31
0.0
 70
160
 71
2
 42
58.1944211286
 73
0
 74
0
 75
0
  1
T_D=%%C<>
100
AcDbAlignedDimension
 13
114.4228026953
 23
104.6339905963
 33
0.0
 14
114.4228026953
 24
133.7312011606
 34
0.0
 50
90.0
100
AcDbRotatedDimension
  0
DIMENSION
  5
319
330
20E
100
AcDbEntity
  8
0
  6
Continuous
 62
2
100
AcDbDimension
280
0
  2
*D7
  3
DIMSTYLE_3
 10
114.4228026953
 20
77.0967436962
 30
0.0
 11
103.2551479797
 21
77.0967436962
 31
0.0
 70
160
 71
2
 42
52.8247712216
 73
0
 74
0
 75
0
  1
T_L=<>
100
AcDbAlignedDimension
 13
88.0104170845
 23
106.6950958784
 33
0.0
 14
114.4228026953
 24
104.6341719073
 34
0.0
 50
0.0
100
AcDbRotatedDimension
  0
DIMENSION
  5
31A
330
20E
100
AcDbEntity
  8
0
  6
Continuous
 62
2
100
AcDbDimension
280
0
  2
*D8
  3
DIMSTYLE_3
 10
86.0104044884
 20
76.8439279326
 30
0.0
 11
75.7669949341
 21
76.8439279326
 31
0.0
 70
160
 71
3
 42
4.000025191999999
 73
0
 74
0
 75
0
100
AcDbAlignedDimension
 13
88.0104170845
 23
106.6950958784
 33
0.0
 14
86.0104044884
 24
106.6950958784
 34
0.0
 50
180.0
100
AcDbRotatedDimension
  0
DIMENSION
  5
31B
330
20E
100
AcDbEntity
  8
0
  6
Continuous
 62
2
100
AcDbDimension
280
0
  2
*D9
  3
DIMSTYLE_6
 10
86.01040448840001
 20
134.6700958784
 30
0.0
 11
76.05589133956289
 21
125.020572938419
 31
0.0
 70
36
 71
3
 42
5.999999999970157
 73
0
 74
0
 75
0
  1
R<>=5
100
AcDbRadialDimension
 15
84.20184773220004
 25
132.2765373436
 35
0.0
 40
0.0
  0
DIMENSION
  5
31C
330
20E
100
AcDbEntity
  8
0
  6
Continuous
 62
2
100
AcDbDimension
280
0
  2
*D10
  3
DIMSTYLE_6
 10
123.1507897519
 20
131.2843235783183
 30
0.0
 11
108.3206423362356
 21
143.4116343032963
 31
0.0
 70
164
 71
2
 42
12.99999681897873
 73
0
 74
0
 75
0
  1
R<>=10
100
AcDbRadialDimension
 15
118.1189967738767
 25
135.3990579257191
 35
0.0
 40
0.0
  0
SOLID
  5
31D
330
20E
100
AcDbEntity
  8
02___PRT_ALL_AXES
  6
Continuous
 62
2
100
AcDbTrace
 10
121.142455296
 20
119.1825958784
 30
0.0
 11
117.6783536809
 21
119.1825958784
 31
0.0
 12
119.4104044884
 22
116.1825958784
 32
0.0
 13
119.4104044884
 23
116.1825958784
 33
0.0
  0
MTEXT
  5
31E
330
20E
100
AcDbEntity
  8
02___PRT_ALL_AXES
  6
Continuous
 62
2
100
AcDbMText
 10
118.1354044884
 20
116.1825958784
 30
0.0
 40
3.0
 41
2.549999999999999
 46
0.0
 71
1
  1
A
 44
0.9
  0
MTEXT
  5
31F
330
20E
100
AcDbEntity
  8
02___PRT_ALL_AXES
  6
Continuous
 62
2
100
AcDbMText
 10
228.5716993782
 20
123.6825958784
 30
0.0
 40
3.0
 41
2.549999999999999
 46
0.0
 71
1
  1
A
 44
0.9
  0
ACAD_TABLE
  5
320
330
20E
100
AcDbEntity
  8
0
  6
Continuous
 62
2
160
4604
310
FC11000066000000880000001D000000000000000000F03F000000000000000000000000000000007F7F5A2E028E61400000000000000000000000000000F03F00000000000000002223BDF386DB454000000000000000000000000000000000000000000000F03F0000000000000000000000000000000000000000000000
310
000000000000000000000000000000F03F0C00000016000000020000C30C00000017000000FDFFFFFF0C000000120000000000000054000000200000000200000000000000000000000000000000000000000000000000000075029A081BD66240000000000000000000000000000000000000000000000000000000000000
310
0000000000000000F03F0C00000016000000020000C30C00000017000000FDFFFFFF0C000000120000000000000054000000200000000200000000000000000000000000000000000000000000000000000000000000000000000D022B8716D93EC00000000000000000000000000000000000000000000000000000000000
310
00F03F0C00000016000000020000C30C00000017000000FDFFFFFF0C000000120000000000000054000000200000000200000000000000000000005C8FC2F528DC1EC0000000000000000075029A081BD662405C8FC2F528DC1EC0000000000000000000000000000000000000000000000000000000000000F03F0C000000
310
16000000020000C30C00000017000000FDFFFFFF0C00000012000000000000005400000020000000020000000000000000000000263108AC1CDA2EC0000000000000000075029A081BD66240263108AC1CDA2EC0000000000000000000000000000000000000000000000000000000000000F03F0C00000016000000020000
310
C30C00000017000000FDFFFFFF0C000000120000000000000054000000200000000200000000000000000000004F8D976E122337C0000000000000000075029A081BD662404F8D976E122337C0000000000000000000000000000000000000000000000000000000000000F03F0C00000016000000020000C30C0000001700
310
0000FDFFFFFF0C000000120000000000000054000000200000000200000000000000000000000D022B8716D93EC0000000000000000075029A081BD662400D022B8716D93EC0000000000000000000000000000000000000000000000000000000000000F03F0C00000016000000020000C30C00000017000000FDFFFFFF0C
310
0000001200000000000000540000002000000002000000C420B07268B1324000000000000000000000000000000000C420B07268B132400D022B8716D93EC0000000000000000000000000000000000000000000000000000000000000F03F0C00000016000000020000C30C00000017000000FDFFFFFF0C00000012000000
310
000000005400000020000000020000009A99999999B94040000000000000000000000000000000009A99999999B940400D022B8716D93EC0000000000000000000000000000000000000000000000000000000000000F03F0C00000016000000020000C30C00000017000000FDFFFFFF0C0000001200000000000000540000
310
0020000000020000001804560E2D124A40000000000000000000000000000000001804560E2D124A400D022B8716D93EC0000000000000000000000000000000000000000000000000000000000000F03F0C00000016000000020000C30C00000017000000FDFFFFFF0C000000120000000000000054000000200000000200
310
0000B3EA73B515FF514000000000000000000000000000000000B3EA73B515FF51400D022B8716D93EC0000000000000000000000000000000000000000000000000000000000000F03F0C00000016000000020000C30C00000017000000FDFFFFFF0C000000120000000000000054000000200000000200000075029A081B
310
D662400000000000000000000000000000000075029A081BD662400D022B8716D93EC0000000000000000000000000000000000000000000000000000000000000F03F0C00000016000000070000C30C00000017000000FDFFFFFF0C00000012000000000000000C00000016000000070000C3D000000026000000704851FC
310
35160340B4035B19058719C0000000000000000000000000000000000000000000000000000000000000F03F000000000000F03F0000000000000000000000000000000068549A4E304E00000300000001000000CDCCCCCCCCCC10409A9999999999E93F0000000000000000000000000000F03F0000000000000000000000
310
0000000000000000000000000000000000010000000000000041007200690061006C00200055006E00690063006F006400650020004D0053000000000000000000000000000C00000016000000070000C30C00000017000000FDFFFFFF0C00000012000000000000000C00000016000000070000C3C000000026000000365E
310
BA490CC24140CDCCCCCCCCCC16C0000000000000000000000000000000000000000000000000000000000000F03F000000000000F03F0000000000000000000000000000000053004B0044003600310000000500000001000000CDCCCCCCCCCC10409A9999999999E93F0000000000000000000000000000F03F0000000000
310
00000000000000000000000000000000000000000000000100000000000000000000007400780074002E007300680078000000000000000C00000016000000070000C30C00000017000000FDFFFFFF0C00000012000000000000000C00000016000000070000C3C00000002600000080B74082E24B52409FBE2797CCDF18C0
310
000000000000000000000000000000000000000000000000000000000000F03F000000000000F03F000000000000000000000000000000004800560039003600300000000500000001000000CDCCCCCCCCCC10409A9999999999E93F0000000000000000000000000000F03F00000000000000000000000000000000000000
310
0000000000000000000100000000000000000000007400780074002E007300680078000000000000000C00000016000000070000C3D000000026000000575BB1BFECA256409FBE2797CCDF18C0000000000000000000000000000000000000000000000000000000000000F03F000000000000F03F00000000000000000000
310
000000000000E54E0A4E000000000200000001000000CDCCCCCCCCCC10409A9999999999E93F0000000000000000000000000000F03F00000000000000000000000000000000000000000000000000000000010000000000000041007200690061006C00200055006E00690063006F006400650020004D0053000000000000
310
000000000000000C00000016000000070000C30C00000017000000FDFFFFFF0C00000012000000000000000C00000016000000070000C3D000000026000000704851FC3516034088C98E0797312CC0000000000000000000000000000000000000000000000000000000000000F03F000000000000F03F0000000000000000
310
000000000000000068549A4E304E00000300000001000000CDCCCCCCCCCC10409A9999999999E93F0000000000000000000000000000F03F00000000000000000000000000000000000000000000000000000000010000000000000041007200690061006C00200055006E00690063006F006400650020004D005300000000
310
0000000000000000000C00000016000000070000C30C00000017000000FDFFFFFF0C00000012000000000000000C00000016000000070000C3B80000002600000092ED7C3F351E454014AE47E17AD42AC0000000000000000000000000000000000000000000000000000000000000F03F000000000000F03F000000000000
310
00000000000000000000310000000100000001000000CDCCCCCCCCCC10409A9999999999E93F0000000000000000000000000000F03F000000000000000000000000000000000000000000000000000000000100000000000000000000007400780074002E007300680078000000000000000C00000016000000070000C30C
310
00000017000000FDFFFFFF0C00000012000000000000000C00000016000000070000C3D000000026000000EC0BD22BA13C5240BC61FC3620462CC0000000000000000000000000000000000000000000000000000000000000F03F000000000000F03F00000000000000000000000000000000176E2E6C0000000002000000
310
01000000CDCCCCCCCCCC10409A9999999999E93F0000000000000000000000000000F03F00000000000000000000000000000000000000000000000000000000010000000000000041007200690061006C00200055006E00690063006F006400650020004D0053000000000000000000000000000C00000016000000070000
310
C30C00000017000000FDFFFFFF0C00000012000000000000000C00000016000000070000C3C0000000260000000D022B87169942408B6CE7FBA96135C0000000000000000000000000000000000000000000000000000000000000F03F000000000000F03F0000000000000000000000000000000031002C00300030003000
310
00000500000001000000CDCCCCCCCCCC10409A9999999999E93F0000000000000000000000000000F03F000000000000000000000000000000000000000000000000000000000100000000000000000000007400780074002E007300680078000000000000000C00000016000000070000C30C00000017000000FDFFFFFF0C
310
00000012000000000000000C00000016000000070000C3D000000026000000F74C62AEA7325240D7D0160A9DE235C0000000000000000000000000000000000000000000000000000000000000F03F000000000000F03F000000000000000000000000000000000B4EA17B000000000200000001000000CDCCCCCCCCCC1040
310
9A9999999999E93F0000000000000000000000000000F03F00000000000000000000000000000000000000000000000000000000010000000000000041007200690061006C00200055006E00690063006F006400650020004D0053000000000000000000000000000C00000016000000070000C3C0000000260000007A77CB
310
E6798B5440D7D0160A9DE235C0000000000000000000000000000000000000000000000000000000000000F03F000000000000F03F000000000000000000000000000000005400410050004500520000000500000001000000CDCCCCCCCCCC10409A9999999999E93F0000000000000000000000000000F03F000000000000
310
000000000000000000000000000000000000000000000100000000000000000000007400780074002E007300680078000000000000000C00000016000000070000C3D000000026000000ADAAFE19ADBE5840D7D0160A9DE235C0000000000000000000000000000000000000000000000000000000000000F03F0000000000
310
00F03F00000000000000000000000000000000BD625759216A00000300000001000000CDCCCCCCCCCC10409A9999999999E93F0000000000000000000000000000F03F00000000000000000000000000000000000000000000000000000000010000000000000041007200690061006C00200055006E00690063006F006400
310
650020004D0053000000000000000000000000000C00000016000000070000C30C00000017000000FDFFFFFF0C00000012000000000000000C00000016000000070000C3CC00000026000000333333333353414082C0CAA145D63CC0000000000000000000000000000000000000000000000000000000000000F03F000000
310
000000F03F0000000000000000000000000000000032003000320034002E00300032002E0032003100000000000A00000001000000CDCCCCCCCCCC10409A9999999999D93F0000000000000000000000000000F03F000000000000000000000000000000000000000000000000000000000100000000000000000000007400
310
780074002E007300680078000000000000000C00000016000000070000C30C00000017000000FDFFFFFF0C00000012000000000000000C00000016000000070000C3D40000002600000080B74082E24B524082C0CAA145D63CC0000000000000000000000000000000000000000000000000000000000000F03F0000000000
310
00F03F000000000000000000000000000000004400430030003100320038002D004100440049004500300031003100320000000F00000001000000CDCCCCCCCCCC10409A9999999999E93F0000000000000000000000000000F03F000000000000000000000000000000000000000000000000000000000100000000000000
310
000000007400780074002E00730068007800000000000000080000001F000000
100
AcDbBlockReference
  2
*T11
 10
140.4377662437
 20
43.7150559114
 30
0.0
100
AcDbTable
280
0
342
3A0
343
21B
 11
1.0
 21
0.0
 31
0.0
 90
22
 91
4
 92
5
 93
3
 94
0
 95
0
 96
0
280
1
281
1
141
7.714999999999999
141
7.711
141
7.711
141
7.711
142
18.693
142
14.757
142
18.692
142
19.8437
142
78.7051
171
1
172
0
173
0
174
0
175
1
176
1
 91
262201
178
0
145
0.0
170
2
  7
TEXTSTYLE_5
 64
7
140
4.2
 92
0
301
CELL_VALUE
 93
0
 90
4
  1
周亚丰
 94
0
300

302

304
ACVALUE_END
171
1
172
0
173
0
174
0
175
1
176
1
 91
262201
178
0
145
0.0
170
2
  7
TEXTSTYLE_5
 64
7
140
4.2
 92
0
301
CELL_VALUE
 93
0
 90
4
  1
 
 94
0
300

302

304
ACVALUE_END
171
1
172
0
173
0
174
0
175
1
176
1
 91
262201
178
0
145
0.0
170
2
  7
TEXTSTYLE_5
 64
7
140
4.2
 92
0
301
CELL_VALUE
 93
0
 90
4
  1
SKD61
 94
0
300

302

304
ACVALUE_END
171
1
172
0
173
0
174
0
175
1
176
1
 91
262201
178
0
145
0.0
170
1
  7
TEXTSTYLE_5
 64
7
140
4.2
 92
0
301
CELL_VALUE
 93
0
 90
4
  1
 
 94
0
300

302

304
ACVALUE_END
171
1
172
0
173
0
174
0
175
1
176
1
 91
262201
178
0
145
0.0
170
1
  7
TEXTSTYLE_5
 64
7
140
4.2
 92
0
301
CELL_VALUE
 93
0
 90
4
  1
HV960以上
 94
0
300

302

304
ACVALUE_END
171
1
172
0
173
0
174
0
175
1
176
1
 91
262201
178
0
145
0.0
170
2
  7
TEXTSTYLE_5
 64
7
140
4.2
 92
0
301
CELL_VALUE
 93
0
 90
4
  1
周亚丰
 94
0
300

302

304
ACVALUE_END
171
1
172
0
173
0
174
0
175
1
176
1
 91
262201
178
0
145
0.0
170
2
  7
TEXTSTYLE_5
 64
7
140
4.2
 92
0
301
CELL_VALUE
 93
0
 90
4
  1
 
 94
0
300

302

304
ACVALUE_END
171
1
172
0
173
0
174
0
175
1
176
1
 91
262201
178
0
145
0.0
170
2
  7
TEXTSTYLE_5
 64
7
140
4.2
 92
0
301
CELL_VALUE
 93
0
 90
4
  1
1
 94
0
300

302

304
ACVALUE_END
171
1
172
0
173
0
174
0
175
1
176
1
 91
262201
178
0
145
0.0
170
2
  7
TEXTSTYLE_5
 64
7
140
4.2
 92
0
301
CELL_VALUE
 93
0
 90
4
  1
 
 94
0
300

302

304
ACVALUE_END
171
1
172
0
173
0
174
0
175
1
176
1
 91
262201
178
0
145
0.0
170
1
  7
TEXTSTYLE_5
 64
7
140
4.2
 92
0
301
CELL_VALUE
 93
0
 90
4
  1
渗氮
 94
0
300

302

304
ACVALUE_END
171
1
172
0
173
0
174
0
175
1
176
1
 91
262201
178
0
145
0.0
170
1
  7
TEXTSTYLE_5
 64
7
140
4.2
 92
0
301
CELL_VALUE
 93
0
 90
4
  1
 
 94
0
300

302

304
ACVALUE_END
171
1
172
0
173
0
174
0
175
1
176
1
 91
262201
178
0
145
0.0
170
5
  7
TEXTSTYLE_5
 64
7
140
4.2
 92
0
301
CELL_VALUE
 93
0
 90
4
  1
 
 94
0
300

302

304
ACVALUE_END
171
1
172
0
173
0
174
0
175
1
176
1
 91
262201
178
0
145
0.0
170
5
  7
TEXTSTYLE_5
 64
7
140
4.2
 92
0
301
CELL_VALUE
 93
0
 90
4
  1
1,000
 94
0
300

302

304
ACVALUE_END
171
1
172
0
173
0
174
0
175
1
176
1
 91
262201
178
0
145
0.0
170
1
  7
TEXTSTYLE_5
 64
7
140
4.2
 92
0
301
CELL_VALUE
 93
0
 90
4
  1
 
 94
0
300

302

304
ACVALUE_END
171
1
172
0
173
0
174
0
175
1
176
1
 91
262201
178
0
145
0.0
170
1
  7
TEXTSTYLE_5
 64
7
140
4.2
 92
0
301
CELL_VALUE
 93
0
 90
4
  1
下管TAPER抽套模 
 94
0
300

302

304
ACVALUE_END
171
1
172
0
173
0
174
0
175
1
176
1
 91
262201
178
0
145
0.0
170
1
  7
TEXTSTYLE_5
 64
7
140
4.2
 92
0
301
CELL_VALUE
 93
0
 90
4
  1
 
 94
0
300

302

304
ACVALUE_END
171
1
172
0
173
0
174
0
175
1
176
1
 91
262201
178
0
145
0.0
170
2
  7
TEXTSTYLE_5
 64
7
140
4.2
 92
0
301
CELL_VALUE
 93
0
 90
4
  1
 
 94
0
300

302

304
ACVALUE_END
171
1
172
0
173
0
174
0
175
1
176
1
 91
262201
178
0
145
0.0
170
1
  7
TEXTSTYLE_8
 64
7
140
4.2
 92
0
301
CELL_VALUE
 93
0
 90
4
  1
2024.02.21\P \P 
 94
0
300

302

304
ACVALUE_END
171
1
172
0
173
0
174
0
175
1
176
1
 91
262201
178
0
145
0.0
170
1
  7
TEXTSTYLE_5
 64
7
140
4.2
 92
0
301
CELL_VALUE
 93
0
 90
4
  1
 
 94
0
300

302

304
ACVALUE_END
171
1
172
0
173
0
174
0
175
1
176
1
 91
262201
178
0
145
0.0
170
1
  7
TEXTSTYLE_5
 64
7
140
4.2
 92
0
301
CELL_VALUE
 93
0
 90
4
  1
DC0128-ADIE0112
 94
0
300

302

304
ACVALUE_END
  0
ACAD_TABLE
  5
321
330
20E
100
AcDbEntity
  8
0
  6
Continuous
 62
2
160
1892
310
640700002E000000880000001D000000000000000000F03F000000000000000000000000000000008F04342E28846E400000000000000000000000000000F03F0000000000000000B9343831CFDB4B4000000000000000000000000000000000000000000000F03F0000000000000000000000000000000000000000000000
310
000000000000000000000000000000F03F0C00000016000000020000C30C00000017000000FDFFFFFF0C00000012000000000000005400000020000000020000000000000000000000000000000000000000000000000000000000000000804740000000000000000000000000000000000000000000000000000000000000
310
0000000000000000F03F0C00000016000000020000C30C00000017000000FDFFFFFF0C0000001200000000000000540000002000000002000000000000000000000000000000000000000000000000000000000000000000000000000000000028C00000000000000000000000000000000000000000000000000000000000
310
00F03F0C00000016000000020000C30C00000017000000FDFFFFFF0C0000001200000000000000540000002000000002000000000000000000000000000000000018C00000000000000000000000000080474000000000000018C0000000000000000000000000000000000000000000000000000000000000F03F0C000000
310
16000000020000C30C00000017000000FDFFFFFF0C0000001200000000000000540000002000000002000000000000000000000000000000000028C00000000000000000000000000080474000000000000028C0000000000000000000000000000000000000000000000000000000000000F03F0C00000016000000020000
310
C30C00000017000000FDFFFFFF0C0000001200000000000000540000002000000002000000000000000000284000000000000000000000000000000000000000000000284000000000000028C0000000000000000000000000000000000000000000000000000000000000F03F0C00000016000000020000C30C0000001700
310
0000FDFFFFFF0C0000001200000000000000540000002000000002000000000000000080474000000000000000000000000000000000000000000080474000000000000028C0000000000000000000000000000000000000000000000000000000000000F03F0C00000016000000070000C30C00000017000000FDFFFFFF0C
310
00000012000000000000000C00000016000000070000C3D000000026000000D31DC5DA84F2F03FB0A841147E0314C0000000000000000000000000000000000000000000000000000000000000F03F000000000000F03F00000000000000000000000000000000668FCD790D54000003000000010000000000000000000840
310
9A9999999999E93F0000000000000000000000000000F03F00000000000000000000000000000000000000000000000000000000010000000000000041007200690061006C00200055006E00690063006F006400650020004D0053000000000000000000000000000C00000016000000070000C30C00000017000000FDFFFF
310
FF0C00000012000000000000000C00000016000000070000C3D8000000260000006666666666662A4000000000000012C0000000000000000000000000000000000000000000000000000000000000F03F000000000000F03F0000000000000000000000000000000032003400520045004900200041004400560032002E00
310
31002F0032002E00320000000000100000000100000000000000000008409A9999999999E93F0000000000000000000000000000F03F000000000000000000000000000000000000000000000000000000000100000000000000000000007400780074002E007300680078000000000000000C00000016000000070000C30C
310
00000017000000FDFFFFFF0C00000012000000000000000C00000016000000070000C3D000000026000000E9B442B5CDCFF13FBB089397A6FF25C0000000000000000000000000000000000000000000000000000000000000F03F000000000000F03F00000000000000000000000000000000C4893C680000000002000000
310
0100000000000000000008409A9999999999E93F0000000000000000000000000000F03F00000000000000000000000000000000000000000000000000000000010000000000000041007200690061006C00200055006E00690063006F006400650020004D0053000000000000000000000000000C00000016000000020000
310
C30C00000017000000FDFFFFFF0C00000012000000000000000C00000016000000020000C3C4000000260000006666666666662A4000000000000025C0000000000000000000000000000000000000000000000000000000000000F03F000000000000F03F0000000000000000000000000000000052003100410031005A00
310
350000000000060000000100000000000000000008409A9999999999E93F0000000000000000000000000000F03F000000000000000000000000000000000000000000000000000000000100000000000000000000007400780074002E00730068007800000000000000080000001F000000
100
AcDbBlockReference
  2
*T12
 10
244.1299048439
 20
55.71726050609999
 30
0.0
100
AcDbTable
280
0
342
3A0
343
21C
 11
1.0
 21
0.0
 31
0.0
 90
22
 91
2
 92
2
 93
3
 94
0
 95
0
 96
0
280
1
281
1
141
6.0
141
6.0
142
12.0
142
35.0
171
1
172
0
173
0
174
0
175
1
176
1
 91
262201
178
0
145
0.0
170
1
  7
TEXTSTYLE_5
 64
7
140
3.0
 92
0
301
CELL_VALUE
 93
0
 90
4
  1
车种名
 94
0
300

302

304
ACVALUE_END
171
1
172
0
173
0
174
0
175
1
176
1
 91
262201
178
0
145
0.0
170
1
  7
TEXTSTYLE_5
 64
7
140
3.0
 92
0
301
CELL_VALUE
 93
0
 90
4
  1
24REI ADV2.1/2.2
 94
0
300

302

304
ACVALUE_END
171
1
172
0
173
0
174
0
175
1
176
1
 91
262201
178
0
145
0.0
170
1
  7
TEXTSTYLE_5
 64
7
140
3.0
 92
0
301
CELL_VALUE
 93
0
 90
4
  1
规格
 94
0
300

302

304
ACVALUE_END
171
1
172
0
173
0
174
0
175
1
176
1
 91
262193
178
0
145
0.0
170
1
  7
TEXTSTYLE_5
140
3.0
 92
0
301
CELL_VALUE
 93
0
 90
4
  1
R1A1Z5
 94
0
300

302

304
ACVALUE_END
  0
MTEXT
  5
322
330
20E
100
AcDbEntity
  8
0
  6
Continuous
 62
2
100
AcDbMText
 10
183.3776047849
 20
71.17679288499998
 30
0.0
 40
3.0
 41
57.375
 46
0.0
 71
1
  1
型腔依3D加工 保证型腔光洁度\P 
 44
0.9
  0
LINE
  5
323
330
20E
100
AcDbEntity
  8
0
  6
Continuous
 62
2
100
AcDbLine
 10
16.204991683
 20
25.2109238908
 30
0.0
 11
18.1409503899
 21
22.0851870212
 31
0.0
  0
LINE
  5
324
330
20E
100
AcDbEntity
  8
0
  6
Continuous
 62
2
100
AcDbLine
 10
16.204991683
 20
33.2485335757
 30
0.0
 11
18.1409503899
 21
30.1227967061
 31
0.0
  0
LINE
  5
325
330
20E
100
AcDbEntity
  8
0
  6
Continuous
 62
2
100
AcDbLine
 10
16.204991683
 20
40.9884543198
 30
0.0
 11
18.1409503899
 21
37.8627174502
 31
0.0
  0
LINE
  5
326
330
20E
100
AcDbEntity
  8
0
  6
Continuous
 62
7
100
AcDbLine
 10
11.2469185442
 20
200.8695394459
 30
0.0
 11
11.2469185442
 21
12.8626422258
 31
0.0
  0
LINE
  5
327
330
20E
100
AcDbEntity
  8
0
  6
Continuous
 62
2
100
AcDbLine
 10
22.0900088776
 20
12.8626422258
 30
0.0
 11
22.0900088776
 21
43.7150561286
 31
0.0
  0
LINE
  5
328
330
20E
100
AcDbEntity
  8
0
  6
Continuous
 62
2
100
AcDbLine
 10
23.0342382887
 20
200.8695394459
 30
0.0
 11
23.0342382887
 21
179.4154540904
 31
0.0
  0
LINE
  5
329
330
20E
100
AcDbEntity
  8
0
  6
Continuous
 62
2
100
AcDbLine
 10
34.8215580332
 20
200.8695394459
 30
0.0
 11
34.8215580332
 21
179.4154540904
 31
0.0
  0
LINE
  5
32A
330
20E
100
AcDbEntity
  8
0
  6
Continuous
 62
2
100
AcDbLine
 10
36.9344319672
 20
12.8626422258
 30
0.0
 11
36.9344319672
 21
43.7150561286
 31
0.0
  0
LINE
  5
32B
330
20E
100
AcDbEntity
  8
0
  6
Continuous
 62
2
100
AcDbLine
 10
46.6088777777
 20
200.8695394459
 30
0.0
 11
46.6088777777
 21
179.4154540904
 31
0.0
  0
LINE
  5
32C
330
20E
100
AcDbEntity
  8
0
  6
Continuous
 62
7
100
AcDbLine
 10
11.2469185442
 20
12.8626422258
 30
0.0
 11
291.12859889
 21
12.8626422258
 31
0.0
  0
LINE
  5
32D
330
20E
100
AcDbEntity
  8
0
  6
Continuous
 62
2
100
AcDbLine
 10
58.3961975222
 20
200.8695394459
 30
0.0
 11
58.3961975222
 21
179.4154540904
 31
0.0
  0
LINE
  5
32E
330
20E
100
AcDbEntity
  8
0
  6
Continuous
 62
2
100
AcDbLine
 10
93.4901607733
 20
16.7191939636
 30
0.0
 11
126.270850545
 21
16.7191939636
 31
0.0
  0
LINE
  5
32F
330
20E
100
AcDbEntity
  8
0
  6
Continuous
 62
2
100
AcDbLine
 10
11.2469185442
 20
20.5757457015
 30
0.0
 11
291.12859889
 21
20.5757457015
 31
0.0
  0
LINE
  5
330
330
20E
100
AcDbEntity
  8
0
  6
Continuous
 62
2
100
AcDbLine
 10
14.2690329761
 20
22.0851870212
 30
0.0
 11
18.1409503899
 21
22.0851870212
 31
0.0
  0
LINE
  5
331
330
20E
100
AcDbEntity
  8
0
  6
Continuous
 62
2
100
AcDbLine
 10
70.1835172667
 20
200.8695394459
 30
0.0
 11
70.1835172667
 21
179.4154540904
 31
0.0
  0
LINE
  5
332
330
20E
100
AcDbEntity
  8
0
  6
Continuous
 62
2
100
AcDbLine
 10
16.204991683
 20
40.9884543198
 30
0.0
 11
14.2690329761
 21
37.8627174502
 31
0.0
  0
LINE
  5
333
330
20E
100
AcDbEntity
  8
0
  6
Continuous
 62
2
100
AcDbLine
 10
16.204991683
 20
33.2485335757
 30
0.0
 11
14.2690329761
 21
30.1227967061
 31
0.0
  0
LINE
  5
334
330
20E
100
AcDbEntity
  8
0
  6
Continuous
 62
2
100
AcDbLine
 10
93.4901607733
 20
24.4322974393
 30
0.0
 11
126.270850545
 21
24.4322974393
 31
0.0
  0
LINE
  5
335
330
20E
100
AcDbEntity
  8
0
  6
Continuous
 62
2
100
AcDbLine
 10
11.2469185442
 20
28.2888491772
 30
0.0
 11
291.12859889
 21
28.2888491772
 31
0.0
  0
LINE
  5
336
330
20E
100
AcDbEntity
  8
0
  6
Continuous
 62
2
100
AcDbLine
 10
14.2690329761
 20
30.1227967061
 30
0.0
 11
18.1409503899
 21
30.1227967061
 31
0.0
  0
LINE
  5
337
330
20E
100
AcDbEntity
  8
0
  6
Continuous
 62
2
100
AcDbLine
 10
93.4901607733
 20
32.145400915
 30
0.0
 11
126.270850545
 21
32.145400915
 31
0.0
  0
LINE
  5
338
330
20E
100
AcDbEntity
  8
0
  6
Continuous
 62
2
100
AcDbLine
 10
78.7281060864
 20
12.8626422258
 30
0.0
 11
78.7281060864
 21
43.7150561286
 31
0.0
  0
LINE
  5
339
330
20E
100
AcDbEntity
  8
0
  6
Continuous
 62
2
100
AcDbLine
 10
81.9708370112
 20
200.8695394459
 30
0.0
 11
81.9708370112
 21
179.4154540904
 31
0.0
  0
LINE
  5
33A
330
20E
100
AcDbEntity
  8
0
  6
Continuous
 62
2
100
AcDbLine
 10
16.204991683
 20
25.2109238908
 30
0.0
 11
14.2690329761
 21
22.0851870212
 31
0.0
  0
LINE
  5
33B
330
20E
100
AcDbEntity
  8
0
  6
Continuous
 62
2
100
AcDbLine
 10
11.2469185442
 20
36.0019526529
 30
0.0
 11
291.12859889
 21
36.0019526529
 31
0.0
  0
LINE
  5
33C
330
20E
100
AcDbEntity
  8
0
  6
Continuous
 62
2
100
AcDbLine
 10
14.2690329761
 20
37.8627174502
 30
0.0
 11
18.1409503899
 21
37.8627174502
 31
0.0
  0
LINE
  5
33D
330
20E
100
AcDbEntity
  8
0
  6
Continuous
 62
2
100
AcDbLine
 10
11.2469185442
 20
43.7150561286
 30
0.0
 11
291.12859889
 21
43.7150561286
 31
0.0
  0
LINE
  5
33E
330
20E
100
AcDbEntity
  8
0
  6
Continuous
 62
2
100
AcDbLine
 10
93.4901607733
 20
12.8626422258
 30
0.0
 11
93.4901607733
 21
43.7150561286
 31
0.0
  0
LINE
  5
33F
330
20E
100
AcDbEntity
  8
0
  6
Continuous
 62
2
100
AcDbLine
 10
93.75815675570001
 20
200.8695394459
 30
0.0
 11
93.75815675570001
 21
179.4154540904
 31
0.0
  0
LINE
  5
340
330
20E
100
AcDbEntity
  8
0
  6
Continuous
 62
2
100
AcDbLine
 10
105.5454765001
 20
200.8695394459
 30
0.0
 11
105.5454765001
 21
179.4154540904
 31
0.0
  0
LINE
  5
341
330
20E
100
AcDbEntity
  8
0
  6
Continuous
 62
2
100
AcDbLine
 10
109.8805056591
 20
12.8626422258
 30
0.0
 11
109.8805056591
 21
36.0019526529
 31
0.0
  0
LINE
  5
342
330
20E
100
AcDbEntity
  8
0
  6
Continuous
 62
2
100
AcDbLine
 10
117.3327962446
 20
200.8695394459
 30
0.0
 11
117.3327962446
 21
179.4154540904
 31
0.0
  0
LINE
  5
343
330
20E
100
AcDbEntity
  8
0
  6
Continuous
 62
2
100
AcDbLine
 10
118.0756781021
 20
12.8626422258
 30
0.0
 11
118.0756781021
 21
36.0019526529
 31
0.0
  0
LINE
  5
344
330
20E
100
AcDbEntity
  8
0
  6
Continuous
 62
2
100
AcDbLine
 10
126.2708023671
 20
12.8692257965
 30
0.0
 11
126.270850545
 21
43.7150561286
 31
0.0
  0
LINE
  5
345
330
20E
100
AcDbEntity
  8
0
  6
Continuous
 62
2
100
AcDbLine
 10
129.1201159891
 20
200.8695394459
 30
0.0
 11
129.1201159891
 21
179.4154540904
 31
0.0
  0
LINE
  5
346
330
20E
100
AcDbEntity
  8
0
  6
Continuous
 62
2
100
AcDbLine
 10
140.9074357336
 20
200.8695394459
 30
0.0
 11
140.9074357336
 21
179.4154540904
 31
0.0
  0
LINE
  5
347
330
20E
100
AcDbEntity
  8
0
  6
Continuous
 62
7
100
AcDbLine
 10
282.12859889
 20
103.7150561286
 30
0.0
 11
291.12859889
 21
103.7150561286
 31
0.0
  0
LINE
  5
348
330
20E
100
AcDbEntity
  8
0
  6
Continuous
 62
2
100
AcDbLine
 10
152.6947554781
 20
200.8695394459
 30
0.0
 11
152.6947554781
 21
179.4154540904
 31
0.0
  0
LINE
  5
349
330
20E
100
AcDbEntity
  8
0
  6
Continuous
 62
2
100
AcDbLine
 10
164.4820752226
 20
200.8695394459
 30
0.0
 11
164.4820752226
 21
179.4154540904
 31
0.0
  0
LINE
  5
34A
330
20E
100
AcDbEntity
  8
0
  6
Continuous
 62
2
100
AcDbLine
 10
176.2693949671
 20
200.8695394459
 30
0.0
 11
176.2693949671
 21
179.4154540904
 31
0.0
  0
LINE
  5
34B
330
20E
100
AcDbEntity
  8
0
  6
Continuous
 62
2
100
AcDbLine
 10
240.7098252
 20
180.6162460389
 30
0.0
 11
247.2668814722
 21
191.9734006504
 31
0.0
  0
LINE
  5
34C
330
20E
100
AcDbEntity
  8
0
  6
Continuous
 62
2
100
AcDbLine
 10
192.5806120582
 20
12.8696281154
 30
0.0
 11
192.5799221664
 21
43.7150561286
 31
0.0
  0
LINE
  5
34D
330
20E
100
AcDbEntity
  8
0
  6
Continuous
 62
2
100
AcDbLine
 10
212.423472393
 20
12.8626422258
 30
0.0
 11
212.423472393
 21
43.7150561286
 31
0.0
  0
LINE
  5
34E
330
20E
100
AcDbEntity
  8
0
  6
Continuous
 62
2
100
AcDbLine
 10
223.1837330815
 20
200.8695394459
 30
0.0
 11
223.1837330815
 21
192.6743670029999
 31
0.0
  0
LINE
  5
34F
330
20E
100
AcDbEntity
  8
0
  6
Continuous
 62
2
100
AcDbLine
 10
225.1221590684
 20
197.707582093
 30
0.0
 11
225.1221590684
 21
195.3918913493
 31
0.0
  0
LINE
  5
350
330
20E
100
AcDbEntity
  8
0
  6
Continuous
 62
2
100
AcDbLine
 10
232.526680415
 20
199.1068802002
 30
0.0
 11
232.526680415
 21
193.9925932422
 31
0.0
  0
LINE
  5
351
330
20E
100
AcDbEntity
  8
0
  6
Continuous
 62
2
100
AcDbLine
 10
225.1221590684
 20
197.707582093
 30
0.0
 11
232.526680415
 21
199.1068802002
 31
0.0
  0
LINE
  5
352
330
20E
100
AcDbEntity
  8
0
  6
Continuous
 62
2
100
AcDbLine
 10
237.8794397738
 20
185.6775831738
 30
0.0
 11
243.6568639297
 21
185.7206668505
 31
0.0
  0
LINE
  5
353
330
20E
100
AcDbEntity
  8
0
  6
Continuous
 62
2
100
AcDbLine
 10
11.2469185442
 20
179.4154540904
 30
0.0
 11
176.2693949671
 21
179.4154540904
 31
0.0
  0
LINE
  5
354
330
20E
100
AcDbEntity
  8
0
  6
Continuous
 62
2
100
AcDbLine
 10
11.2469185442
 20
183.8265137315
 30
0.0
 11
176.2693949671
 21
183.8265137315
 31
0.0
  0
LINE
  5
355
330
20E
100
AcDbEntity
  8
0
  6
Continuous
 62
2
100
AcDbLine
 10
248.9083432547
 20
184.603185547
 30
0.0
 11
291.12859889
 21
184.603185547
 31
0.0
  0
LINE
  5
356
330
20E
100
AcDbEntity
  8
0
  6
Continuous
 62
2
100
AcDbLine
 10
11.2469185442
 20
188.0872701600999
 30
0.0
 11
176.2693949671
 21
188.0872701600999
 31
0.0
  0
LINE
  5
357
330
20E
100
AcDbEntity
  8
DEFAULT_1
  6
CENTER
 62
7
100
AcDbLine
 10
241.379912093
 20
192.8899220083
 30
0.0
 11
241.379912093
 21
200.2095514341
 31
0.0
  0
LINE
  5
358
330
20E
100
AcDbEntity
  8
0
  6
Continuous
 62
2
100
AcDbLine
 10
11.2469185442
 20
192.3480265887
 30
0.0
 11
176.2693949671
 21
192.3480265887
 31
0.0
  0
LINE
  5
359
330
20E
100
AcDbEntity
  8
0
  6
Continuous
 62
2
100
AcDbLine
 10
223.1837330815
 20
192.6743670029999
 30
0.0
 11
291.12859889
 21
192.6743670029999
 31
0.0
  0
LINE
  5
35A
330
20E
100
AcDbEntity
  8
DEFAULT_1
  6
CENTER
 62
7
100
AcDbLine
 10
245.0419305783
 20
196.5497367212
 30
0.0
 11
237.7178936078
 21
196.5497367212
 31
0.0
  0
LINE
  5
35B
330
20E
100
AcDbEntity
  8
DEFAULT_1
  6
CENTER
 62
7
100
AcDbLine
 10
234.0664905787
 20
196.5497367212
 30
0.0
 11
224.585880723
 21
196.5497367212
 31
0.0
  0
LINE
  5
35C
330
20E
100
AcDbEntity
  8
0
  6
Continuous
 62
2
100
AcDbLine
 10
11.2469185442
 20
196.6087830173
 30
0.0
 11
176.2693949671
 21
196.6087830173
 31
0.0
  0
LINE
  5
35D
330
20E
100
AcDbEntity
  8
0
  6
Continuous
 62
2
100
AcDbLine
 10
223.1837330815
 20
192.6743670029999
 30
0.0
 11
176.1981393525999
 21
192.7056813272
 31
0.0
  0
LINE
  5
35E
330
20E
100
AcDbEntity
  8
0
  6
Continuous
 62
2
100
AcDbLine
 10
248.9083432547
 20
200.8695394459
 30
0.0
 11
248.9083432547
 21
184.603185547
 31
0.0
  0
LINE
  5
35F
330
20E
100
AcDbEntity
  8
0
  6
Continuous
 62
7
100
AcDbLine
 10
11.2469764272
 20
200.869617642
 30
0.0
 11
291.12859889
 21
200.8695394459
 31
0.0
  0
LINE
  5
360
330
20E
100
AcDbEntity
  8
0
  6
Continuous
 62
2
100
AcDbLine
 10
225.1221590684
 20
195.3918913493
 30
0.0
 11
232.526680415
 21
193.9925932422
 31
0.0
  0
LINE
  5
361
330
20E
100
AcDbEntity
  8
0
  6
Continuous
 62
2
100
AcDbLine
 10
270.8817022663
 20
184.603185547
 30
0.0
 11
270.8817022663
 21
200.8695394459
 31
0.0
  0
LINE
  5
362
330
20E
100
AcDbEntity
  8
0
  6
Continuous
 62
2
100
AcDbLine
 10
237.7627864704
 20
185.7206668505
 30
0.0
 11
240.7098252
 21
180.6162460389
 31
0.0
  0
LINE
  5
363
330
20E
100
AcDbEntity
  8
0
  6
Continuous
 62
7
100
AcDbLine
 10
282.12859889
 20
103.7150561286
 30
0.0
 11
282.12859889
 21
184.603185547
 31
0.0
  0
LINE
  5
364
330
20E
100
AcDbEntity
  8
0
  6
Continuous
 62
7
100
AcDbLine
 10
291.12859889
 20
12.8626422258
 30
0.0
 11
291.12859889
 21
200.8695394459
 31
0.0
  0
LINE
  5
365
330
20E
100
AcDbEntity
  8
0
  6
Continuous
 62
2
100
AcDbLine
 10
38.396326669
 20
94.3146096117
 30
0.0
 11
38.396326669
 21
88.3146096117
 31
0.0
  0
LINE
  5
366
330
20E
100
AcDbEntity
  8
0
  6
Continuous
 62
2
100
AcDbLine
 10
46.521326669
 20
88.3146096117
 30
0.0
 11
46.521326669
 21
94.3146096117
 31
0.0
  0
LINE
  5
367
330
20E
100
AcDbEntity
  8
0
  6
Continuous
 62
2
100
AcDbLine
 10
59.34632666899999
 20
88.3146096117
 30
0.0
 11
59.34632666899999
 21
94.3146096117
 31
0.0
  0
LINE
  5
368
330
20E
100
AcDbEntity
  8
0
  6
Continuous
 62
2
100
AcDbLine
 10
62.39022784140001
 20
130.2575958784
 30
0.0
 11
62.39022784140001
 21
108.1075958784
 31
0.0
  0
LINE
  5
369
330
20E
100
AcDbEntity
  8
0
  6
Continuous
 62
2
100
AcDbLine
 10
64.52132666899998
 20
88.3146096117
 30
0.0
 11
64.52132666899998
 21
94.3146096117
 31
0.0
  0
LINE
  5
36A
330
20E
100
AcDbEntity
  8
0
  6
Continuous
 62
2
100
AcDbLine
 10
69.5902278414
 20
108.1075958784
 30
0.0
 11
69.5902278414
 21
130.2575958784
 31
0.0
  0
LINE
  5
36B
330
20E
100
AcDbEntity
  8
02___PRT_ALL_AXES
  6
Continuous
 62
7
100
AcDbLine
 10
119.4104044884
 20
87.93259587840001
 30
0.0
 11
96.4104044884
 21
87.93259587840001
 31
0.0
  0
LINE
  5
36C
330
20E
100
AcDbEntity
  8
0
  6
Continuous
 62
2
100
AcDbLine
 10
38.396326669
 20
88.3146096117
 30
0.0
 11
64.52132666899998
 21
88.3146096117
 31
0.0
  0
LINE
  5
36D
330
20E
100
AcDbEntity
  8
0
  6
Continuous
 62
2
100
AcDbLine
 10
64.52132666899998
 20
94.3146096117
 30
0.0
 11
38.396326669
 21
94.3146096117
 31
0.0
  0
LINE
  5
36E
330
20E
100
AcDbEntity
  8
02___PRT_ALL_AXES
  6
Continuous
 62
7
100
AcDbLine
 10
96.4104044884
 20
95.43259587840001
 30
0.0
 11
83.0104044884
 21
95.43259587840001
 31
0.0
  0
LINE
  5
36F
330
20E
100
AcDbEntity
  8
DEFAULT_2
  6
HIDDEN
 62
8
100
AcDbLine
 10
83.0104044884
 20
134.6700958784
 30
0.0
 11
83.0104044884
 21
103.6950958784
 31
0.0
  0
LINE
  5
370
330
20E
100
AcDbEntity
  8
02___PRT_ALL_AXES
  6
Continuous
 62
7
100
AcDbLine
 10
83.0104044884
 20
142.9325958784
 30
0.0
 11
83.0104044884
 21
95.43259587840001
 31
0.0
  0
LINE
  5
371
330
20E
100
AcDbEntity
  8
DEFAULT_2
  6
HIDDEN
 62
8
100
AcDbLine
 10
86.0104044884
 20
131.6700958784
 30
0.0
 11
86.0104044884
 21
106.6950958784
 31
0.0
  0
LINE
  5
372
330
20E
100
AcDbEntity
  8
DEFAULT_2
  6
HIDDEN
 62
8
100
AcDbLine
 10
88.01040381019999
 20
131.6700958784
 30
0.0
 11
88.01039514640001
 21
106.6950958784
 31
0.0
  0
LINE
  5
373
330
20E
100
AcDbEntity
  8
DEFAULT_2
  6
HIDDEN
 62
8
100
AcDbLine
 10
86.0104044884
 20
106.6950958784
 30
0.0
 11
88.0104044884
 21
106.6950958784
 31
0.0
  0
LWPOLYLINE
  5
374
330
20E
100
AcDbEntity
  8
DEFAULT_2
  6
HIDDEN
 62
8
100
AcDbPolyline
 90
5
 70
0
 10
88.01040448850001
 20
106.6950958784
 10
95.15577563389999
 20
106.586111828
 10
101.9613149838
 20
106.3585972951
 10
108.4000326143
 20
105.8938605984
 10
114.4228024488
 20
104.6339901205
  0
LINE
  5
375
330
20E
100
AcDbEntity
  8
02___PRT_ALL_AXES
  6
Continuous
 62
2
100
AcDbLine
 10
122.1854044884
 20
111.6825958784
 30
0.0
 11
116.6354044884
 21
111.6825958784
 31
0.0
  0
LINE
  5
376
330
20E
100
AcDbEntity
  8
02___PRT_ALL_AXES
  6
Continuous
 62
7
100
AcDbLine
 10
96.4104044884
 20
150.4325958784
 30
0.0
 11
96.4104044884
 21
87.93259587840001
 31
0.0
  0
LINE
  5
377
330
20E
100
AcDbEntity
  8
02___PRT_ALL_AXES
  6
Continuous
 62
2
100
AcDbLine
 10
116.6354044884
 20
117.6825958784
 30
0.0
 11
122.1854044884
 21
117.6825958784
 31
0.0
  0
LINE
  5
378
330
20E
100
AcDbEntity
  8
02___PRT_ALL_AXES
  6
CENTER
 62
2
100
AcDbLine
 10
49.81358596159999
 20
119.1825958784
 30
0.0
 11
120.4104044884
 21
119.1825958784
 31
0.0
  0
LINE
  5
379
330
20E
100
AcDbEntity
  8
DEFAULT_2
  6
HIDDEN
 62
8
100
AcDbLine
 10
88.0104044884
 20
119.1825958784
 30
0.0
 11
119.4104044884
 21
119.1825958784
 31
0.0
  0
LWPOLYLINE
  5
37A
330
20E
100
AcDbEntity
  8
DEFAULT_2
  6
HIDDEN
 62
8
100
AcDbPolyline
 90
5
 70
0
 10
114.4228024488
 20
133.7312016363
 10
108.4000552156
 20
132.4713343194
 10
101.9613596549
 20
132.0065965103
 10
95.15584341
 20
131.7790815516
 10
88.01040448850001
 20
131.6700958784
  0
LINE
  5
37B
330
20E
100
AcDbEntity
  8
DEFAULT_2
  6
HIDDEN
 62
8
100
AcDbLine
 10
114.4228026377
 20
133.7312016815
 30
0.0
 11
114.4228026379
 21
104.6339900753
 31
0.0
  0
LINE
  5
37C
330
20E
100
AcDbEntity
  8
DEFAULT_2
  6
HIDDEN
 62
8
100
AcDbLine
 10
86.0104044884
 20
131.6700958784
 30
0.0
 11
88.0104044884
 21
131.6700958784
 31
0.0
  0
LINE
  5
37D
330
20E
100
AcDbEntity
  8
02___PRT_ALL_AXES
  6
Continuous
 62
2
100
AcDbLine
 10
116.6354044884
 20
111.6825958784
 30
0.0
 11
116.6354044884
 21
117.6825958784
 31
0.0
  0
LINE
  5
37E
330
20E
100
AcDbEntity
  8
DEFAULT_2
  6
HIDDEN
 62
8
100
AcDbLine
 10
119.4104044884
 20
140.0527983417
 30
0.0
 11
119.4104044884
 21
98.3123934152
 31
0.0
  0
LINE
  5
37F
330
20E
100
AcDbEntity
  8
02___PRT_ALL_AXES
  6
Continuous
 62
7
100
AcDbLine
 10
119.4104044884
 20
150.4325958784
 30
0.0
 11
119.4104044884
 21
87.93259587840001
 31
0.0
  0
LINE
  5
380
330
20E
100
AcDbEntity
  8
02___PRT_ALL_AXES
  6
Continuous
 62
2
100
AcDbLine
 10
122.1854044884
 20
117.6825958784
 30
0.0
 11
122.1854044884
 21
111.6825958784
 31
0.0
  0
LINE
  5
381
330
20E
100
AcDbEntity
  8
02___PRT_ALL_AXES
  6
Continuous
 62
7
100
AcDbLine
 10
96.4104044884
 20
142.9325958784
 30
0.0
 11
83.0104044884
 21
142.9325958784
 31
0.0
  0
LINE
  5
382
330
20E
100
AcDbEntity
  8
02___PRT_ALL_AXES
  6
Continuous
 62
7
100
AcDbLine
 10
119.4104044884
 20
150.4325958784
 30
0.0
 11
96.4104044884
 21
150.4325958784
 31
0.0
  0
LINE
  5
383
330
20E
100
AcDbEntity
  8
0
  6
Continuous
 62
2
100
AcDbLine
 10
144.9323780889
 20
127.1675958784
 30
0.0
 11
144.9323780889
 21
111.1975958784
 31
0.0
  0
LINE
  5
384
330
20E
100
AcDbEntity
  8
0
  6
Continuous
 62
2
100
AcDbLine
 10
152.1323780889
 20
111.1975958784
 30
0.0
 11
152.1323780889
 21
127.1675958784
 31
0.0
  0
LINE
  5
385
330
20E
100
AcDbEntity
  8
02___PRT_ALL_AXES
  6
CENTER
 62
2
100
AcDbLine
 10
227.0716993782
 20
119.1825958784
 30
0.0
 11
227.0716993782
 21
86.93259587840001
 31
0.0
  0
LINE
  5
386
330
20E
100
AcDbEntity
  8
02___PRT_ALL_AXES
  6
CENTER
 62
2
100
AcDbLine
 10
227.0716993782
 20
119.1825958784
 30
0.0
 11
227.0716993782
 21
151.4325958784
 31
0.0
  0
LINE
  5
387
330
20E
100
AcDbEntity
  8
02___PRT_ALL_AXES
  6
CENTER
 62
2
100
AcDbLine
 10
227.0716993782
 20
119.1825958784
 30
0.0
 11
194.8216993782
 21
119.1825958784
 31
0.0
  0
LINE
  5
388
330
20E
100
AcDbEntity
  8
DEFAULT_2
  6
HIDDEN
 62
8
100
AcDbLine
 10
206.2014915757
 20
119.1825958784
 30
0.0
 11
214.5841993782
 21
119.1825958784
 31
0.0
  0
LINE
  5
389
330
20E
100
AcDbEntity
  8
02___PRT_ALL_AXES
  6
CENTER
 62
2
100
AcDbLine
 10
227.0716993782
 20
119.1825958784
 30
0.0
 11
259.3216993782
 21
119.1825958784
 31
0.0
  0
LINE
  5
38A
330
20E
100
AcDbEntity
  8
DEFAULT_2
  6
HIDDEN
 62
8
100
AcDbLine
 10
239.5591993782
 20
119.1825958784
 30
0.0
 11
247.9419071806
 21
119.1825958784
 31
0.0
  0
LINE
  5
38B
330
20E
100
AcDbEntity
  8
02___PRT_ALL_AXES
  6
Continuous
 62
2
100
AcDbLine
 10
232.6216993782
 20
125.1825958784
 30
0.0
 11
232.6216993782
 21
119.1825958784
 31
0.0
  0
LINE
  5
38C
330
20E
100
AcDbEntity
  8
02___PRT_ALL_AXES
  6
Continuous
 62
2
100
AcDbLine
 10
227.0716993782
 20
125.1825958784
 30
0.0
 11
232.6216993782
 21
125.1825958784
 31
0.0
  0
CIRCLE
  5
38D
330
20E
100
AcDbEntity
  8
0
  6
Continuous
 62
2
100
AcDbCircle
 10
241.379912093
 20
196.5497367212
 30
0.0
 40
2.557143479
  0
CIRCLE
  5
38E
330
20E
100
AcDbEntity
  8
0
  6
Continuous
 62
2
100
AcDbCircle
 10
241.379912093
 20
196.5497367212
 30
0.0
 40
1.1578453718
  0
ARC
  5
38F
330
20E
100
AcDbEntity
  8
DEFAULT_2
  6
HIDDEN
 62
8
100
AcDbCircle
 10
112.9104044884
 20
98.31239024170002
 30
0.0
 40
6.4999984107
100
AcDbArc
 50
0.1491049091
 51
76.545289239
  0
ARC
  5
390
330
20E
100
AcDbEntity
  8
DEFAULT_2
  6
HIDDEN
 62
8
100
AcDbCircle
 10
112.9104044884
 20
140.0528015152
 30
0.0
 40
6.4999984107
100
AcDbArc
 50
283.454710761
 51
359.8508950693
  0
ARC
  5
391
330
20E
100
AcDbEntity
  8
0
  6
Continuous
 62
2
100
AcDbCircle
 10
148.5323780889
 20
127.1675958784
 30
0.0
 40
3.6
100
AcDbArc
 50
0.0
 51
180.0
  0
ARC
  5
392
330
20E
100
AcDbEntity
  8
0
  6
Continuous
 62
2
100
AcDbCircle
 10
148.5323780889
 20
111.1975958784
 30
0.0
 40
3.6
100
AcDbArc
 50
180.0
 51
360.0
  0
ARC
  5
393
330
20E
100
AcDbEntity
  8
0
  6
Continuous
 62
2
100
AcDbCircle
 10
65.9902278414
 20
130.2575958784
 30
0.0
 40
3.6
100
AcDbArc
 50
0.0
 51
180.0
  0
ARC
  5
394
330
20E
100
AcDbEntity
  8
0
  6
Continuous
 62
2
100
AcDbCircle
 10
65.9902278414
 20
108.1075958784
 30
0.0
 40
3.6
100
AcDbArc
 50
180.0
 51
360.0
  0
ARC
  5
395
330
20E
100
AcDbEntity
  8
DEFAULT_2
  6
HIDDEN
 62
8
100
AcDbCircle
 10
86.0104044884
 20
134.6700958784
 30
0.0
 40
3.0
100
AcDbArc
 50
180.0
 51
270.0
  0
ARC
  5
396
330
20E
100
AcDbEntity
  8
DEFAULT_2
  6
HIDDEN
 62
8
100
AcDbCircle
 10
86.0104044884
 20
103.6950958784
 30
0.0
 40
3.0
100
AcDbArc
 50
90.0
 51
180.0
  0
CIRCLE
  5
397
330
20E
100
AcDbEntity
  8
02___PRT_ALL_AXES
  6
Continuous
 62
7
100
AcDbCircle
 10
227.0716993782
 20
119.1825958784
 30
0.0
 40
31.25
  0
CIRCLE
  5
398
330
20E
100
AcDbEntity
  8
02___PRT_ALL_AXES
  6
Continuous
 62
7
100
AcDbCircle
 10
227.0716993782
 20
119.1825958784
 30
0.0
 40
23.75
  0
CIRCLE
  5
399
330
20E
100
AcDbEntity
  8
DEFAULT_2
  6
HIDDEN
 62
8
100
AcDbCircle
 10
227.0716993782
 20
119.1825976031
 30
0.0
 40
20.8702078024
  0
CIRCLE
  5
39A
330
20E
100
AcDbEntity
  8
0
  6
Continuous
 62
7
100
AcDbCircle
 10
227.0716993782
 20
119.1825958784
 30
0.0
 40
15.4875
  0
CIRCLE
  5
39B
330
20E
100
AcDbEntity
  8
DEFAULT_2
  6
HIDDEN
 62
8
100
AcDbCircle
 10
227.0716993782
 20
119.1825958784
 30
0.0
 40
14.5485939566
  0
CIRCLE
  5
39C
330
20E
100
AcDbEntity
  8
0
  6
Continuous
 62
7
100
AcDbCircle
 10
227.0716993782
 20
119.1825958784
 30
0.0
 40
12.4875
  0
ENDSEC
  0
SECTION
  2
OBJECTS
  0
DICTIONARY
  5
C
330
0
100
AcDbDictionary
280
1
281
1
  3
ACAD_BACKGROUND
350
4CC
  3
ACAD_CIP_PREVIOUS_PRODUCT_INFO
350
3FD
  3
ACAD_COLOR
350
3D8
  3
ACAD_DETAILVIEWSTYLE
350
3EF
  3
ACAD_GROUP
350
D
  3
ACAD_LAST_SAVED_VERSION_INFO
350
4CF
  3
ACAD_LAYOUT
350
1A
  3
ACAD_MATERIAL
350
3A6
  3
ACAD_MLEADERSTYLE
350
3EB
  3
ACAD_MLINESTYLE
350
17
  3
ACAD_PLOTSETTINGS
350
19
  3
ACAD_PLOTSTYLENAME
350
E
  3
ACAD_SCALELIST
350
3D9
  3
ACAD_SECTIONVIEWSTYLE
350
3ED
  3
ACAD_TABLESTYLE
350
39D
  3
ACAD_VISUALSTYLE
350
3BF
  3
ACDB_RECOMPOSE_DATA
350
4DB
  3
AcDbVariableDictionary
350
3F1
  3
EZDXF_META
350
4F0
  0
DICTIONARY
  5
4C0
330
2
100
AcDbDictionary
280
1
281
1
  3
ACAD_LAYERSTATES
360
4C1
  0
DICTIONARY
  5
4CC
102
{ACAD_REACTORS
330
C
102
}
330
C
100
AcDbDictionary
280
1
281
1
  0
XRECORD
  5
3FD
102
{ACAD_REACTORS
330
C
102
}
330
C
100
AcDbXrecord
280
1
300
ACDMAC
300
2025
300

  0
DICTIONARY
  5
3D8
102
{ACAD_REACTORS
330
C
102
}
330
C
100
AcDbDictionary
280
1
281
1
  0
DICTIONARY
  5
3EF
102
{ACAD_REACTORS
330
C
102
}
330
C
100
AcDbDictionary
280
1
281
1
  3
Metric50
350
3F0
  0
DICTIONARY
  5
D
102
{ACAD_REACTORS
330
C
102
}
330
C
100
AcDbDictionary
280
1
281
1
  0
XRECORD
  5
4CF
102
{ACAD_REACTORS
330
C
102
}
330
C
100
AcDbXrecord
280
1
300
{B990C640-BF2D-4845-B3EA-F7742CB55AB1}
301
{362D060D-E421-B841-8804-EFD972752BFE}
302
{B990C640-BF2D-4845-B3EA-F7742CB55AB1}
303
/Users/seanwong/Desktop/GIANT/模具计算参考资料/抽套膜.dxf
  0
DICTIONARY
  5
1A
102
{ACAD_REACTORS
330
C
102
}
330
C
100
AcDbDictionary
280
1
281
1
  3
Layout1
350
39F
  3
Model
350
39E
  0
DICTIONARY
  5
3A6
102
{ACAD_REACTORS
330
C
102
}
330
C
100
AcDbDictionary
280
1
281
1
  3
ByBlock
350
3AF
  3
ByLayer
350
3A7
  3
Global
350
3B7
  0
DICTIONARY
  5
3EB
102
{ACAD_REACTORS
330
C
102
}
330
C
100
AcDbDictionary
280
1
281
1
  3
Standard
350
3EC
  0
DICTIONARY
  5
17
102
{ACAD_REACTORS
330
C
102
}
330
C
100
AcDbDictionary
280
1
281
1
  3
Standard
350
18
  0
DICTIONARY
  5
19
102
{ACAD_REACTORS
330
C
102
}
330
C
100
AcDbDictionary
280
1
281
1
  0
ACDBDICTIONARYWDFLT
  5
E
102
{ACAD_REACTORS
330
C
102
}
330
C
100
AcDbDictionary
280
1
281
1
  3
Normal
350
F
100
AcDbDictionaryWithDefault
340
F
  0
DICTIONARY
  5
3D9
102
{ACAD_REACTORS
330
C
102
}
330
C
100
AcDbDictionary
280
1
281
1
  3
A0
350
3DA
  3
A1
350
3DB
  3
A2
350
3DC
  3
A3
350
3DD
  3
A4
350
3DE
  3
A5
350
3DF
  3
A6
350
3E0
  3
A7
350
3E1
  3
A8
350
3E2
  3
A9
350
3E3
  3
B0
350
3E4
  3
B1
350
3E5
  3
B2
350
3E6
  3
B3
350
3E7
  3
B4
350
3E8
  3
B5
350
3E9
  3
B6
350
3EA
  0
DICTIONARY
  5
3ED
102
{ACAD_REACTORS
330
C
102
}
330
C
100
AcDbDictionary
280
1
281
1
  3
Metric50
350
3EE
  0
DICTIONARY
  5
39D
330
C
100
AcDbDictionary
280
1
281
1
  3
Standard
350
3A0
  3
Standard1
350
3A1
  0
DICTIONARY
  5
3BF
102
{ACAD_REACTORS
330
C
102
}
330
C
100
AcDbDictionary
280
1
281
1
  3
2dWireframe
350
3C5
  3
Basic
350
3C4
  3
Brighten
350
3CB
  3
ColorChange
350
3CF
  3
Conceptual
350
3C8
  3
Dim
350
3CA
  3
EdgeColorOff
350
3D7
  3
Facepattern
350
3CE
  3
Flat
350
3C0
  3
FlatWithEdges
350
3C1
  3
Gouraud
350
3C2
  3
GouraudWithEdges
350
3C3
  3
Hidden
350
3C7
  3
JitterOff
350
3D5
  3
Linepattern
350
3CD
  3
OverhangOff
350
3D6
  3
Realistic
350
3C9
  3
Shaded
350
3D4
  3
Shaded with edges
350
3D3
  3
Shades of Gray
350
3D0
  3
Sketchy
350
3D1
  3
Thicken
350
3CC
  3
Wireframe
350
3C6
  3
X-Ray
350
3D2
  0
XRECORD
  5
4DB
102
{ACAD_REACTORS
330
C
102
}
330
C
100
AcDbXrecord
280
1
 90
1
330
3A0
330
3A1
  0
DICTIONARY
  5
3F1
102
{ACAD_REACTORS
330
C
102
}
330
C
100
AcDbDictionary
280
1
281
1
  3
CANNOSCALE
350
3F6
  3
CMLEADERSTYLE
350
3F3
  3
CTABLESTYLE
350
3F2
  3
CVIEWDETAILSTYLE
350
3F4
  3
CVIEWSECTIONSTYLE
350
3F5
  0
DICTIONARY
  5
4C1
102
{ACAD_REACTORS
330
4C0
102
}
330
4C0
100
AcDbDictionary
280
1
281
1
  0
ACDBDETAILVIEWSTYLE
  5
3F0
102
{ACAD_REACTORS
330
3EF
102
}
330
3EF
100
AcDbModelDocViewStyle
 70
0
  3
Metric50
290
0
300
Metric50
 90
0
100
AcDbDetailViewStyle
 70
0
 71
0
 90
3
 71
1
340
11
 62
256
 40
5.0
340
0
 62
256
 40
5.0
300

 40
0.0
280
1
 71
2
340
16
 90
25
 62
256
 71
3
340
11
 62
256
 40
5.0
 90
0
 40
15.0
 90
1
300
%<\AcVar ViewDetailId>% (%<\AcVar ViewScale \f "%sn">%)
 71
4
340
16
 90
25
 62
256
340
16
 90
25
 62
256
280
0
  0
LAYOUT
  5
39F
102
{ACAD_REACTORS
330
1A
102
}
330
1A
100
AcDbPlotSettings
  1

  2
none_device
  4
ISO_A4_(297.00_x_210.00_MM)
  6

 40
0.0
 41
0.0
 42
0.0
 43
0.0
 44
297.0
 45
210.0
 46
0.0
 47
0.0
 48
0.0
 49
0.0
140
0.0
141
0.0
142
1.0
143
1.0
 70
0
 72
1
 73
0
 74
0
  7

 75
0
 76
0
 77
2
 78
300
147
1.0
148
0.0
149
0.0
100
AcDbLayout
  1
Layout1
 70
1
 71
1
 10
0.0
 20
0.0
 11
12.0
 21
9.0
 12
0.0
 22
0.0
 32
0.0
 14
1e+20
 24
1e+20
 34
1e+20
 15
-1e+20
 25
-1e+20
 35
-1e+20
146
0.0
 13
0.0
 23
0.0
 33
0.0
 16
1.0
 26
0.0
 36
0.0
 17
0.0
 27
1.0
 37
0.0
 76
0
330
20F
  0
LAYOUT
  5
39E
102
{ACAD_REACTORS
330
1A
102
}
330
1A
100
AcDbPlotSettings
  1

  2
none_device
  4
ISO_A4_(297.00_x_210.00_MM)
  6

 40
0.0
 41
0.0
 42
0.0
 43
0.0
 44
297.0
 45
210.0
 46
0.0
 47
0.0
 48
0.0
 49
0.0
140
0.0
141
0.0
142
1.0
143
1.0
 70
1024
 72
1
 73
0
 74
0
  7

 75
0
 76
0
 77
2
 78
300
147
1.0
148
0.0
149
0.0
100
AcDbLayout
  1
Model
 70
0
 71
0
 10
0.0
 20
0.0
 11
297.0
 21
210.0
 12
0.0
 22
0.0
 32
0.0
 14
0.0
 24
0.0
 34
0.0
 15
0.0
 25
0.0
 35
0.0
146
0.0
 13
0.0
 23
0.0
 33
0.0
 16
1.0
 26
0.0
 36
0.0
 17
0.0
 27
1.0
 37
0.0
 76
0
330
20E
331
1F4
  0
MATERIAL
  5
3AF
102
{ACAD_XDICTIONARY
360
3B0
102
}
102
{ACAD_REACTORS
330
3A6
102
}
330
3A6
100
AcDbMaterial
  1
ByBlock
  2

 70
0
 40
1.0
 71
0
 41
1.0
 91
-1023410177
 42
1.0
 72
0
  3

 73
1
 74
1
 75
1
 43
0.0008202099737533
 43
0.0
 43
0.0
 43
0.0
 43
0.0
 43
0.0008202099737533
 43
0.0
 43
0.0
 43
0.0
 43
0.0
 43
1.0
 43
0.0
 43
0.0
 43
0.0
 43
0.0
 43
1.0
 44
0.5
 73
0
 45
1.0
 46
1.0
 77
0
  4

 78
1
 79
1
170
1
 47
0.0008202099737533
 47
0.0
 47
0.0
 47
0.0
 47
0.0
 47
0.0008202099737533
 47
0.0
 47
0.0
 47
0.0
 47
0.0
 47
1.0
 47
0.0
 47
0.0
 47
0.0
 47
0.0
 47
1.0
 48
1.0
171
0
  6

172
1
173
1
174
1
 49
0.0008202099737533
 49
0.0
 49
0.0
 49
0.0
 49
0.0
 49
0.0008202099737533
 49
0.0
 49
0.0
 49
0.0
 49
0.0
 49
1.0
 49
0.0
 49
0.0
 49
0.0
 49
0.0
 49
1.0
140
1.0
141
1.0
175
0
  7

176
1
177
1
178
1
142
0.0008202099737533
142
0.0
142
0.0
142
0.0
142
0.0
142
0.0008202099737533
142
0.0
142
0.0
142
0.0
142
0.0
142
1.0
142
0.0
142
0.0
142
0.0
142
0.0
142
1.0
143
1.0
179
0
  8

270
1
271
1
272
1
144
0.0008202099737533
144
0.0
144
0.0
144
0.0
144
0.0
144
0.0008202099737533
144
0.0
144
0.0
144
0.0
144
0.0
144
1.0
144
0.0
144
0.0
144
0.0
144
0.0
144
1.0
145
1.0
146
1.0
273
1
  9

274
1
275
1
276
1
147
0.0008202099737533
147
0.0
147
0.0
147
0.0
147
0.0
147
0.0008202099737533
147
0.0
147
0.0
147
0.0
147
0.0
147
1.0
147
0.0
147
0.0
147
0.0
147
0.0
147
1.0
 42
1.0
 72
1
  3

 73
1
 74
1
 75
1
 94
63
  0
MATERIAL
  5
3A7
102
{ACAD_XDICTIONARY
360
3A8
102
}
102
{ACAD_REACTORS
330
3A6
102
}
330
3A6
100
AcDbMaterial
  1
ByLayer
  2

 70
0
 40
1.0
 71
0
 41
1.0
 91
-1023410177
 42
1.0
 72
0
  3

 73
1
 74
1
 75
1
 43
0.0008202099737533
 43
0.0
 43
0.0
 43
0.0
 43
0.0
 43
0.0008202099737533
 43
0.0
 43
0.0
 43
0.0
 43
0.0
 43
1.0
 43
0.0
 43
0.0
 43
0.0
 43
0.0
 43
1.0
 44
0.5
 73
0
 45
1.0
 46
1.0
 77
0
  4

 78
1
 79
1
170
1
 47
0.0008202099737533
 47
0.0
 47
0.0
 47
0.0
 47
0.0
 47
0.0008202099737533
 47
0.0
 47
0.0
 47
0.0
 47
0.0
 47
1.0
 47
0.0
 47
0.0
 47
0.0
 47
0.0
 47
1.0
 48
1.0
171
0
  6

172
1
173
1
174
1
 49
0.0008202099737533
 49
0.0
 49
0.0
 49
0.0
 49
0.0
 49
0.0008202099737533
 49
0.0
 49
0.0
 49
0.0
 49
0.0
 49
1.0
 49
0.0
 49
0.0
 49
0.0
 49
0.0
 49
1.0
140
1.0
141
1.0
175
0
  7

176
1
177
1
178
1
142
0.0008202099737533
142
0.0
142
0.0
142
0.0
142
0.0
142
0.0008202099737533
142
0.0
142
0.0
142
0.0
142
0.0
142
1.0
142
0.0
142
0.0
142
0.0
142
0.0
142
1.0
143
1.0
179
0
  8

270
1
271
1
272
1
144
0.0008202099737533
144
0.0
144
0.0
144
0.0
144
0.0
144
0.0008202099737533
144
0.0
144
0.0
144
0.0
144
0.0
144
1.0
144
0.0
144
0.0
144
0.0
144
0.0
144
1.0
145
1.0
146
1.0
273
1
  9

274
1
275
1
276
1
147
0.0008202099737533
147
0.0
147
0.0
147
0.0
147
0.0
147
0.0008202099737533
147
0.0
147
0.0
147
0.0
147
0.0
147
1.0
147
0.0
147
0.0
147
0.0
147
0.0
147
1.0
 42
1.0
 72
1
  3

 73
1
 74
1
 75
1
 94
63
  0
MATERIAL
  5
3B7
102
{ACAD_XDICTIONARY
360
3B8
102
}
102
{ACAD_REACTORS
330
3A6
102
}
330
3A6
100
AcDbMaterial
  1
Global
  2

 70
0
 40
1.0
 71
0
 41
1.0
 91
-1023410177
 42
1.0
 72
0
  3

 73
1
 74
1
 75
1
 43
0.0008202099737533
 43
0.0
 43
0.0
 43
0.0
 43
0.0
 43
0.0008202099737533
 43
0.0
 43
0.0
 43
0.0
 43
0.0
 43
1.0
 43
0.0
 43
0.0
 43
0.0
 43
0.0
 43
1.0
 44
0.5
 73
0
 45
1.0
 46
1.0
 77
0
  4

 78
1
 79
1
170
1
 47
0.0008202099737533
 47
0.0
 47
0.0
 47
0.0
 47
0.0
 47
0.0008202099737533
 47
0.0
 47
0.0
 47
0.0
 47
0.0
 47
1.0
 47
0.0
 47
0.0
 47
0.0
 47
0.0
 47
1.0
 48
1.0
171
0
  6

172
1
173
1
174
1
 49
0.0008202099737533
 49
0.0
 49
0.0
 49
0.0
 49
0.0
 49
0.0008202099737533
 49
0.0
 49
0.0
 49
0.0
 49
0.0
 49
1.0
 49
0.0
 49
0.0
 49
0.0
 49
0.0
 49
1.0
140
1.0
141
1.0
175
0
  7

176
1
177
1
178
1
142
0.0008202099737533
142
0.0
142
0.0
142
0.0
142
0.0
142
0.0008202099737533
142
0.0
142
0.0
142
0.0
142
0.0
142
1.0
142
0.0
142
0.0
142
0.0
142
0.0
142
1.0
143
1.0
179
0
  8

270
1
271
1
272
1
144
0.0008202099737533
144
0.0
144
0.0
144
0.0
144
0.0
144
0.0008202099737533
144
0.0
144
0.0
144
0.0
144
0.0
144
1.0
144
0.0
144
0.0
144
0.0
144
0.0
144
1.0
145
1.0
146
1.0
273
1
  9

274
1
275
1
276
1
147
0.0008202099737533
147
0.0
147
0.0
147
0.0
147
0.0
147
0.0008202099737533
147
0.0
147
0.0
147
0.0
147
0.0
147
1.0
147
0.0
147
0.0
147
0.0
147
0.0
147
1.0
 42
1.0
 72
1
  3

 73
1
 74
1
 75
1
 94
63
  0
MLEADERSTYLE
  5
3EC
102
{ACAD_REACTORS
330
3EB
102
}
330
3EB
100
AcDbMLeaderStyle
179
2
170
2
171
1
172
0
 90
2
 40
0.0
 41
0.0
173
1
 91
-1056964608
340
14
 92
-2
290
1
 42
2.0
291
1
 43
0.36
  3
Standard
 44
4.0
300

342
11
174
1
175
1
176
0
178
6
 93
-1056964608
 45
4.0
292
0
297
0
 46
4.0
293
1
 94
-1056964608
 47
1.0
 49
1.0
140
1.0
294
1
141
0.0
177
0
142
1.0
295
0
296
0
143
0.125
271
0
272
9
273
9
298
1
  0
MLINESTYLE
  5
18
102
{ACAD_REACTORS
330
17
102
}
330
17
100
AcDbMlineStyle
  2
STANDARD
 70
0
  3

 62
256
 51
90.0
 52
90.0
 71
2
 49
0.5
 62
256
  6
BYLAYER
 49
-0.5
 62
256
  6
BYLAYER
  0
ACDBPLACEHOLDER
  5
F
102
{ACAD_REACTORS
330
E
102
}
330
E
  0
SCALE
  5
3DA
102
{ACAD_REACTORS
330
3D9
102
}
330
3D9
100
AcDbScale
 70
0
300
1:1
140
1.0
141
1.0
290
1
  0
SCALE
  5
3DB
102
{ACAD_REACTORS
330
3D9
102
}
330
3D9
100
AcDbScale
 70
0
300
1:2
140
1.0
141
2.0
290
0
  0
SCALE
  5
3DC
102
{ACAD_REACTORS
330
3D9
102
}
330
3D9
100
AcDbScale
 70
0
300
1:4
140
1.0
141
4.0
290
0
  0
SCALE
  5
3DD
102
{ACAD_REACTORS
330
3D9
102
}
330
3D9
100
AcDbScale
 70
0
300
1:5
140
1.0
141
5.0
290
0
  0
SCALE
  5
3DE
102
{ACAD_REACTORS
330
3D9
102
}
330
3D9
100
AcDbScale
 70
0
300
1:8
140
1.0
141
8.0
290
0
  0
SCALE
  5
3DF
102
{ACAD_REACTORS
330
3D9
102
}
330
3D9
100
AcDbScale
 70
0
300
1:10
140
1.0
141
10.0
290
0
  0
SCALE
  5
3E0
102
{ACAD_REACTORS
330
3D9
102
}
330
3D9
100
AcDbScale
 70
0
300
1:16
140
1.0
141
16.0
290
0
  0
SCALE
  5
3E1
102
{ACAD_REACTORS
330
3D9
102
}
330
3D9
100
AcDbScale
 70
0
300
1:20
140
1.0
141
20.0
290
0
  0
SCALE
  5
3E2
102
{ACAD_REACTORS
330
3D9
102
}
330
3D9
100
AcDbScale
 70
0
300
1:30
140
1.0
141
30.0
290
0
  0
SCALE
  5
3E3
102
{ACAD_REACTORS
330
3D9
102
}
330
3D9
100
AcDbScale
 70
0
300
1:40
140
1.0
141
40.0
290
0
  0
SCALE
  5
3E4
102
{ACAD_REACTORS
330
3D9
102
}
330
3D9
100
AcDbScale
 70
0
300
1:50
140
1.0
141
50.0
290
0
  0
SCALE
  5
3E5
102
{ACAD_REACTORS
330
3D9
102
}
330
3D9
100
AcDbScale
 70
0
300
1:100
140
1.0
141
100.0
290
0
  0
SCALE
  5
3E6
102
{ACAD_REACTORS
330
3D9
102
}
330
3D9
100
AcDbScale
 70
0
300
2:1
140
2.0
141
1.0
290
0
  0
SCALE
  5
3E7
102
{ACAD_REACTORS
330
3D9
102
}
330
3D9
100
AcDbScale
 70
0
300
4:1
140
4.0
141
1.0
290
0
  0
SCALE
  5
3E8
102
{ACAD_REACTORS
330
3D9
102
}
330
3D9
100
AcDbScale
 70
0
300
8:1
140
8.0
141
1.0
290
0
  0
SCALE
  5
3E9
102
{ACAD_REACTORS
330
3D9
102
}
330
3D9
100
AcDbScale
 70
0
300
10:1
140
10.0
141
1.0
290
0
  0
SCALE
  5
3EA
102
{ACAD_REACTORS
330
3D9
102
}
330
3D9
100
AcDbScale
 70
0
300
100:1
140
100.0
141
1.0
290
0
  0
ACDBSECTIONVIEWSTYLE
  5
3EE
102
{ACAD_REACTORS
330
3ED
102
}
330
3ED
100
AcDbModelDocViewStyle
 70
0
  3
Metric50
290
0
300
Metric50
 90
0
100
AcDbSectionViewStyle
 70
0
 71
0
 90
102
 71
1
340
11
 62
256
 40
5.0
340
0
340
0
 62
256
 40
5.0
300
I, O, Q, S, X, Z
 40
10.0
 90
0
 40
2.5
 90
0
 71
2
340
16
 90
25
 62
256
340
16
 90
50
 62
256
 40
5.0
 40
2.5
 40
5.0
 71
3
340
11
 62
256
 40
5.0
 90
0
 40
15.0
 90
1
300
%<\AcVar ViewSectionStartId>%-%<\AcVar ViewSectionEndId>% (%<\AcVar ViewScale \f "%sn">%)
 71
4
 62
256
 62
257
300
ANSI31
 40
1.0
 90
0
290
0
290
0
 90
6
 40
0.0
 40
1.570796326794896
 40
0.2617993877991494
 40
1.308996938995747
 40
-0.2617993877991494
 40
1.832595714594046
  0
TABLESTYLE
  5
3A0
102
{ACAD_XDICTIONARY
360
4D7
102
}
102
{ACAD_REACTORS
330
320
330
321
330
39D
102
}
330
39D
100
AcDbTableStyle
280
0
  3
Standard
 70
0
 71
0
 40
0.06
 41
0.06
280
0
281
0
  7
STANDARD
140
0.18
170
1
 62
0
 63
7
283
0
 90
512
 91
0
  1

274
-2
284
1
 64
0
275
-2
285
1
 65
0
276
-2
286
1
 66
0
277
-2
287
1
 67
0
278
-2
288
1
 68
0
279
-2
289
1
 69
0
  7
STANDARD
140
0.18
170
1
 62
0
 63
7
283
0
 90
512
 91
0
  1

274
-2
284
1
 64
0
275
-2
285
1
 65
0
276
-2
286
1
 66
0
277
-2
287
1
 67
0
278
-2
288
1
 68
0
279
-2
289
1
 69
0
  7
STANDARD
140
0.18
170
1
 62
0
 63
7
283
0
 90
512
 91
0
  1

274
-2
284
1
 64
0
275
-2
285
1
 65
0
276
-2
286
1
 66
0
277
-2
287
1
 67
0
278
-2
288
1
 68
0
279
-2
289
1
 69
0
  0
TABLESTYLE
  5
3A1
102
{ACAD_XDICTIONARY
360
4D9
102
}
102
{ACAD_REACTORS
330
39D
102
}
330
39D
100
AcDbTableStyle
280
0
  3
Standard1
 70
1
 71
0
 40
0.06
 41
0.06
280
0
281
0
  7
STANDARD
140
0.18
170
1
 62
0
 63
7
283
0
 90
512
 91
0
  1

274
-2
284
1
 64
0
275
-2
285
1
 65
0
276
-2
286
1
 66
0
277
-2
287
1
 67
0
278
-2
288
1
 68
0
279
-2
289
1
 69
0
  7
STANDARD
140
0.18
170
1
 62
0
 63
7
283
0
 90
512
 91
0
  1

274
-2
284
1
 64
0
275
-2
285
1
 65
0
276
-2
286
1
 66
0
277
-2
287
1
 67
0
278
-2
288
1
 68
0
279
-2
289
1
 69
0
  7
STANDARD
140
0.18
170
1
 62
0
 63
7
283
0
 90
512
 91
0
  1

274
-2
284
1
 64
0
275
-2
285
1
 65
0
276
-2
286
1
 66
0
277
-2
287
1
 67
0
278
-2
288
1
 68
0
279
-2
289
1
 69
0
  0
VISUALSTYLE
  5
3C5
102
{ACAD_REACTORS
330
3BF
102
}
330
3BF
100
AcDbVisualStyle
  2
2dWireframe
 70
4
177
3
291
0
 70
58
 90
0
176
1
 90
2
176
1
 90
0
176
1
 90
0
176
1
 40
0.6
176
1
 40
30.0
176
1
 62
7
420
16777215
176
1
 90
1
176
1
 90
4
176
1
 62
7
176
1
 62
257
176
1
 90
1
176
1
 90
1
176
1
 40
1.0
176
1
 90
0
176
1
 62
257
176
1
 40
1.0
176
1
 90
1
176
1
 90
6
176
1
 90
2
176
1
 62
7
176
1
 90
5
176
1
 90
0
176
1
 90
0
176
1
290
0
176
1
 90
1
176
1
 40
0.0
176
1
 90
0
176
1
290
1
176
1
290
1
176
1
290
0
176
1
290
0
176
1
290
0
176
1
290
0
176
1
290
0
176
1
290
0
176
1
290
0
176
1
 90
50
176
1
 40
0.0
176
1
 40
1.0
176
1
 90
0
176
1
 62
18
420
0
176
1
 90
50
176
1
 90
3
176
1
 62
5
420
255
176
1
290
0
176
1
 90
50
176
1
 90
50
176
1
 90
50
176
1
290
0
176
1
 90
50
176
1
 62
256
176
0
 40
1.0
176
0
 90
2
176
1
  1
strokes_ogs.tif
176
1
290
0
176
1
 40
1.0
176
1
 40
1.0
176
1
  0
VISUALSTYLE
  5
3C4
102
{ACAD_REACTORS
330
3BF
102
}
330
3BF
100
AcDbVisualStyle
  2
Basic
 70
7
177
3
291
1
 70
58
 90
1
176
1
 90
0
176
1
 90
1
176
1
 90
0
176
1
 40
0.6
176
1
 40
30.0
176
1
 62
7
420
16777215
176
1
 90
0
176
1
 90
4
176
1
 62
7
176
1
 62
257
176
1
 90
1
176
1
 90
1
176
1
 40
1.0
176
1
 90
8
176
1
 62
7
176
1
 40
1.0
176
1
 90
1
176
1
 90
6
176
1
 90
2
176
1
 62
7
176
1
 90
5
176
1
 90
0
176
1
 90
0
176
1
290
0
176
1
 90
1
176
1
 40
0.0
176
1
 90
0
176
1
290
0
176
1
290
1
176
1
290
1
176
1
290
0
176
1
290
0
176
1
290
0
176
1
290
0
176
1
290
0
176
1
290
0
176
1
 90
50
176
1
 40
0.0
176
1
 40
1.0
176
1
 90
0
176
1
 62
18
420
0
176
1
 90
50
176
1
 90
3
176
1
 62
5
420
255
176
1
290
0
176
1
 90
50
176
1
 90
50
176
1
 90
50
176
1
290
0
176
1
 90
50
176
1
 62
256
176
0
 40
1.0
176
0
 90
2
176
1
  1
strokes_ogs.tif
176
1
290
0
176
1
 40
1.0
176
1
 40
1.0
176
1
  0
VISUALSTYLE
  5
3CB
102
{ACAD_REACTORS
330
3BF
102
}
330
3BF
100
AcDbVisualStyle
  2
Brighten
 70
12
177
3
291
1
 70
58
 90
2
176
1
 90
2
176
1
 90
0
176
1
 90
0
176
1
 40
0.6
176
1
 40
30.0
176
1
 62
7
420
16777215
176
1
 90
1
176
1
 90
4
176
1
 62
7
176
1
 62
257
176
1
 90
1
176
1
 90
1
176
1
 40
1.0
176
1
 90
8
176
1
 62
7
176
1
 40
1.0
176
1
 90
1
176
1
 90
6
176
1
 90
2
176
1
 62
7
176
1
 90
5
176
1
 90
0
176
1
 90
0
176
1
290
0
176
1
 90
1
176
1
 40
50.0
176
1
 90
0
176
1
290
0
176
1
290
1
176
1
290
1
176
1
290
0
176
1
290
0
176
1
290
0
176
1
290
0
176
1
290
0
176
1
290
0
176
1
 90
50
176
1
 40
0.0
176
1
 40
1.0
176
1
 90
0
176
1
 62
18
420
0
176
1
 90
50
176
1
 90
3
176
1
 62
5
420
255
176
1
290
0
176
1
 90
50
176
1
 90
50
176
1
 90
50
176
1
290
0
176
1
 90
50
176
1
 62
256
176
0
 40
1.0
176
0
 90
2
176
1
  1
strokes_ogs.tif
176
1
290
0
176
1
 40
1.0
176
1
 40
1.0
176
1
  0
VISUALSTYLE
  5
3CF
102
{ACAD_REACTORS
330
3BF
102
}
330
3BF
100
AcDbVisualStyle
  2
ColorChange
 70
16
177
3
291
1
 70
58
 90
2
176
1
 90
2
176
1
 90
3
176
1
 90
0
176
1
 40
0.6
176
1
 40
30.0
176
1
 62
8
420
8421504
176
1
 90
1
176
1
 90
4
176
1
 62
7
176
1
 62
257
176
1
 90
1
176
1
 90
1
176
1
 40
1.0
176
1
 90
8
176
1
 62
8
420
8421504
176
1
 40
1.0
176
1
 90
1
176
1
 90
6
176
1
 90
2
176
1
 62
7
176
1
 90
5
176
1
 90
0
176
1
 90
0
176
1
290
0
176
1
 90
1
176
1
 40
0.0
176
1
 90
0
176
1
290
0
176
1
290
1
176
1
290
1
176
1
290
0
176
1
290
0
176
1
290
0
176
1
290
0
176
1
290
0
176
1
290
0
176
1
 90
50
176
1
 40
0.0
176
1
 40
1.0
176
1
 90
0
176
1
 62
18
420
0
176
1
 90
50
176
1
 90
3
176
1
 62
5
420
255
176
1
290
0
176
1
 90
50
176
1
 90
50
176
1
 90
50
176
1
290
0
176
1
 90
50
176
1
 62
256
176
0
 40
1.0
176
0
 90
2
176
1
  1
strokes_ogs.tif
176
1
290
0
176
1
 40
1.0
176
1
 40
1.0
176
1
  0
VISUALSTYLE
  5
3C8
102
{ACAD_REACTORS
330
3BF
102
}
330
3BF
100
AcDbVisualStyle
  2
Conceptual
 70
9
177
3
291
0
 70
58
 90
3
176
1
 90
2
176
1
 90
0
176
1
 90
0
176
1
 40
0.6
176
1
 40
30.0
176
1
 62
7
420
16777215
176
1
 90
2
176
1
 90
2
176
1
 62
7
176
1
 62
257
176
1
 90
1
176
1
 90
1
176
1
 40
179.0
176
1
 90
8
176
1
 62
7
176
1
 40
1.0
176
1
 90
1
176
1
 90
6
176
1
 90
2
176
1
 62
7
176
1
 90
3
176
1
 90
0
176
1
 90
0
176
1
290
0
176
1
 90
1
176
1
 40
0.0
176
1
 90
0
176
1
290
0
176
1
290
1
176
1
290
1
176
1
290
0
176
1
290
0
176
1
290
0
176
1
290
0
176
1
290
0
176
1
290
0
176
1
 90
50
176
1
 40
0.0
176
1
 40
1.0
176
1
 90
0
176
1
 62
18
420
0
176
1
 90
50
176
1
 90
3
176
1
 62
5
420
255
176
1
290
0
176
1
 90
50
176
1
 90
50
176
1
 90
50
176
1
290
0
176
1
 90
50
176
1
 62
256
176
0
 40
1.0
176
0
 90
2
176
1
  1
strokes_ogs.tif
176
1
290
0
176
1
 40
1.0
176
1
 40
1.0
176
1
  0
VISUALSTYLE
  5
3CA
102
{ACAD_REACTORS
330
3BF
102
}
330
3BF
100
AcDbVisualStyle
  2
Dim
 70
11
177
3
291
1
 70
58
 90
2
176
1
 90
2
176
1
 90
0
176
1
 90
0
176
1
 40
0.6
176
1
 40
30.0
176
1
 62
7
420
16777215
176
1
 90
1
176
1
 90
4
176
1
 62
7
176
1
 62
257
176
1
 90
1
176
1
 90
1
176
1
 40
1.0
176
1
 90
8
176
1
 62
7
176
1
 40
1.0
176
1
 90
1
176
1
 90
6
176
1
 90
2
176
1
 62
7
176
1
 90
5
176
1
 90
0
176
1
 90
0
176
1
290
0
176
1
 90
1
176
1
 40
-50.0
176
1
 90
0
176
1
290
0
176
1
290
1
176
1
290
1
176
1
290
0
176
1
290
0
176
1
290
0
176
1
290
0
176
1
290
0
176
1
290
0
176
1
 90
50
176
1
 40
0.0
176
1
 40
1.0
176
1
 90
0
176
1
 62
18
420
0
176
1
 90
50
176
1
 90
3
176
1
 62
5
420
255
176
1
290
0
176
1
 90
50
176
1
 90
50
176
1
 90
50
176
1
290
0
176
1
 90
50
176
1
 62
256
176
0
 40
1.0
176
0
 90
2
176
1
  1
strokes_ogs.tif
176
1
290
0
176
1
 40
1.0
176
1
 40
1.0
176
1
  0
VISUALSTYLE
  5
3D7
102
{ACAD_REACTORS
330
3BF
102
}
330
3BF
100
AcDbVisualStyle
  2
EdgeColorOff
 70
22
177
3
291
1
 70
58
 90
2
176
0
 90
2
176
0
 90
0
176
0
 90
0
176
0
 40
0.6
176
0
 40
30.0
176
0
 62
7
420
16777215
176
0
 90
1
176
0
 90
4
176
0
 62
7
176
0
 62
257
176
0
 90
1
176
0
 90
1
176
0
 40
1.0
176
0
 90
8
176
2
 62
7
176
0
 40
1.0
176
0
 90
1
176
0
 90
6
176
0
 90
2
176
0
 62
7
176
0
 90
5
176
0
 90
0
176
0
 90
0
176
0
290
0
176
0
 90
1
176
0
 40
0.0
176
0
 90
0
176
0
290
0
176
0
290
1
176
0
290
1
176
0
290
0
176
0
290
0
176
0
290
0
176
0
290
0
176
0
290
0
176
0
290
0
176
0
 90
50
176
0
 40
0.0
176
0
 40
1.0
176
0
 90
0
176
0
 62
18
420
0
176
0
 90
50
176
0
 90
3
176
0
 62
5
420
255
176
0
290
0
176
0
 90
50
176
0
 90
50
176
0
 90
50
176
0
290
0
176
0
 90
50
176
0
 62
256
176
0
 40
1.0
176
0
 90
2
176
0
  1
strokes_ogs.tif
176
0
290
0
176
0
 40
1.0
176
0
 40
1.0
176
0
  0
VISUALSTYLE
  5
3CE
102
{ACAD_REACTORS
330
3BF
102
}
330
3BF
100
AcDbVisualStyle
  2
Facepattern
 70
15
177
3
291
1
 70
58
 90
2
176
1
 90
2
176
1
 90
0
176
1
 90
0
176
1
 40
0.6
176
1
 40
30.0
176
1
 62
7
420
16777215
176
1
 90
1
176
1
 90
4
176
1
 62
7
176
1
 62
257
176
1
 90
1
176
1
 90
1
176
1
 40
1.0
176
1
 90
8
176
1
 62
7
176
1
 40
1.0
176
1
 90
1
176
1
 90
6
176
1
 90
2
176
1
 62
7
176
1
 90
5
176
1
 90
0
176
1
 90
0
176
1
290
0
176
1
 90
1
176
1
 40
0.0
176
1
 90
0
176
1
290
0
176
1
290
1
176
1
290
1
176
1
290
0
176
1
290
0
176
1
290
0
176
1
290
0
176
1
290
0
176
1
290
0
176
1
 90
50
176
1
 40
0.0
176
1
 40
1.0
176
1
 90
0
176
1
 62
18
420
0
176
1
 90
50
176
1
 90
3
176
1
 62
5
420
255
176
1
290
0
176
1
 90
50
176
1
 90
50
176
1
 90
50
176
1
290
0
176
1
 90
50
176
1
 62
256
176
0
 40
1.0
176
0
 90
2
176
1
  1
strokes_ogs.tif
176
1
290
0
176
1
 40
1.0
176
1
 40
1.0
176
1
  0
VISUALSTYLE
  5
3C0
102
{ACAD_REACTORS
330
3BF
102
}
330
3BF
100
AcDbVisualStyle
  2
Flat
 70
0
177
3
291
1
 70
58
 90
2
176
1
 90
1
176
1
 90
1
176
1
 90
2
176
1
 40
0.6
176
1
 40
30.0
176
1
 62
7
420
16777215
176
1
 90
0
176
1
 90
0
176
1
 62
7
176
1
 62
257
176
1
 90
1
176
1
 90
1
176
1
 40
1.0
176
1
 90
8
176
1
 62
7
176
1
 40
1.0
176
1
 90
1
176
1
 90
6
176
1
 90
2
176
1
 62
7
176
1
 90
5
176
1
 90
0
176
1
 90
0
176
1
290
0
176
1
 90
13
176
1
 40
0.0
176
1
 90
0
176
1
290
0
176
1
290
1
176
1
290
1
176
1
290
0
176
1
290
0
176
1
290
0
176
1
290
0
176
1
290
0
176
1
290
0
176
1
 90
50
176
1
 40
0.0
176
1
 40
1.0
176
1
 90
0
176
1
 62
18
420
0
176
1
 90
50
176
1
 90
3
176
1
 62
5
420
255
176
1
290
0
176
1
 90
50
176
1
 90
50
176
1
 90
50
176
1
290
0
176
1
 90
50
176
1
 62
256
176
0
 40
1.0
176
0
 90
2
176
1
  1
strokes_ogs.tif
176
1
290
0
176
1
 40
1.0
176
1
 40
1.0
176
1
  0
VISUALSTYLE
  5
3C1
102
{ACAD_REACTORS
330
3BF
102
}
330
3BF
100
AcDbVisualStyle
  2
FlatWithEdges
 70
1
177
3
291
1
 70
58
 90
2
176
1
 90
1
176
1
 90
1
176
1
 90
2
176
1
 40
0.6
176
1
 40
30.0
176
1
 62
7
420
16777215
176
1
 90
1
176
1
 90
0
176
1
 62
7
176
1
 62
257
176
1
 90
1
176
1
 90
1
176
1
 40
1.0
176
1
 90
0
176
1
 62
257
176
1
 40
1.0
176
1
 90
1
176
1
 90
6
176
1
 90
2
176
1
 62
7
176
1
 90
5
176
1
 90
0
176
1
 90
0
176
1
290
0
176
1
 90
13
176
1
 40
0.0
176
1
 90
0
176
1
290
0
176
1
290
1
176
1
290
1
176
1
290
0
176
1
290
0
176
1
290
0
176
1
290
0
176
1
290
0
176
1
290
0
176
1
 90
50
176
1
 40
0.0
176
1
 40
1.0
176
1
 90
0
176
1
 62
18
420
0
176
1
 90
50
176
1
 90
3
176
1
 62
5
420
255
176
1
290
0
176
1
 90
50
176
1
 90
50
176
1
 90
50
176
1
290
0
176
1
 90
50
176
1
 62
256
176
0
 40
1.0
176
0
 90
2
176
1
  1
strokes_ogs.tif
176
1
290
0
176
1
 40
1.0
176
1
 40
1.0
176
1
  0
VISUALSTYLE
  5
3C2
102
{ACAD_REACTORS
330
3BF
102
}
330
3BF
100
AcDbVisualStyle
  2
Gouraud
 70
2
177
3
291
1
 70
58
 90
2
176
1
 90
2
176
1
 90
1
176
1
 90
2
176
1
 40
0.6
176
1
 40
30.0
176
1
 62
7
420
16777215
176
1
 90
0
176
1
 90
0
176
1
 62
7
176
1
 62
257
176
1
 90
1
176
1
 90
1
176
1
 40
1.0
176
1
 90
0
176
1
 62
7
176
1
 40
1.0
176
1
 90
1
176
1
 90
6
176
1
 90
2
176
1
 62
7
176
1
 90
5
176
1
 90
0
176
1
 90
0
176
1
290
0
176
1
 90
13
176
1
 40
0.0
176
1
 90
0
176
1
290
0
176
1
290
1
176
1
290
1
176
1
290
0
176
1
290
0
176
1
290
0
176
1
290
0
176
1
290
0
176
1
290
0
176
1
 90
50
176
1
 40
0.0
176
1
 40
1.0
176
1
 90
0
176
1
 62
18
420
0
176
1
 90
50
176
1
 90
3
176
1
 62
5
420
255
176
1
290
0
176
1
 90
50
176
1
 90
50
176
1
 90
50
176
1
290
0
176
1
 90
50
176
1
 62
256
176
0
 40
1.0
176
0
 90
2
176
1
  1
strokes_ogs.tif
176
1
290
0
176
1
 40
1.0
176
1
 40
1.0
176
1
  0
VISUALSTYLE
  5
3C3
102
{ACAD_REACTORS
330
3BF
102
}
330
3BF
100
AcDbVisualStyle
  2
GouraudWithEdges
 70
3
177
3
291
1
 70
58
 90
2
176
1
 90
2
176
1
 90
1
176
1
 90
2
176
1
 40
0.6
176
1
 40
30.0
176
1
 62
7
420
16777215
176
1
 90
1
176
1
 90
0
176
1
 62
7
176
1
 62
257
176
1
 90
1
176
1
 90
1
176
1
 40
1.0
176
1
 90
0
176
1
 62
257
176
1
 40
1.0
176
1
 90
1
176
1
 90
6
176
1
 90
2
176
1
 62
7
176
1
 90
5
176
1
 90
0
176
1
 90
0
176
1
290
0
176
1
 90
13
176
1
 40
0.0
176
1
 90
0
176
1
290
0
176
1
290
1
176
1
290
1
176
1
290
0
176
1
290
0
176
1
290
0
176
1
290
0
176
1
290
0
176
1
290
0
176
1
 90
50
176
1
 40
0.0
176
1
 40
1.0
176
1
 90
0
176
1
 62
18
420
0
176
1
 90
50
176
1
 90
3
176
1
 62
5
420
255
176
1
290
0
176
1
 90
50
176
1
 90
50
176
1
 90
50
176
1
290
0
176
1
 90
50
176
1
 62
256
176
0
 40
1.0
176
0
 90
2
176
1
  1
strokes_ogs.tif
176
1
290
0
176
1
 40
1.0
176
1
 40
1.0
176
1
  0
VISUALSTYLE
  5
3C7
102
{ACAD_REACTORS
330
3BF
102
}
330
3BF
100
AcDbVisualStyle
  2
Hidden
 70
6
177
3
291
0
 70
58
 90
1
176
1
 90
2
176
1
 90
2
176
1
 90
0
176
1
 40
0.6
176
1
 40
30.0
176
1
 62
7
420
16777215
176
1
 90
2
176
1
 90
2
176
1
 62
7
176
1
 62
257
176
1
 90
2
176
1
 90
1
176
1
 40
40.0
176
1
 90
0
176
1
 62
257
176
1
 40
1.0
176
1
 90
1
176
1
 90
6
176
1
 90
2
176
1
 62
7
176
1
 90
3
176
1
 90
0
176
1
 90
0
176
1
290
0
176
1
 90
1
176
1
 40
0.0
176
1
 90
0
176
1
290
0
176
1
290
1
176
1
290
1
176
1
290
0
176
1
290
0
176
1
290
0
176
1
290
0
176
1
290
0
176
1
290
0
176
1
 90
50
176
1
 40
0.0
176
1
 40
1.0
176
1
 90
0
176
1
 62
18
420
0
176
1
 90
50
176
1
 90
3
176
1
 62
5
420
255
176
1
290
0
176
1
 90
50
176
1
 90
50
176
1
 90
50
176
1
290
0
176
1
 90
50
176
1
 62
256
176
0
 40
1.0
176
0
 90
2
176
1
  1
strokes_ogs.tif
176
1
290
0
176
1
 40
1.0
176
1
 40
1.0
176
1
  0
VISUALSTYLE
  5
3D5
102
{ACAD_REACTORS
330
3BF
102
}
330
3BF
100
AcDbVisualStyle
  2
JitterOff
 70
20
177
3
291
1
 70
58
 90
2
176
0
 90
2
176
0
 90
0
176
0
 90
0
176
0
 40
0.6
176
0
 40
30.0
176
0
 62
7
420
16777215
176
0
 90
1
176
0
 90
4
176
0
 62
7
176
0
 62
257
176
0
 90
1
176
0
 90
1
176
0
 40
1.0
176
0
 90
10
176
2
 62
7
176
0
 40
1.0
176
0
 90
1
176
0
 90
6
176
0
 90
2
176
0
 62
7
176
0
 90
5
176
0
 90
0
176
0
 90
0
176
0
290
0
176
0
 90
1
176
0
 40
0.0
176
0
 90
0
176
0
290
0
176
0
290
1
176
0
290
1
176
0
290
0
176
0
290
0
176
0
290
0
176
0
290
0
176
0
290
0
176
0
290
0
176
0
 90
50
176
0
 40
0.0
176
0
 40
1.0
176
0
 90
0
176
0
 62
18
420
0
176
0
 90
50
176
0
 90
3
176
0
 62
5
420
255
176
0
290
0
176
0
 90
50
176
0
 90
50
176
0
 90
50
176
0
290
0
176
0
 90
50
176
0
 62
256
176
0
 40
1.0
176
0
 90
2
176
0
  1
strokes_ogs.tif
176
0
290
0
176
0
 40
1.0
176
0
 40
1.0
176
0
  0
VISUALSTYLE
  5
3CD
102
{ACAD_REACTORS
330
3BF
102
}
330
3BF
100
AcDbVisualStyle
  2
Linepattern
 70
14
177
3
291
1
 70
58
 90
2
176
1
 90
2
176
1
 90
0
176
1
 90
0
176
1
 40
0.6
176
1
 40
30.0
176
1
 62
7
420
16777215
176
1
 90
1
176
1
 90
4
176
1
 62
7
176
1
 62
257
176
1
 90
7
176
1
 90
7
176
1
 40
1.0
176
1
 90
8
176
1
 62
7
176
1
 40
1.0
176
1
 90
1
176
1
 90
6
176
1
 90
2
176
1
 62
7
176
1
 90
5
176
1
 90
0
176
1
 90
0
176
1
290
0
176
1
 90
1
176
1
 40
0.0
176
1
 90
0
176
1
290
0
176
1
290
1
176
1
290
1
176
1
290
0
176
1
290
0
176
1
290
0
176
1
290
0
176
1
290
0
176
1
290
0
176
1
 90
50
176
1
 40
0.0
176
1
 40
1.0
176
1
 90
0
176
1
 62
18
420
0
176
1
 90
50
176
1
 90
3
176
1
 62
5
420
255
176
1
290
0
176
1
 90
50
176
1
 90
50
176
1
 90
50
176
1
290
0
176
1
 90
50
176
1
 62
256
176
0
 40
1.0
176
0
 90
2
176
1
  1
strokes_ogs.tif
176
1
290
0
176
1
 40
1.0
176
1
 40
1.0
176
1
  0
VISUALSTYLE
  5
3D6
102
{ACAD_REACTORS
330
3BF
102
}
330
3BF
100
AcDbVisualStyle
  2
OverhangOff
 70
21
177
3
291
1
 70
58
 90
2
176
0
 90
2
176
0
 90
0
176
0
 90
0
176
0
 40
0.6
176
0
 40
30.0
176
0
 62
7
420
16777215
176
0
 90
1
176
0
 90
4
176
0
 62
7
176
0
 62
257
176
0
 90
1
176
0
 90
1
176
0
 40
1.0
176
0
 90
9
176
2
 62
7
176
0
 40
1.0
176
0
 90
1
176
0
 90
6
176
0
 90
2
176
0
 62
7
176
0
 90
5
176
0
 90
0
176
0
 90
0
176
0
290
0
176
0
 90
1
176
0
 40
0.0
176
0
 90
0
176
0
290
0
176
0
290
1
176
0
290
1
176
0
290
0
176
0
290
0
176
0
290
0
176
0
290
0
176
0
290
0
176
0
290
0
176
0
 90
50
176
0
 40
0.0
176
0
 40
1.0
176
0
 90
0
176
0
 62
18
420
0
176
0
 90
50
176
0
 90
3
176
0
 62
5
420
255
176
0
290
0
176
0
 90
50
176
0
 90
50
176
0
 90
50
176
0
290
0
176
0
 90
50
176
0
 62
256
176
0
 40
1.0
176
0
 90
2
176
0
  1
strokes_ogs.tif
176
0
290
0
176
0
 40
1.0
176
0
 40
1.0
176
0
  0
VISUALSTYLE
  5
3C9
102
{ACAD_REACTORS
330
3BF
102
}
330
3BF
100
AcDbVisualStyle
  2
Realistic
 70
8
177
3
291
0
 70
58
 90
2
176
1
 90
3
176
1
 90
0
176
1
 90
2
176
1
 40
0.6
176
1
 40
30.0
176
1
 62
7
420
16777215
176
1
 90
0
176
1
 90
0
176
1
 62
7
176
1
 62
257
176
1
 90
1
176
1
 90
1
176
1
 40
1.0
176
1
 90
8
176
1
 62
257
176
1
 40
1.0
176
1
 90
1
176
1
 90
6
176
1
 90
2
176
1
 62
7
176
1
 90
3
176
1
 90
0
176
1
 90
0
176
1
290
0
176
1
 90
13
176
1
 40
0.0
176
1
 90
0
176
1
290
0
176
1
290
1
176
1
290
1
176
1
290
0
176
1
290
0
176
1
290
0
176
1
290
0
176
1
290
0
176
1
290
0
176
1
 90
50
176
1
 40
0.0
176
1
 40
1.0
176
1
 90
0
176
1
 62
18
420
0
176
1
 90
50
176
1
 90
3
176
1
 62
5
420
255
176
1
290
0
176
1
 90
50
176
1
 90
50
176
1
 90
50
176
1
290
0
176
1
 90
50
176
1
 62
256
176
0
 40
1.0
176
0
 90
2
176
1
  1
strokes_ogs.tif
176
1
290
0
176
1
 40
1.0
176
1
 40
1.0
176
1
  0
VISUALSTYLE
  5
3D4
102
{ACAD_REACTORS
330
3BF
102
}
330
3BF
100
AcDbVisualStyle
  2
Shaded
 70
27
177
3
291
0
 70
58
 90
2
176
1
 90
2
176
1
 90
1
176
1
 90
2
176
1
 40
0.6
176
1
 40
30.0
176
1
 62
7
420
16777215
176
1
 90
0
176
1
 90
4
176
1
 62
7
176
1
 62
257
176
1
 90
1
176
1
 90
1
176
1
 40
1.0
176
1
 90
8
176
1
 62
257
176
1
 40
1.0
176
1
 90
1
176
1
 90
6
176
1
 90
2
176
1
 62
8
420
7895160
176
1
 90
3
176
1
 90
0
176
1
 90
0
176
1
290
0
176
1
 90
5
176
1
 40
0.0
176
1
 90
0
176
1
290
0
176
1
290
1
176
1
290
1
176
1
290
0
176
1
290
0
176
1
290
0
176
1
290
0
176
1
290
0
176
1
290
0
176
1
 90
50
176
1
 40
0.0
176
1
 40
1.0
176
1
 90
0
176
1
 62
18
420
0
176
1
 90
50
176
1
 90
3
176
1
 62
5
420
255
176
1
290
0
176
1
 90
50
176
1
 90
50
176
1
 90
50
176
1
290
0
176
1
 90
50
176
1
 62
256
176
0
 40
1.0
176
0
 90
2
176
1
  1
strokes_ogs.tif
176
1
290
0
176
1
 40
1.0
176
1
 40
1.0
176
1
  0
VISUALSTYLE
  5
3D3
102
{ACAD_REACTORS
330
3BF
102
}
330
3BF
100
AcDbVisualStyle
  2
Shaded with edges
 70
26
177
3
291
0
 70
58
 90
2
176
1
 90
2
176
1
 90
1
176
1
 90
2
176
1
 40
0.6
176
1
 40
30.0
176
1
 62
7
420
16777215
176
1
 90
1
176
1
 90
2
176
1
 62
7
176
1
 62
257
176
1
 90
2
176
1
 90
1
176
1
 40
1.0
176
1
 90
8
176
1
 62
257
176
1
 40
1.0
176
1
 90
1
176
1
 90
6
176
1
 90
2
176
1
 62
7
176
1
 90
3
176
1
 90
0
176
1
 90
0
176
1
290
0
176
1
 90
5
176
1
 40
0.0
176
1
 90
0
176
1
290
0
176
1
290
1
176
1
290
1
176
1
290
0
176
1
290
0
176
1
290
0
176
1
290
0
176
1
290
0
176
1
290
0
176
1
 90
50
176
1
 40
0.0
176
1
 40
1.0
176
1
 90
0
176
1
 62
18
420
0
176
1
 90
50
176
1
 90
3
176
1
 62
5
420
255
176
1
290
0
176
1
 90
50
176
1
 90
50
176
1
 90
50
176
1
290
0
176
1
 90
50
176
1
 62
256
176
0
 40
1.0
176
0
 90
2
176
1
  1
strokes_ogs.tif
176
1
290
0
176
1
 40
1.0
176
1
 40
1.0
176
1
  0
VISUALSTYLE
  5
3D0
102
{ACAD_REACTORS
330
3BF
102
}
330
3BF
100
AcDbVisualStyle
  2
Shades of Gray
 70
23
177
3
291
0
 70
58
 90
2
176
1
 90
2
176
1
 90
3
176
1
 90
0
176
1
 40
0.6
176
1
 40
30.0
176
1
 62
7
420
16777215
176
1
 90
2
176
1
 90
2
176
1
 62
7
176
1
 62
7
176
1
 90
1
176
1
 90
1
176
1
 40
40.0
176
1
 90
8
176
1
 62
7
176
1
 40
1.0
176
1
 90
1
176
1
 90
6
176
1
 90
2
176
1
 62
7
176
1
 90
3
176
1
 90
0
176
1
 90
0
176
1
290
0
176
1
 90
1
176
1
 40
0.0
176
1
 90
0
176
1
290
0
176
1
290
1
176
1
290
1
176
1
290
0
176
1
290
0
176
1
290
0
176
1
290
0
176
1
290
0
176
1
290
0
176
1
 90
50
176
1
 40
0.0
176
1
 40
1.0
176
1
 90
0
176
1
 62
18
420
0
176
1
 90
50
176
1
 90
3
176
1
 62
5
420
255
176
1
290
0
176
1
 90
50
176
1
 90
50
176
1
 90
50
176
1
290
0
176
1
 90
50
176
1
 62
256
176
0
 40
1.0
176
0
 90
2
176
1
  1
strokes_ogs.tif
176
1
290
0
176
1
 40
1.0
176
1
 40
1.0
176
1
  0
VISUALSTYLE
  5
3D1
102
{ACAD_REACTORS
330
3BF
102
}
330
3BF
100
AcDbVisualStyle
  2
Sketchy
 70
24
177
3
291
0
 70
58
 90
1
176
1
 90
2
176
1
 90
2
176
1
 90
0
176
1
 40
0.6
176
1
 40
30.0
176
1
 62
7
420
16777215
176
1
 90
2
176
1
 90
2
176
1
 62
7
176
1
 62
7
176
1
 90
1
176
1
 90
1
176
1
 40
40.0
176
1
 90
11
176
1
 62
7
176
1
 40
1.0
176
1
 90
1
176
1
 90
6
176
1
 90
2
176
1
 62
7
176
1
 90
6
176
1
 90
0
176
1
 90
0
176
1
290
0
176
1
 90
1
176
1
 40
0.0
176
1
 90
0
176
1
290
0
176
1
290
1
176
1
290
1
176
1
290
0
176
1
290
0
176
1
290
0
176
1
290
0
176
1
290
0
176
1
290
0
176
1
 90
50
176
1
 40
0.0
176
1
 40
1.0
176
1
 90
0
176
1
 62
18
420
0
176
1
 90
50
176
1
 90
3
176
1
 62
5
420
255
176
1
290
0
176
1
 90
50
176
1
 90
50
176
1
 90
50
176
1
290
0
176
1
 90
50
176
1
 62
256
176
0
 40
1.0
176
0
 90
2
176
1
  1
strokes_ogs.tif
176
1
290
0
176
1
 40
1.0
176
1
 40
1.0
176
1
  0
VISUALSTYLE
  5
3CC
102
{ACAD_REACTORS
330
3BF
102
}
330
3BF
100
AcDbVisualStyle
  2
Thicken
 70
13
177
3
291
1
 70
58
 90
2
176
1
 90
2
176
1
 90
0
176
1
 90
0
176
1
 40
0.6
176
1
 40
30.0
176
1
 62
7
420
16777215
176
1
 90
1
176
1
 90
4
176
1
 62
7
176
1
 62
257
176
1
 90
1
176
1
 90
1
176
1
 40
1.0
176
1
 90
12
176
1
 62
7
176
1
 40
1.0
176
1
 90
1
176
1
 90
6
176
1
 90
2
176
1
 62
7
176
1
 90
5
176
1
 90
0
176
1
 90
0
176
1
290
0
176
1
 90
1
176
1
 40
0.0
176
1
 90
0
176
1
290
0
176
1
290
1
176
1
290
1
176
1
290
0
176
1
290
0
176
1
290
0
176
1
290
0
176
1
290
0
176
1
290
0
176
1
 90
50
176
1
 40
0.0
176
1
 40
1.0
176
1
 90
0
176
1
 62
18
420
0
176
1
 90
50
176
1
 90
3
176
1
 62
5
420
255
176
1
290
0
176
1
 90
50
176
1
 90
50
176
1
 90
50
176
1
290
0
176
1
 90
50
176
1
 62
256
176
0
 40
1.0
176
0
 90
2
176
1
  1
strokes_ogs.tif
176
1
290
0
176
1
 40
1.0
176
1
 40
1.0
176
1
  0
VISUALSTYLE
  5
3C6
102
{ACAD_REACTORS
330
3BF
102
}
330
3BF
100
AcDbVisualStyle
  2
Wireframe
 70
5
177
3
291
0
 70
58
 90
0
176
1
 90
2
176
1
 90
0
176
1
 90
0
176
1
 40
0.6
176
1
 40
30.0
176
1
 62
7
420
16777215
176
1
 90
1
176
1
 90
4
176
1
 62
7
176
1
 62
257
176
1
 90
1
176
1
 90
1
176
1
 40
1.0
176
1
 90
0
176
1
 62
257
176
1
 40
1.0
176
1
 90
1
176
1
 90
6
176
1
 90
2
176
1
 62
7
176
1
 90
3
176
1
 90
0
176
1
 90
0
176
1
290
0
176
1
 90
1
176
1
 40
0.0
176
1
 90
0
176
1
290
0
176
1
290
1
176
1
290
1
176
1
290
0
176
1
290
0
176
1
290
0
176
1
290
0
176
1
290
0
176
1
290
0
176
1
 90
50
176
1
 40
0.0
176
1
 40
1.0
176
1
 90
0
176
1
 62
18
420
0
176
1
 90
50
176
1
 90
3
176
1
 62
5
420
255
176
1
290
0
176
1
 90
50
176
1
 90
50
176
1
 90
50
176
1
290
0
176
1
 90
50
176
1
 62
256
176
0
 40
1.0
176
0
 90
2
176
1
  1
strokes_ogs.tif
176
1
290
0
176
1
 40
1.0
176
1
 40
1.0
176
1
  0
VISUALSTYLE
  5
3D2
102
{ACAD_REACTORS
330
3BF
102
}
330
3BF
100
AcDbVisualStyle
  2
X-Ray
 70
25
177
3
291
0
 70
58
 90
2
176
1
 90
2
176
1
 90
1
176
1
 90
1
176
1
 40
0.5
176
1
 40
30.0
176
1
 62
7
420
16777215
176
1
 90
1
176
1
 90
0
176
1
 62
7
176
1
 62
257
176
1
 90
1
176
1
 90
1
176
1
 40
1.0
176
1
 90
8
176
1
 62
7
176
1
 40
1.0
176
1
 90
1
176
1
 90
6
176
1
 90
2
176
1
 62
7
176
1
 90
3
176
1
 90
0
176
1
 90
0
176
1
290
0
176
1
 90
13
176
1
 40
0.0
176
1
 90
0
176
1
290
0
176
1
290
1
176
1
290
1
176
1
290
0
176
1
290
0
176
1
290
0
176
1
290
0
176
1
290
0
176
1
290
0
176
1
 90
50
176
1
 40
0.0
176
1
 40
1.0
176
1
 90
0
176
1
 62
18
420
0
176
1
 90
50
176
1
 90
3
176
1
 62
5
420
255
176
1
290
0
176
1
 90
50
176
1
 90
50
176
1
 90
50
176
1
290
0
176
1
 90
50
176
1
 62
256
176
0
 40
1.0
176
0
 90
2
176
1
  1
strokes_ogs.tif
176
1
290
0
176
1
 40
1.0
176
1
 40
1.0
176
1
  0
DICTIONARYVAR
  5
3F6
102
{ACAD_REACTORS
330
3F1
102
}
330
3F1
100
DictionaryVariables
280
0
  1
1:1
  0
DICTIONARYVAR
  5
3F3
102
{ACAD_REACTORS
330
3F1
102
}
330
3F1
100
DictionaryVariables
280
0
  1
STANDARD
  0
DICTIONARYVAR
  5
3F2
102
{ACAD_REACTORS
330
3F1
102
}
330
3F1
100
DictionaryVariables
280
0
  1
STANDARD
  0
DICTIONARYVAR
  5
3F4
102
{ACAD_REACTORS
330
3F1
102
}
330
3F1
100
DictionaryVariables
280
0
  1
Metric50
  0
DICTIONARYVAR
  5
3F5
102
{ACAD_REACTORS
330
3F1
102
}
330
3F1
100
DictionaryVariables
280
0
  1
Metric50
  0
DICTIONARY
  5
3B0
330
3AF
100
AcDbDictionary
280
1
281
1
  3
BUMPTILE
360
3B2
  3
DIFFUSETILE
360
3B1
  3
OPACITYTILE
360
3B5
  3
REFLECTIONTILE
360
3B4
  3
REFRACTIONTILE
360
3B6
  3
SPECULARTILE
360
3B3
  0
DICTIONARY
  5
3A8
330
3A7
100
AcDbDictionary
280
1
281
1
  3
BUMPTILE
360
3AA
  3
DIFFUSETILE
360
3A9
  3
OPACITYTILE
360
3AD
  3
REFLECTIONTILE
360
3AC
  3
REFRACTIONTILE
360
3AE
  3
SPECULARTILE
360
3AB
  0
DICTIONARY
  5
3B8
330
3B7
100
AcDbDictionary
280
1
281
1
  3
BUMPTILE
360
3BA
  3
DIFFUSETILE
360
3B9
  3
OPACITYTILE
360
3BD
  3
REFLECTIONTILE
360
3BC
  3
REFRACTIONTILE
360
3BE
  3
SPECULARTILE
360
3BB
  0
DICTIONARY
  5
4D7
330
3A0
100
AcDbDictionary
280
1
281
1
  3
ACAD_ROUNDTRIP_2008_TABLESTYLE_CELLSTYLEMAP
360
4D8
  0
DICTIONARY
  5
4D9
330
3A1
100
AcDbDictionary
280
1
281
1
  3
ACAD_ROUNDTRIP_2008_TABLESTYLE_CELLSTYLEMAP
360
4DA
  0
XRECORD
  5
3B2
102
{ACAD_REACTORS
330
3B0
102
}
330
3B0
100
AcDbXrecord
280
1
270
1
271
1
  0
XRECORD
  5
3B1
102
{ACAD_REACTORS
330
3B0
102
}
330
3B0
100
AcDbXrecord
280
1
270
1
271
1
  0
XRECORD
  5
3B5
102
{ACAD_REACTORS
330
3B0
102
}
330
3B0
100
AcDbXrecord
280
1
270
1
271
1
  0
XRECORD
  5
3B4
102
{ACAD_REACTORS
330
3B0
102
}
330
3B0
100
AcDbXrecord
280
1
270
1
271
1
  0
XRECORD
  5
3B6
102
{ACAD_REACTORS
330
3B0
102
}
330
3B0
100
AcDbXrecord
280
1
270
1
271
1
  0
XRECORD
  5
3B3
102
{ACAD_REACTORS
330
3B0
102
}
330
3B0
100
AcDbXrecord
280
1
270
1
271
1
  0
XRECORD
  5
3AA
102
{ACAD_REACTORS
330
3A8
102
}
330
3A8
100
AcDbXrecord
280
1
270
1
271
1
  0
XRECORD
  5
3A9
102
{ACAD_REACTORS
330
3A8
102
}
330
3A8
100
AcDbXrecord
280
1
270
1
271
1
  0
XRECORD
  5
3AD
102
{ACAD_REACTORS
330
3A8
102
}
330
3A8
100
AcDbXrecord
280
1
270
1
271
1
  0
XRECORD
  5
3AC
102
{ACAD_REACTORS
330
3A8
102
}
330
3A8
100
AcDbXrecord
280
1
270
1
271
1
  0
XRECORD
  5
3AE
102
{ACAD_REACTORS
330
3A8
102
}
330
3A8
100
AcDbXrecord
280
1
270
1
271
1
  0
XRECORD
  5
3AB
102
{ACAD_REACTORS
330
3A8
102
}
330
3A8
100
AcDbXrecord
280
1
270
1
271
1
  0
XRECORD
  5
3BA
102
{ACAD_REACTORS
330
3B8
102
}
330
3B8
100
AcDbXrecord
280
1
270
1
271
1
  0
XRECORD
  5
3B9
102
{ACAD_REACTORS
330
3B8
102
}
330
3B8
100
AcDbXrecord
280
1
270
1
271
1
  0
XRECORD
  5
3BD
102
{ACAD_REACTORS
330
3B8
102
}
330
3B8
100
AcDbXrecord
280
1
270
1
271
1
  0
XRECORD
  5
3BC
102
{ACAD_REACTORS
330
3B8
102
}
330
3B8
100
AcDbXrecord
280
1
270
1
271
1
  0
XRECORD
  5
3BE
102
{ACAD_REACTORS
330
3B8
102
}
330
3B8
100
AcDbXrecord
280
1
270
1
271
1
  0
XRECORD
  5
3BB
102
{ACAD_REACTORS
330
3B8
102
}
330
3B8
100
AcDbXrecord
280
1
270
1
271
1
  0
CELLSTYLEMAP
  5
4D8
102
{ACAD_REACTORS
330
4D7
102
}
330
4D7
100
AcDbCellStyleMap
 90
3
300
CELLSTYLE
  1
TABLEFORMAT_BEGIN
 90
5
170
1
 91
0
 92
32768
 62
257
 93
1
300
CONTENTFORMAT
  1
CONTENTFORMAT_BEGIN
 90
0
 91
0
 92
512
 93
0
300

 40
0.0
140
1.0
 94
1
 62
0
340
11
144
0.18
309
CONTENTFORMAT_END
171
0
 94
0
309
TABLEFORMAT_END
  1
CELLSTYLE_BEGIN
 90
1
 91
1
300
_TITLE
309
CELLSTYLE_END
300
CELLSTYLE
  1
TABLEFORMAT_BEGIN
 90
5
170
1
 91
0
 92
0
 62
257
 93
1
300
CONTENTFORMAT
  1
CONTENTFORMAT_BEGIN
 90
0
 91
0
 92
512
 93
0
300

 40
0.0
140
1.0
 94
1
 62
0
340
11
144
0.18
309
CONTENTFORMAT_END
171
0
 94
0
309
TABLEFORMAT_END
  1
CELLSTYLE_BEGIN
 90
2
 91
1
300
_HEADER
309
CELLSTYLE_END
300
CELLSTYLE
  1
TABLEFORMAT_BEGIN
 90
5
170
1
 91
0
 92
0
 62
257
 93
1
300
CONTENTFORMAT
  1
CONTENTFORMAT_BEGIN
 90
0
 91
0
 92
512
 93
0
300

 40
0.0
140
1.0
 94
1
 62
0
340
11
144
0.18
309
CONTENTFORMAT_END
171
0
 94
0
309
TABLEFORMAT_END
  1
CELLSTYLE_BEGIN
 90
3
 91
2
300
_DATA
309
CELLSTYLE_END
  0
CELLSTYLEMAP
  5
4DA
102
{ACAD_REACTORS
330
4D9
102
}
330
4D9
100
AcDbCellStyleMap
 90
3
300
CELLSTYLE
  1
TABLEFORMAT_BEGIN
 90
5
170
1
 91
0
 92
32768
 62
257
 93
1
300
CONTENTFORMAT
  1
CONTENTFORMAT_BEGIN
 90
0
 91
0
 92
512
 93
0
300

 40
0.0
140
1.0
 94
1
 62
0
340
11
144
0.18
309
CONTENTFORMAT_END
171
0
 94
0
309
TABLEFORMAT_END
  1
CELLSTYLE_BEGIN
 90
1
 91
1
300
_TITLE
309
CELLSTYLE_END
300
CELLSTYLE
  1
TABLEFORMAT_BEGIN
 90
5
170
1
 91
0
 92
0
 62
257
 93
1
300
CONTENTFORMAT
  1
CONTENTFORMAT_BEGIN
 90
0
 91
0
 92
512
 93
0
300

 40
0.0
140
1.0
 94
1
 62
0
340
11
144
0.18
309
CONTENTFORMAT_END
171
0
 94
0
309
TABLEFORMAT_END
  1
CELLSTYLE_BEGIN
 90
2
 91
1
300
_HEADER
309
CELLSTYLE_END
300
CELLSTYLE
  1
TABLEFORMAT_BEGIN
 90
5
170
1
 91
0
 92
0
 62
257
 93
1
300
CONTENTFORMAT
  1
CONTENTFORMAT_BEGIN
 90
0
 91
0
 92
512
 93
0
300

 40
0.0
140
1.0
 94
1
 62
0
340
11
144
0.18
309
CONTENTFORMAT_END
171
0
 94
0
309
TABLEFORMAT_END
  1
CELLSTYLE_BEGIN
 90
3
 91
2
300
_DATA
309
CELLSTYLE_END
  0
DICTIONARY
  5
4F0
330
C
100
AcDbDictionary
280
1
281
1
  3
WRITTEN_BY_EZDXF
350
4F1
  0
DICTIONARYVAR
  5
4F1
330
4F0
100
DictionaryVariables
280
0
  1
1.4.0 @ 2025-03-16T14:07:28.021082+00:00
  0
ENDSEC
  0
SECTION
  2
ACDSDATA
 70
2
 71
8
  0
ACDSSCHEMA
 90
0
  1
AcDb_Thumbnail_Schema
  2
AcDbDs::ID
280
10
 91
8
  2
Thumbnail_Data
280
15
 91
0
101
ACDSRECORD
 95
0
 90
1
  2
AcDbDs::TreatedAsObjectData
280
1
291
1
101
ACDSRECORD
 95
0
 90
2
  2
AcDbDs::Legacy
280
1
291
1
101
ACDSRECORD
  1
AcDbDs::ID
 90
3
  2
AcDs:Indexable
280
1
291
1
101
ACDSRECORD
  1
AcDbDs::ID
 90
4
  2
AcDbDs::HandleAttribute
280
7
282
1
  0
ACDSSCHEMA
 90
1
  1
AcDbDs::TreatedAsObjectDataSchema
  2
AcDbDs::TreatedAsObjectData
280
1
 91
0
  0
ACDSSCHEMA
 90
2
  1
AcDbDs::LegacySchema
  2
AcDbDs::Legacy
280
1
 91
0
  0
ACDSSCHEMA
 90
3
  1
AcDbDs::IndexedPropertySchema
  2
AcDs:Indexable
280
1
 91
0
  0
ACDSSCHEMA
 90
4
  1
AcDbDs::HandleAttributeSchema
  2
AcDbDs::HandleAttribute
280
7
 91
1
284
1
  0
ACDSRECORD
 90
0
  2
AcDbDs::ID
280
10
320
39E
  2
Thumbnail_Data
280
15
 94
2872
310
89504E470D0A1A0A0000000D494844520000010A0000010008030000007C8EC89D00000300504C5445212830FFFFFF2128300000000000000000000000000000000000000000000000000000330000660000990000CC0000FF0033000033330033660033990033CC0033FF0066000066330066660066990066CC0066FF0099
310
000099330099660099990099CC0099FF00CC0000CC3300CC6600CC9900CCCC00CCFF00FF0000FF3300FF6600FF9900FFCC00FFFF3300003300333300663300993300CC3300FF3333003333333333663333993333CC3333FF3366003366333366663366993366CC3366FF3399003399333399663399993399CC3399FF33CC00
310
33CC3333CC6633CC9933CCCC33CCFF33FF0033FF3333FF6633FF9933FFCC33FFFF6600006600336600666600996600CC6600FF6633006633336633666633996633CC6633FF6666006666336666666666996666CC6666FF6699006699336699666699996699CC6699FF66CC0066CC3366CC6666CC9966CCCC66CCFF66FF0066
310
FF3366FF6666FF9966FFCC66FFFF9900009900339900669900999900CC9900FF9933009933339933669933999933CC9933FF9966009966339966669966999966CC9966FF9999009999339999669999999999CC9999FF99CC0099CC3399CC6699CC9999CCCC99CCFF99FF0099FF3399FF6699FF9999FFCC99FFFFCC0000CC00
310
33CC0066CC0099CC00CCCC00FFCC3300CC3333CC3366CC3399CC33CCCC33FFCC6600CC6633CC6666CC6699CC66CCCC66FFCC9900CC9933CC9966CC9999CC99CCCC99FFCCCC00CCCC33CCCC66CCCC99CCCCCCCCCCFFCCFF00CCFF33CCFF66CCFF99CCFFCCCCFFFFFF0000FF0033FF0066FF0099FF00CCFF00FFFF3300FF3333
310
FF3366FF3399FF33CCFF33FFFF6600FF6633FF6666FF6699FF66CCFF66FFFF9900FF9933FF9966FF9999FF99CCFF99FFFFCC00FFCC33FFCC66FFCC99FFCCCCFFCCFFFFFF00FFFF33FFFF66FFFF99FFFFCCFFFFFF0000000D0D0D1A1A1A2828283535354343435050505D5D5D6B6B6B787878868686939393A1A1A1AEAEAEBB
310
BBBBC9C9C9D6D6D6E4E4E4F1F1F1FFFFFF0000000000000000000000000000000000000000000000000000000000002E4550F1000007F34944415478DAED9DC9A2AC2A0C45F3FFDF98C99933CDFCD8D004043BC0A6DCFBBE7B5F55595AB80C4940402208822008822008822008822008822008822008822008822008822008
310
8220088220088220088220088220088220083A29F90171F2FE2C0AF78227F91741C327E39FF115E794FF546F227718F753E127293D445A3E572255DAEC7772A754878255014FA298CAB6F8069551443816A719ED9B3BBA2FB5DBFB2C0ABE57B4B0A0B47CC1EAC79A30BCCDA2D04675DA2A1658AD0D90BEC8FE72AE9C0C6913
310
77C724CE1EE6DC65E86C1542A582AEBC38F2DDD517475148E1824497E1A515A4872A2B08BFC32ABCEBEC12415E84622AE4FC4F266AB5729B37A1385E993BA2B839961E2F2B155110D7569039D579B055C471B98882EA2BC81B500406AB862C5511E40515246A00EC6845FCB0DB8CFCC1168AE12BBF8CC256E1EDEF4F27F389
310
08B2EBBA36A8203FD10F556515423FA4C9573050C02A8002288002284E4510A07892553C204FABCC369B6178088A9BAD821F92BDCF9D2F77A160C5E24873F307ADA27F73F33D28767C021440712B8AFBDD26AC022880E22E14FC1214B901738D3BB88FA1B8AF0D222ED3DA3E2257A07E8555F894B3390AC780D5EBC7A388DA
310
208D508433E7E5470F4641AD51E8B3E6FCC74FF5157600442314F1197379D345285607C16506543B16F52864753FB9A182AC043FC9ED6FEB48350AC9C5EA5D457E0C0ABB83A94421516D30640691D134E4725FC17410C5B48BA944A10E2D663AD80CD89800432EB78AE328886B2B883AB2836AF71BDE6EB17892558C056E83
310
623089C57E8185DC6A1591E73054C822860D5528C2B99ACC7E5B2C6E416196FB8FEECDF811839906D801149E8499E54CC4842FDC87229E0E24B688AEA8C6C231D9FC733F8A84C45CDB58398E751697A0E0A4C9C5CE3024A91FF30C935A14C6DB9E4F2B1C8B75149DFA36CB28C6B2ADA0C85905EF41111B8599D36C619B6F9B
310
4DB3A81CC27A14C5F4F7300ADE1E8A9B1AC570FD4595C3B3780C8AA9A1C1C160D750A493C476164662B7201CDB8A91AB51C4455756613D536F1426B5AFC42CAE43C17914F6046574E9C98C5FFFFF562824FCF63CC1786A8988D13F96EECF97A2987F6D463139D0F9CFEC4BE31E0CD69E621B85E43C8546316C1AB3502975F0
310
7542413914AC51F81674684A972A08EDB28A7CFD9806E8AA1E122A4F3D97F5465053AB70245404898AD41285E8361607AB5B71161D51AC8EDA1FB2EC29D53689844FA270937CFC71167D67D116E15BDDA63581A2554CC99E9DBBD1CE2A545EB76915ED51309782A9CF77F2C174CC7BB9B1AFA0A8B96AE85A14548D828E0753
310
D1276C16286433DDBC0805D5A0A0E379856CA0B831F1DE8F829BA050D9A6DF285B28AEE8D0DB5941A89478D3F674C0A48604C7C94927C63A0A7E8C5564519C6E998A8F203E66ADB64C2F4241C750247670A6BFC27658B0EDAE90EDFE8A6B3AF4A2DC5BD8F5E3CD69CF368A33BD58731E6F736C6B0D66AB43EF82CEFF681118
310
F15DDEB680AE93B35441CEF56D8E8631FC1205DA0FE8DB4C922E43945D5866ECF26EDAE34D93D5F98C76ABC7BBCD12615B2892BC2F8F8255C2BCE378E5E264EF8398CD7B42D7DD28DC8182DADD1D33C97E86B648FC268AC9308CDACF28122F41410DEFA44F6ED3F0E494F5801B397B4AA751F01D2892F115D61E68D7F88AA7
310
A1B871D44D2F1447C7623543717E2C560714A541C91C35497A59C5F9117A3D50C44B2BFAB6D45528CE8EDBEC83829892051C75F2D81DC5B9D1BC175805675A56BD519C19E37DA1AFC8A1E83C09E244B3E2DA81CD5CE89462BA756ACCCFA320A0008A97A2506B3ED26261E69F47C1110A1F6E883F87C29F6E84823E6C15EC17
310
CA8DF3D18F59C5C6528988201F8E20CD9243A0008AC3DEE778430E2880E241285C8605146EFE503D8A552CEFB08ACC24984F45900B17E7465EF116148F165000055000C59E84EC3328DCED32F653A7C22D34A14E23F41E8F4293A06FA3B0A74E6A721D7D10057C45F250BFEC3C936F594508250414FA89B240516A0AE3D1AE
310
CDDCE681BE97C257C3D389393C407BFCFC6F16D1F80FEBA530F4047F4EAFBE9BF23FFC1DF79DFEEB9E78733314D1B3881D9C3F2FA268837816338AE4DAFA2C41E65DFFFEBAA3E06462D70914D9C732C7286866113D42DE9FAE6450A84509AE42913CDABEAD55506415090A7DB639AB98AB084D289C555DD0326DE52BD46379
310
DD9DF5D94BD8CAAE17CD498F9A41E12AC9DF6E4F8108727F04597FD47DE4366D0409CFF8766360D323CDAFBD77B9B4EB867BA0588B2099658D177B1F720F4F8820FB51E8089259ECBA80E2DA0EBDAA08A2535F7F9649FA9046108A504811C51D15A4D2579042E1E202BB2594388D206EC9B5743EAE722ED366BFD765281041
310
DA5985BA983AAF521E23454FA14EAA75CFD42048528959E8B19C9B223BBCE903234809059750E8F5D83C0A3F2D26249DFD50544690D82CA8150A7228C22269DD51D44610E21A149254108E51E8ECBB370AB8CDC6C15465908B4EB6E27A1E1CCDDB5D74DDB8FB3B62978552EB088A5A2AAA475E91EB2BCC4FBC5566CCE99B45
310
3559A920298A88ABBEE13395D27EE0BD8B74F01514C6F01F42C1B511641305456B4A8AC4B704BBB84DAA429189204DADC2AF6C1AAC6275F6ED1D56916D94374311F906ED2A84D6E79E9E46715C9C7DE9DEF072C3D1A39E3B4061F1841F955A499C3813CEE82BCAD7485E64762A1E7E0545ECDEB258808255FBF7C751F83B0C
310
C90AFC5F436117350D287C27986E59EE5DE2138220088220088220088220088220088220088220088220088220088220088220088220E861FA0736E9B7E960BDFDCB0000000049454E44AE426082
  0
ENDSEC
  0
EOF
